NotoSerifTamil-SemiCondensed.ufo
<glyph name="exclam" format="2">
  <advance width="311.3666666666667"/>
  <unicode hex="0021"/>
  <outline>
    <contour>
      <point x="133.46666666666667" y="199.9" type="line"/>
      <point x="176.9" y="199.9" type="line"/>
      <point x="210.8" y="714.0" type="line"/>
      <point x="99.56666666666666" y="714.0" type="line"/>
    </contour>
    <contour>
      <point x="155.36666666666667" y="-7.0" type="curve" smooth="yes"/>
      <point x="186.8" y="-7.0"/>
      <point x="213.96666666666667" y="9.266666666666667"/>
      <point x="213.96666666666667" y="58.8" type="curve" smooth="yes"/>
      <point x="213.96666666666667" y="108.96666666666667"/>
      <point x="186.8" y="124.6"/>
      <point x="155.36666666666667" y="124.6" type="curve" smooth="yes"/>
      <point x="122.56666666666666" y="124.6"/>
      <point x="96.76666666666667" y="108.96666666666667"/>
      <point x="96.76666666666667" y="58.8" type="curve" smooth="yes"/>
      <point x="96.76666666666667" y="9.266666666666667"/>
      <point x="122.56666666666666" y="-7.0"/>
    </contour>
  </outline>
</glyph>
<glyph name="quotedbl" format="2">
  <advance width="384.53333333333336"/>
  <unicode hex="0022"/>
  <outline>
    <contour>
      <point x="258.8666666666667" y="480.46666666666664" type="line"/>
      <point x="303.03333333333336" y="480.46666666666664" type="line"/>
      <point x="330.8333333333333" y="714.0" type="line"/>
      <point x="229.23333333333335" y="714.0" type="line"/>
    </contour>
    <contour>
      <point x="82.6" y="480.46666666666664" type="line"/>
      <point x="126.4" y="480.46666666666664" type="line"/>
      <point x="155.3" y="714.0" type="line"/>
      <point x="53.333333333333336" y="714.0" type="line"/>
    </contour>
  </outline>
</glyph>
<glyph name="numbersign" format="2">
  <advance width="516.4666666666667"/>
  <unicode hex="0023"/>
  <outline>
    <contour>
      <point x="66.16666666666667" y="0.0" type="line"/>
      <point x="124.33333333333333" y="0.0" type="line"/>
      <point x="162.7" y="204.83333333333334" type="line"/>
      <point x="288.8666666666667" y="204.83333333333334" type="line"/>
      <point x="250.5" y="0.0" type="line"/>
      <point x="308.6666666666667" y="0.0" type="line"/>
      <point x="347.03333333333336" y="204.83333333333334" type="line"/>
      <point x="465.7" y="204.83333333333334" type="line"/>
      <point x="465.7" y="260.9" type="line"/>
      <point x="358.3" y="260.9" type="line"/>
      <point x="395.6666666666667" y="458.73333333333335" type="line"/>
      <point x="497.7" y="458.73333333333335" type="line"/>
      <point x="497.7" y="515.5333333333333" type="line"/>
      <point x="406.3" y="515.5333333333333" type="line"/>
      <point x="443.6666666666667" y="714.0" type="line"/>
      <point x="385.1333333333333" y="714.0" type="line"/>
      <point x="348.1333333333333" y="515.5333333333333" type="line"/>
      <point x="221.96666666666667" y="515.5333333333333" type="line"/>
      <point x="259.3333333333333" y="714.0" type="line"/>
      <point x="200.16666666666666" y="714.0" type="line"/>
      <point x="163.8" y="515.5333333333333" type="line"/>
      <point x="50.4" y="515.5333333333333" type="line"/>
      <point x="50.4" y="458.73333333333335" type="line"/>
      <point x="152.8" y="458.73333333333335" type="line"/>
      <point x="115.16666666666667" y="260.9" type="line"/>
      <point x="18.4" y="260.9" type="line"/>
      <point x="18.4" y="204.83333333333334" type="line"/>
      <point x="104.53333333333333" y="204.83333333333334" type="line"/>
    </contour>
    <contour>
      <point x="173.96666666666667" y="260.9" type="line"/>
      <point x="211.33333333333334" y="458.73333333333335" type="line"/>
      <point x="337.5" y="458.73333333333335" type="line"/>
      <point x="300.1333333333333" y="260.9" type="line"/>
    </contour>
  </outline>
</glyph>
<glyph name="percent" format="2">
  <advance width="828.1666666666666"/>
  <unicode hex="0025"/>
  <outline>
    <contour>
      <point x="217.4" y="0.0" type="line"/>
      <point x="279.3666666666667" y="0.0" type="line"/>
      <point x="607.1333333333333" y="714.0" type="line"/>
      <point x="546.1666666666666" y="714.0" type="line"/>
    </contour>
    <contour>
      <point x="193.23333333333335" y="280.0" type="curve" smooth="yes"/>
      <point x="295.9" y="280.0"/>
      <point x="346.23333333333335" y="369.0"/>
      <point x="346.23333333333335" y="503.0" type="curve"/>
      <point x="346.23333333333335" y="637.0"/>
      <point x="295.9" y="724.0"/>
      <point x="194.23333333333335" y="724.0" type="curve" smooth="yes"/>
      <point x="85.93333333333334" y="724.0"/>
      <point x="40.6" y="637.0"/>
      <point x="40.6" y="503.0" type="curve" smooth="yes"/>
      <point x="40.6" y="369.0"/>
      <point x="85.93333333333334" y="280.0"/>
    </contour>
    <contour>
      <point x="193.23333333333335" y="319.1666666666667" type="curve" smooth="yes"/>
      <point x="141.43333333333334" y="319.1666666666667"/>
      <point x="122.9" y="386.1666666666667"/>
      <point x="122.9" y="503.0" type="curve"/>
      <point x="122.9" y="617.8333333333334"/>
      <point x="141.43333333333334" y="683.8333333333334"/>
      <point x="194.23333333333335" y="683.8333333333334" type="curve" smooth="yes"/>
      <point x="246.03333333333333" y="683.8333333333334"/>
      <point x="262.93333333333334" y="617.8333333333334"/>
      <point x="262.93333333333334" y="503.0" type="curve" smooth="yes"/>
      <point x="262.93333333333334" y="386.1666666666667"/>
      <point x="246.03333333333333" y="319.1666666666667"/>
    </contour>
    <contour>
      <point x="634.5666666666667" y="-10.0" type="curve" smooth="yes"/>
      <point x="737.2333333333333" y="-10.0"/>
      <point x="787.5666666666667" y="79.0"/>
      <point x="787.5666666666667" y="213.0" type="curve" smooth="yes"/>
      <point x="787.5666666666667" y="347.0"/>
      <point x="737.2333333333333" y="434.0"/>
      <point x="635.5666666666667" y="434.0" type="curve" smooth="yes"/>
      <point x="527.6333333333333" y="434.0"/>
      <point x="481.93333333333334" y="347.0"/>
      <point x="481.93333333333334" y="213.0" type="curve" smooth="yes"/>
      <point x="481.93333333333334" y="79.0"/>
      <point x="527.6333333333333" y="-10.0"/>
    </contour>
    <contour>
      <point x="634.5666666666667" y="29.166666666666668" type="curve" smooth="yes"/>
      <point x="582.7666666666667" y="29.166666666666668"/>
      <point x="564.2333333333333" y="96.16666666666667"/>
      <point x="564.2333333333333" y="213.0" type="curve" smooth="yes"/>
      <point x="564.2333333333333" y="327.8333333333333"/>
      <point x="582.7666666666667" y="393.8333333333333"/>
      <point x="635.2" y="393.8333333333333" type="curve" smooth="yes"/>
      <point x="687.3666666666667" y="393.8333333333333"/>
      <point x="704.2666666666667" y="327.8333333333333"/>
      <point x="704.2666666666667" y="213.0" type="curve" smooth="yes"/>
      <point x="704.2666666666667" y="96.16666666666667"/>
      <point x="687.3666666666667" y="29.166666666666668"/>
    </contour>
  </outline>
</glyph>
<glyph name="quotesingle" format="2">
  <advance width="209.0"/>
  <unicode hex="0027"/>
  <outline>
    <contour>
      <point x="82.6" y="480.46666666666664" type="line"/>
      <point x="126.4" y="480.46666666666664" type="line"/>
      <point x="155.3" y="714.0" type="line"/>
      <point x="53.333333333333336" y="714.0" type="line"/>
    </contour>
  </outline>
</glyph>
<glyph name="parenleft" format="2">
  <advance width="323.26666666666665"/>
  <unicode hex="0028"/>
  <outline>
    <contour>
      <point x="294.2" y="-127.63333333333334" type="curve"/>
      <point x="294.2" y="-82.36666666666666" type="line"/>
      <point x="168.56666666666666" y="0.6333333333333333"/>
      <point x="153.3" y="158.0"/>
      <point x="153.3" y="317.0" type="curve" smooth="yes"/>
      <point x="153.3" y="476.0"/>
      <point x="168.56666666666666" y="632.0"/>
      <point x="294.2" y="715.3666666666667" type="curve"/>
      <point x="294.2" y="759.2666666666667" type="line"/>
      <point x="121.2" y="687.3666666666667"/>
      <point x="52.6" y="558.1"/>
      <point x="52.6" y="317.0" type="curve" smooth="yes"/>
      <point x="52.6" y="74.9"/>
      <point x="121.2" y="-55.0"/>
    </contour>
  </outline>
</glyph>
<glyph name="parenright" format="2">
  <advance width="323.26666666666665"/>
  <unicode hex="0029"/>
  <outline>
    <contour>
      <point x="29.433333333333334" y="-127.63333333333334" type="line"/>
      <point x="202.43333333333334" y="-55.0"/>
      <point x="271.03333333333336" y="74.9"/>
      <point x="271.03333333333336" y="317.0" type="curve" smooth="yes"/>
      <point x="271.03333333333336" y="558.1"/>
      <point x="202.43333333333334" y="687.3666666666667"/>
      <point x="29.433333333333334" y="759.2666666666667" type="curve"/>
      <point x="29.433333333333334" y="715.3666666666667" type="line"/>
      <point x="155.06666666666666" y="632.0"/>
      <point x="170.7" y="476.0"/>
      <point x="170.7" y="317.0" type="curve" smooth="yes"/>
      <point x="170.7" y="158.0"/>
      <point x="155.06666666666666" y="0.6333333333333333"/>
      <point x="29.433333333333334" y="-82.36666666666666" type="curve"/>
    </contour>
  </outline>
</glyph>
<glyph name="asterisk" format="2">
  <advance width="454.53333333333336"/>
  <unicode hex="002A"/>
  <outline>
    <contour>
      <point x="185.3" y="376.53333333333336" type="line"/>
      <point x="266.43333333333334" y="376.53333333333336" type="line"/>
      <point x="240.26666666666668" y="537.4666666666667" type="line"/>
      <point x="380.6" y="444.46666666666664" type="line"/>
      <point x="413.4" y="518.5333333333333" type="line"/>
      <point x="261.26666666666665" y="568.2666666666667" type="line"/>
      <point x="413.4" y="618.0" type="line"/>
      <point x="380.6" y="693.4333333333333" type="line"/>
      <point x="240.26666666666668" y="599.0666666666667" type="line"/>
      <point x="266.43333333333334" y="760.0" type="line"/>
      <point x="185.3" y="760.0" type="line"/>
      <point x="209.46666666666667" y="598.0666666666667" type="line"/>
      <point x="70.13333333333334" y="695.4333333333333" type="line"/>
      <point x="37.333333333333336" y="619.0" type="line"/>
      <point x="188.83333333333334" y="568.2666666666667" type="line"/>
      <point x="37.333333333333336" y="517.5333333333333" type="line"/>
      <point x="70.13333333333334" y="442.46666666666664" type="line"/>
      <point x="208.46666666666667" y="537.8333333333334" type="line"/>
    </contour>
  </outline>
</glyph>
<glyph name="plus" format="2">
  <advance width="509.8666666666667"/>
  <unicode hex="002B"/>
  <outline>
    <contour>
      <point x="224.43333333333334" y="143.0" type="line"/>
      <point x="284.06666666666666" y="143.0" type="line"/>
      <point x="284.06666666666666" y="328.3666666666667" type="line"/>
      <point x="452.93333333333334" y="328.3666666666667" type="line"/>
      <point x="452.93333333333334" y="386.6333333333333" type="line"/>
      <point x="284.06666666666666" y="386.6333333333333" type="line"/>
      <point x="284.06666666666666" y="572.0" type="line"/>
      <point x="224.43333333333334" y="572.0" type="line"/>
      <point x="224.43333333333334" y="386.6333333333333" type="line"/>
      <point x="56.93333333333334" y="386.6333333333333" type="line"/>
      <point x="56.93333333333334" y="328.3666666666667" type="line"/>
      <point x="224.43333333333334" y="328.3666666666667" type="line"/>
    </contour>
  </outline>
</glyph>
<glyph name="comma" format="2">
  <advance width="234.23333333333335"/>
  <unicode hex="002C"/>
  <outline>
    <contour>
      <point x="30.733333333333334" y="-154.0" type="line"/>
      <point x="139.1" y="-120.1"/>
      <point x="180.06666666666666" y="-46.3"/>
      <point x="180.06666666666666" y="36.13333333333333" type="curve" smooth="yes"/>
      <point x="180.06666666666666" y="92.86666666666667"/>
      <point x="148.46666666666667" y="124.6"/>
      <point x="109.3" y="124.6" type="curve" smooth="yes"/>
      <point x="75.96666666666667" y="124.6"/>
      <point x="50.53333333333333" y="103.96666666666667"/>
      <point x="50.53333333333333" y="67.8" type="curve" smooth="yes"/>
      <point x="50.53333333333333" y="9.366666666666667"/>
      <point x="115.46666666666667" y="15.433333333333334"/>
      <point x="115.46666666666667" y="-23.466666666666665" type="curve" smooth="yes"/>
      <point x="115.46666666666667" y="-61.0"/>
      <point x="88.4" y="-93.2"/>
      <point x="30.733333333333334" y="-113.46666666666667" type="curve"/>
    </contour>
  </outline>
</glyph>
<glyph name="hyphen" format="2">
  <advance width="286.53333333333336"/>
  <unicode hex="002D"/>
  <outline>
    <contour>
      <point x="23.166666666666668" y="235.36666666666667" type="line"/>
      <point x="263.3666666666667" y="235.36666666666667" type="line"/>
      <point x="263.3666666666667" y="309.6333333333333" type="line"/>
      <point x="23.166666666666668" y="309.6333333333333" type="line"/>
    </contour>
  </outline>
</glyph>
<glyph name="period" format="2">
  <advance width="234.23333333333335"/>
  <unicode hex="002E"/>
  <outline>
    <contour>
      <point x="117.3" y="-7.0" type="curve" smooth="yes"/>
      <point x="148.73333333333335" y="-7.0"/>
      <point x="175.9" y="9.266666666666667"/>
      <point x="175.9" y="58.8" type="curve" smooth="yes"/>
      <point x="175.9" y="108.96666666666667"/>
      <point x="148.73333333333335" y="124.6"/>
      <point x="117.3" y="124.6" type="curve" smooth="yes"/>
      <point x="84.5" y="124.6"/>
      <point x="58.333333333333336" y="108.96666666666667"/>
      <point x="58.333333333333336" y="58.8" type="curve" smooth="yes"/>
      <point x="58.333333333333336" y="9.266666666666667"/>
      <point x="84.5" y="-7.0"/>
    </contour>
  </outline>
</glyph>
<glyph name="slash" format="2">
  <advance width="266.0"/>
  <unicode hex="002F"/>
  <outline>
    <contour>
      <point x="0.0" y="-121.0" type="line"/>
      <point x="55.7" y="-121.0" type="line"/>
      <point x="266.0" y="760.0" type="line"/>
      <point x="211.66666666666666" y="760.0" type="line"/>
    </contour>
  </outline>
</glyph>
<glyph name="one" format="2">
  <advance width="516.1"/>
  <unicode hex="0031"/>
  <outline>
    <contour>
      <point x="89.76666666666667" y="0.0" type="line"/>
      <point x="439.9666666666667" y="0.0" type="line"/>
      <point x="439.9666666666667" y="41.63333333333333" type="line"/>
      <point x="396.4666666666667" y="41.63333333333333" type="line" smooth="yes"/>
      <point x="353.3" y="41.63333333333333"/>
      <point x="319.9666666666667" y="51.0"/>
      <point x="319.9666666666667" y="113.63333333333334" type="curve" smooth="yes"/>
      <point x="319.9666666666667" y="718.0" type="line"/>
      <point x="259.26666666666665" y="718.0" type="line"/>
      <point x="194.76666666666668" y="666.3666666666667" type="line" smooth="yes"/>
      <point x="133.9" y="617.3666666666667"/>
      <point x="96.1" y="599.7333333333333"/>
      <point x="59.03333333333333" y="589.7333333333333" type="curve"/>
      <point x="59.03333333333333" y="558.1"/>
      <point x="78.56666666666666" y="537.2"/>
      <point x="105.73333333333333" y="537.2" type="curve" smooth="yes"/>
      <point x="142.43333333333334" y="537.2"/>
      <point x="178.23333333333335" y="579.2"/>
      <point x="224.83333333333334" y="639.3666666666667" type="curve"/>
      <point x="224.83333333333334" y="113.63333333333334" type="line" smooth="yes"/>
      <point x="224.83333333333334" y="49.9"/>
      <point x="191.5" y="41.63333333333333"/>
      <point x="148.33333333333334" y="41.63333333333333" type="curve" smooth="yes"/>
      <point x="89.76666666666667" y="41.63333333333333" type="line"/>
    </contour>
  </outline>
</glyph>
<glyph name="two" format="2">
  <advance width="516.1"/>
  <unicode hex="0032"/>
  <outline>
    <contour>
      <point x="45.86666666666667" y="0.0" type="line"/>
      <point x="449.4666666666667" y="0.0" type="line"/>
      <point x="453.73333333333335" y="171.9" type="line"/>
      <point x="412.8333333333333" y="171.9" type="line"/>
      <point x="408.8333333333333" y="153.53333333333333" type="line" smooth="yes"/>
      <point x="399.4666666666667" y="111.6"/>
      <point x="385.2" y="78.9"/>
      <point x="331.06666666666666" y="78.9" type="curve" smooth="yes"/>
      <point x="117.66666666666667" y="78.9" type="line"/>
      <point x="274.56666666666666" y="264.06666666666666" type="line" smooth="yes"/>
      <point x="370.4" y="376.76666666666665"/>
      <point x="431.3" y="455.2"/>
      <point x="431.3" y="555.9" type="curve" smooth="yes"/>
      <point x="431.3" y="656.9"/>
      <point x="359.06666666666666" y="724.0"/>
      <point x="240.03333333333333" y="724.0" type="curve" smooth="yes"/>
      <point x="118.36666666666667" y="724.0"/>
      <point x="55.766666666666666" y="666.6333333333333"/>
      <point x="55.766666666666666" y="591.8333333333334" type="curve" smooth="yes"/>
      <point x="55.766666666666666" y="541.2"/>
      <point x="93.4" y="526.8333333333334"/>
      <point x="137.73333333333335" y="526.8333333333334" type="curve"/>
      <point x="137.73333333333335" y="604.7333333333333"/>
      <point x="156.0" y="674.3666666666667"/>
      <point x="240.03333333333333" y="674.3666666666667" type="curve" smooth="yes"/>
      <point x="304.1666666666667" y="674.3666666666667"/>
      <point x="333.9666666666667" y="623.3666666666667"/>
      <point x="333.9666666666667" y="546.2666666666667" type="curve" smooth="yes"/>
      <point x="333.9666666666667" y="452.43333333333334"/>
      <point x="300.9" y="386.06666666666666"/>
      <point x="202.23333333333335" y="263.8" type="curve" smooth="yes"/>
      <point x="45.86666666666667" y="70.8" type="line"/>
    </contour>
  </outline>
</glyph>
<glyph name="three" format="2">
  <advance width="516.1"/>
  <unicode hex="0033"/>
  <outline>
    <contour>
      <point x="229.03333333333333" y="-10.0" type="curve" smooth="yes"/>
      <point x="339.6333333333333" y="-10.0"/>
      <point x="464.3333333333333" y="43.0"/>
      <point x="464.3333333333333" y="201.06666666666666" type="curve" smooth="yes"/>
      <point x="464.3333333333333" y="331.23333333333335"/>
      <point x="367.26666666666665" y="371.1666666666667"/>
      <point x="295.8333333333333" y="379.9" type="curve"/>
      <point x="379.4" y="401.53333333333336"/>
      <point x="441.1666666666667" y="472.8"/>
      <point x="441.1666666666667" y="562.8" type="curve" smooth="yes"/>
      <point x="441.1666666666667" y="665.6333333333333"/>
      <point x="363.4" y="724.0"/>
      <point x="248.03333333333333" y="724.0" type="curve" smooth="yes"/>
      <point x="126.36666666666667" y="724.0"/>
      <point x="63.4" y="665.9"/>
      <point x="63.4" y="590.3666666666667" type="curve" smooth="yes"/>
      <point x="63.4" y="541.9333333333333"/>
      <point x="99.56666666666666" y="527.5666666666667"/>
      <point x="143.9" y="527.5666666666667" type="curve"/>
      <point x="143.9" y="606.5666666666667"/>
      <point x="164.36666666666667" y="674.3666666666667"/>
      <point x="245.46666666666667" y="674.3666666666667" type="curve" smooth="yes"/>
      <point x="314.03333333333336" y="674.3666666666667"/>
      <point x="342.93333333333334" y="628.3666666666667"/>
      <point x="342.93333333333334" y="550.0" type="curve" smooth="yes"/>
      <point x="342.93333333333334" y="454.6333333333333"/>
      <point x="284.93333333333334" y="395.0"/>
      <point x="203.53333333333333" y="395.0" type="curve"/>
      <point x="168.96666666666667" y="395.0" type="line"/>
      <point x="168.96666666666667" y="345.46666666666664" type="line"/>
      <point x="203.16666666666666" y="345.46666666666664" type="line" smooth="yes"/>
      <point x="306.3666666666667" y="345.46666666666664"/>
      <point x="365.4666666666667" y="289.73333333333335"/>
      <point x="365.4666666666667" y="202.06666666666666" type="curve" smooth="yes"/>
      <point x="365.4666666666667" y="85.0"/>
      <point x="301.7" y="43.266666666666666"/>
      <point x="229.3" y="43.266666666666666" type="curve" smooth="yes"/>
      <point x="155.26666666666668" y="43.266666666666666"/>
      <point x="112.2" y="95.36666666666666"/>
      <point x="112.2" y="165.0" type="curve"/>
      <point x="76.4" y="165.0"/>
      <point x="52.13333333333333" y="141.0"/>
      <point x="52.13333333333333" y="101.36666666666666" type="curve" smooth="yes"/>
      <point x="52.13333333333333" y="41.63333333333333"/>
      <point x="105.83333333333333" y="-10.0"/>
    </contour>
  </outline>
</glyph>
<glyph name="seven" format="2">
  <advance width="516.1"/>
  <unicode hex="0037"/>
  <outline>
    <contour>
      <point x="169.83333333333334" y="0.0" type="line"/>
      <point x="240.06666666666666" y="0.0" type="line"/>
      <point x="471.4" y="684.7333333333333" type="line"/>
      <point x="471.4" y="713.0" type="line"/>
      <point x="57.4" y="713.0" type="line"/>
      <point x="52.4" y="533.1" type="line"/>
      <point x="94.4" y="533.1" type="line"/>
      <point x="98.4" y="582.0" type="line" smooth="yes"/>
      <point x="101.4" y="616.8333333333334"/>
      <point x="117.83333333333333" y="634.1"/>
      <point x="151.26666666666668" y="634.1" type="curve" smooth="yes"/>
      <point x="394.4666666666667" y="634.1" type="line"/>
    </contour>
  </outline>
</glyph>
<glyph name="nine" format="2">
  <advance width="516.1"/>
  <unicode hex="0039"/>
  <outline>
    <contour>
      <point x="209.76666666666668" y="-11.0" type="curve"/>
      <point x="389.4666666666667" y="-11.0"/>
      <point x="461.3333333333333" y="168.83333333333334"/>
      <point x="461.3333333333333" y="388.0" type="curve"/>
      <point x="461.3333333333333" y="624.1"/>
      <point x="368.8333333333333" y="724.0"/>
      <point x="243.73333333333335" y="724.0" type="curve" smooth="yes"/>
      <point x="118.9" y="724.0"/>
      <point x="45.86666666666667" y="622.7333333333333"/>
      <point x="45.86666666666667" y="480.2" type="curve" smooth="yes"/>
      <point x="45.86666666666667" y="346.3"/>
      <point x="121.0" y="277.2"/>
      <point x="227.83333333333334" y="277.2" type="curve" smooth="yes"/>
      <point x="292.3333333333333" y="277.2"/>
      <point x="338.5" y="311.3"/>
      <point x="363.8333333333333" y="344.46666666666664" type="curve"/>
      <point x="357.56666666666666" y="141.63333333333333"/>
      <point x="312.9666666666667" y="43.63333333333333"/>
      <point x="212.96666666666667" y="43.63333333333333" type="curve" smooth="yes"/>
      <point x="152.16666666666666" y="43.63333333333333"/>
      <point x="120.83333333333333" y="80.63333333333334"/>
      <point x="104.3" y="122.26666666666667" type="curve"/>
      <point x="87.46666666666667" y="116.53333333333333"/>
      <point x="74.3" y="98.16666666666667"/>
      <point x="74.3" y="73.16666666666667" type="curve" smooth="yes"/>
      <point x="74.3" y="31.9"/>
      <point x="106.3" y="-11.0"/>
    </contour>
    <contour>
      <point x="249.83333333333334" y="332.53333333333336" type="curve" smooth="yes"/>
      <point x="178.33333333333334" y="333.6333333333333"/>
      <point x="143.36666666666667" y="380.2"/>
      <point x="143.36666666666667" y="488.0" type="curve" smooth="yes"/>
      <point x="143.36666666666667" y="605.7333333333333"/>
      <point x="179.96666666666667" y="670.8333333333334"/>
      <point x="245.2" y="670.8333333333334" type="curve" smooth="yes"/>
      <point x="316.7" y="670.8333333333334"/>
      <point x="362.2" y="593.0"/>
      <point x="365.2" y="409.1333333333333" type="curve"/>
      <point x="347.93333333333334" y="372.0"/>
      <point x="310.8" y="333.6333333333333"/>
    </contour>
  </outline>
</glyph>
<glyph name="colon" format="2">
  <advance width="261.8"/>
  <unicode hex="003A"/>
  <outline>
    <contour>
      <point x="131.53333333333333" y="406.46666666666664" type="curve" smooth="yes"/>
      <point x="162.96666666666667" y="406.46666666666664"/>
      <point x="190.13333333333333" y="422.3666666666667"/>
      <point x="190.13333333333333" y="471.9" type="curve" smooth="yes"/>
      <point x="190.13333333333333" y="522.0666666666667"/>
      <point x="162.96666666666667" y="537.3333333333334"/>
      <point x="131.53333333333333" y="537.3333333333334" type="curve" smooth="yes"/>
      <point x="98.73333333333333" y="537.3333333333334"/>
      <point x="72.93333333333334" y="522.0666666666667"/>
      <point x="72.93333333333334" y="471.9" type="curve" smooth="yes"/>
      <point x="72.93333333333334" y="422.3666666666667"/>
      <point x="98.73333333333333" y="406.46666666666664"/>
    </contour>
    <contour>
      <point x="131.53333333333333" y="-7.0" type="curve" smooth="yes"/>
      <point x="162.96666666666667" y="-7.0"/>
      <point x="190.13333333333333" y="9.266666666666667"/>
      <point x="190.13333333333333" y="58.8" type="curve" smooth="yes"/>
      <point x="190.13333333333333" y="108.96666666666667"/>
      <point x="162.96666666666667" y="124.6"/>
      <point x="131.53333333333333" y="124.6" type="curve" smooth="yes"/>
      <point x="98.73333333333333" y="124.6"/>
      <point x="72.93333333333334" y="108.96666666666667"/>
      <point x="72.93333333333334" y="58.8" type="curve" smooth="yes"/>
      <point x="72.93333333333334" y="9.266666666666667"/>
      <point x="98.73333333333333" y="-7.0"/>
    </contour>
  </outline>
</glyph>
<glyph name="semicolon" format="2">
  <advance width="261.8"/>
  <unicode hex="003B"/>
  <outline>
    <contour>
      <point x="44.7" y="-154.0" type="line"/>
      <point x="153.43333333333334" y="-120.1"/>
      <point x="194.4" y="-46.3"/>
      <point x="194.4" y="36.13333333333333" type="curve" smooth="yes"/>
      <point x="194.4" y="92.86666666666667"/>
      <point x="162.8" y="124.6"/>
      <point x="123.26666666666667" y="124.6" type="curve" smooth="yes"/>
      <point x="90.3" y="124.6"/>
      <point x="64.86666666666667" y="103.96666666666667"/>
      <point x="64.86666666666667" y="67.8" type="curve" smooth="yes"/>
      <point x="64.86666666666667" y="9.366666666666667"/>
      <point x="130.16666666666666" y="15.433333333333334"/>
      <point x="130.16666666666666" y="-23.466666666666665" type="curve" smooth="yes"/>
      <point x="130.16666666666666" y="-61.36666666666667"/>
      <point x="103.1" y="-93.2"/>
      <point x="44.7" y="-113.46666666666667" type="curve"/>
    </contour>
    <contour>
      <point x="131.53333333333333" y="406.46666666666664" type="curve" smooth="yes"/>
      <point x="163.33333333333334" y="406.46666666666664"/>
      <point x="190.13333333333333" y="422.3666666666667"/>
      <point x="190.13333333333333" y="471.9" type="curve" smooth="yes"/>
      <point x="190.13333333333333" y="522.0666666666667"/>
      <point x="163.33333333333334" y="537.3333333333334"/>
      <point x="131.53333333333333" y="537.3333333333334" type="curve" smooth="yes"/>
      <point x="98.73333333333333" y="537.3333333333334"/>
      <point x="72.93333333333334" y="522.0666666666667"/>
      <point x="72.93333333333334" y="471.9" type="curve" smooth="yes"/>
      <point x="72.93333333333334" y="422.3666666666667"/>
      <point x="98.73333333333333" y="406.46666666666664"/>
    </contour>
  </outline>
</glyph>
<glyph name="less" format="2">
  <advance width="509.8666666666667"/>
  <unicode hex="003C"/>
  <outline>
    <contour>
      <point x="452.93333333333334" y="110.36666666666666" type="line"/>
      <point x="452.93333333333334" y="177.0" type="line"/>
      <point x="143.7" y="357.0" type="line"/>
      <point x="452.93333333333334" y="539.3666666666667" type="line"/>
      <point x="452.93333333333334" y="605.6333333333333" type="line"/>
      <point x="56.93333333333334" y="375.0" type="line"/>
      <point x="56.93333333333334" y="340.0" type="line"/>
    </contour>
  </outline>
</glyph>
<glyph name="equal" format="2">
  <advance width="509.8666666666667"/>
  <unicode hex="003D"/>
  <outline>
    <contour>
      <point x="56.93333333333334" y="424.9" type="line"/>
      <point x="452.93333333333334" y="424.9" type="line"/>
      <point x="452.93333333333334" y="483.53333333333336" type="line"/>
      <point x="56.93333333333334" y="483.53333333333336" type="line"/>
    </contour>
    <contour>
      <point x="56.93333333333334" y="230.46666666666667" type="line"/>
      <point x="452.93333333333334" y="230.46666666666667" type="line"/>
      <point x="452.93333333333334" y="289.1" type="line"/>
      <point x="56.93333333333334" y="289.1" type="line"/>
    </contour>
  </outline>
</glyph>
<glyph name="greater" format="2">
  <advance width="509.8666666666667"/>
  <unicode hex="003E"/>
  <outline>
    <contour>
      <point x="56.93333333333334" y="110.36666666666666" type="line"/>
      <point x="452.93333333333334" y="340.0" type="line"/>
      <point x="452.93333333333334" y="375.0" type="line"/>
      <point x="56.93333333333334" y="605.6333333333333" type="line"/>
      <point x="56.93333333333334" y="539.3666666666667" type="line"/>
      <point x="365.8" y="357.0" type="line"/>
      <point x="56.93333333333334" y="177.0" type="line"/>
    </contour>
  </outline>
</glyph>
<glyph name="question" format="2">
  <advance width="467.73333333333335"/>
  <unicode hex="003F"/>
  <outline>
    <contour>
      <point x="184.46666666666667" y="203.93333333333334" type="line"/>
      <point x="235.93333333333334" y="203.93333333333334" type="line"/>
      <point x="241.06666666666666" y="317.3" type="line"/>
      <point x="356.26666666666665" y="367.93333333333334"/>
      <point x="418.2" y="434.1"/>
      <point x="418.2" y="544.4666666666667" type="curve" smooth="yes"/>
      <point x="418.2" y="658.1"/>
      <point x="334.73333333333335" y="724.0"/>
      <point x="216.06666666666666" y="724.0" type="curve" smooth="yes"/>
      <point x="96.96666666666667" y="724.0"/>
      <point x="39.7" y="675.2666666666667"/>
      <point x="39.7" y="612.0" type="curve" smooth="yes"/>
      <point x="39.7" y="569.0"/>
      <point x="72.86666666666667" y="549.2"/>
      <point x="119.76666666666667" y="549.2" type="curve"/>
      <point x="119.76666666666667" y="620.0333333333333"/>
      <point x="145.83333333333334" y="675.3666666666667"/>
      <point x="220.76666666666668" y="675.3666666666667" type="curve" smooth="yes"/>
      <point x="290.06666666666666" y="675.3666666666667"/>
      <point x="320.6" y="625.7"/>
      <point x="320.6" y="555.6" type="curve" smooth="yes"/>
      <point x="320.6" y="473.03333333333336"/>
      <point x="286.53333333333336" y="397.8"/>
      <point x="179.7" y="350.43333333333334" type="curve"/>
    </contour>
    <contour>
      <point x="209.06666666666666" y="-7.0" type="curve" smooth="yes"/>
      <point x="241.23333333333335" y="-7.0"/>
      <point x="268.4" y="9.266666666666667"/>
      <point x="268.4" y="58.8" type="curve" smooth="yes"/>
      <point x="268.4" y="108.96666666666667"/>
      <point x="241.23333333333335" y="124.6"/>
      <point x="209.06666666666666" y="124.6" type="curve" smooth="yes"/>
      <point x="176.63333333333333" y="124.6"/>
      <point x="150.83333333333334" y="108.96666666666667"/>
      <point x="150.83333333333334" y="58.8" type="curve" smooth="yes"/>
      <point x="150.83333333333334" y="9.266666666666667"/>
      <point x="176.63333333333333" y="-7.0"/>
    </contour>
  </outline>
</glyph>
<glyph name="bracketleft" format="2">
  <advance width="336.53333333333336"/>
  <unicode hex="005B"/>
  <outline>
    <contour>
      <point x="92.3" y="-128.0" type="line"/>
      <point x="302.4666666666667" y="-128.0" type="line"/>
      <point x="302.4666666666667" y="-86.36666666666666" type="line"/>
      <point x="262.76666666666665" y="-86.36666666666666" type="line" smooth="yes"/>
      <point x="221.43333333333334" y="-86.36666666666666"/>
      <point x="187.0" y="-77.36666666666666"/>
      <point x="187.0" y="-14.366666666666667" type="curve" smooth="yes"/>
      <point x="187.0" y="646.3666666666667" type="line" smooth="yes"/>
      <point x="187.0" y="709.3666666666667"/>
      <point x="221.43333333333334" y="718.3666666666667"/>
      <point x="262.76666666666665" y="718.3666666666667" type="curve" smooth="yes"/>
      <point x="302.4666666666667" y="718.3666666666667" type="line"/>
      <point x="302.4666666666667" y="760.0" type="line"/>
      <point x="92.3" y="760.0" type="line"/>
    </contour>
  </outline>
</glyph>
<glyph name="backslash" format="2">
  <advance width="266.0"/>
  <unicode hex="005C"/>
  <outline>
    <contour>
      <point x="210.66666666666666" y="-121.0" type="line"/>
      <point x="266.0" y="-121.0" type="line"/>
      <point x="54.7" y="760.0" type="line"/>
      <point x="0.0" y="760.0" type="line"/>
    </contour>
  </outline>
</glyph>
<glyph name="bracketright" format="2">
  <advance width="336.53333333333336"/>
  <unicode hex="005D"/>
  <outline>
    <contour>
      <point x="34.43333333333334" y="-128.0" type="line"/>
      <point x="244.23333333333335" y="-128.0" type="line"/>
      <point x="244.23333333333335" y="760.0" type="line"/>
      <point x="34.43333333333334" y="760.0" type="line"/>
      <point x="34.43333333333334" y="718.3666666666667" type="line"/>
      <point x="73.76666666666667" y="718.3666666666667" type="line" smooth="yes"/>
      <point x="115.46666666666667" y="718.3666666666667"/>
      <point x="149.53333333333333" y="709.3666666666667"/>
      <point x="149.53333333333333" y="646.3666666666667" type="curve" smooth="yes"/>
      <point x="149.53333333333333" y="-14.366666666666667" type="line" smooth="yes"/>
      <point x="149.53333333333333" y="-77.36666666666666"/>
      <point x="115.46666666666667" y="-86.36666666666666"/>
      <point x="73.76666666666667" y="-86.36666666666666" type="curve" smooth="yes"/>
      <point x="34.43333333333334" y="-86.36666666666666" type="line"/>
    </contour>
  </outline>
</glyph>
<glyph name="asciicircum" format="2">
  <advance width="509.8666666666667"/>
  <unicode hex="005E"/>
  <outline>
    <contour>
      <point x="43.3" y="266.3666666666667" type="line"/>
      <point x="105.9" y="266.3666666666667" type="line"/>
      <point x="253.43333333333334" y="622.7333333333333" type="line"/>
      <point x="402.6" y="266.3666666666667" type="line"/>
      <point x="465.56666666666666" y="266.3666666666667" type="line"/>
      <point x="270.3333333333333" y="714.0" type="line"/>
      <point x="237.53333333333333" y="714.0" type="line"/>
    </contour>
  </outline>
</glyph>
<glyph name="underscore" format="2">
  <advance width="423.43333333333334"/>
  <unicode hex="005F"/>
  <outline>
    <contour>
      <point x="-4.633333333333334" y="-142.0" type="line"/>
      <point x="428.06666666666666" y="-142.0" type="line"/>
      <point x="428.06666666666666" y="-83.0" type="line"/>
      <point x="-4.633333333333334" y="-83.0" type="line"/>
    </contour>
  </outline>
</glyph>
<glyph name="braceleft" format="2">
  <advance width="396.1"/>
  <unicode hex="007B"/>
  <outline>
    <contour>
      <point x="288.53333333333336" y="-128.0" type="curve" smooth="yes"/>
      <point x="351.6" y="-128.0" type="line"/>
      <point x="351.6" y="-85.36666666666666" type="line"/>
      <point x="323.43333333333334" y="-85.36666666666666" type="line" smooth="yes"/>
      <point x="269.2" y="-85.36666666666666"/>
      <point x="248.4" y="-48.36666666666667"/>
      <point x="248.4" y="19.633333333333333" type="curve" smooth="yes"/>
      <point x="248.4" y="192.63333333333333" type="line" smooth="yes"/>
      <point x="248.4" y="259.0"/>
      <point x="215.96666666666667" y="304.3666666666667"/>
      <point x="146.2" y="317.0" type="curve"/>
      <point x="146.2" y="318.0" type="line"/>
      <point x="214.7" y="329.6333333333333"/>
      <point x="248.4" y="375.6333333333333"/>
      <point x="248.4" y="441.0" type="curve" smooth="yes"/>
      <point x="248.4" y="612.0" type="line" smooth="yes"/>
      <point x="248.4" y="681.3666666666667"/>
      <point x="269.2" y="717.3666666666667"/>
      <point x="323.43333333333334" y="717.3666666666667" type="curve" smooth="yes"/>
      <point x="351.6" y="717.3666666666667" type="line"/>
      <point x="351.6" y="760.0" type="line"/>
      <point x="288.53333333333336" y="760.0" type="line" smooth="yes"/>
      <point x="200.4" y="760.0"/>
      <point x="153.33333333333334" y="708.0"/>
      <point x="153.33333333333334" y="617.0" type="curve" smooth="yes"/>
      <point x="153.33333333333334" y="443.0" type="line" smooth="yes"/>
      <point x="153.33333333333334" y="362.0"/>
      <point x="105.73333333333333" y="339.6333333333333"/>
      <point x="44.5" y="337.6333333333333" type="curve"/>
      <point x="44.5" y="296.3666666666667" type="line"/>
      <point x="105.73333333333333" y="293.3666666666667"/>
      <point x="153.33333333333334" y="272.0"/>
      <point x="153.33333333333334" y="189.63333333333333" type="curve" smooth="yes"/>
      <point x="153.33333333333334" y="16.0" type="line" smooth="yes"/>
      <point x="153.33333333333334" y="-72.36666666666666"/>
      <point x="200.4" y="-128.0"/>
    </contour>
  </outline>
</glyph>
<glyph name="braceright" format="2">
  <advance width="396.1"/>
  <unicode hex="007D"/>
  <outline>
    <contour>
      <point x="44.5" y="-128.0" type="line"/>
      <point x="107.93333333333334" y="-128.0" type="line" smooth="yes"/>
      <point x="196.06666666666666" y="-128.0"/>
      <point x="242.76666666666668" y="-72.36666666666666"/>
      <point x="242.76666666666668" y="16.0" type="curve" smooth="yes"/>
      <point x="242.76666666666668" y="189.63333333333333" type="line" smooth="yes"/>
      <point x="242.76666666666668" y="272.0"/>
      <point x="291.1" y="293.3666666666667"/>
      <point x="351.6" y="296.3666666666667" type="curve"/>
      <point x="351.6" y="337.6333333333333" type="line"/>
      <point x="291.1" y="339.6333333333333"/>
      <point x="242.76666666666668" y="362.0"/>
      <point x="242.76666666666668" y="443.0" type="curve" smooth="yes"/>
      <point x="242.76666666666668" y="617.0" type="line" smooth="yes"/>
      <point x="242.76666666666668" y="708.0"/>
      <point x="196.06666666666666" y="760.0"/>
      <point x="107.93333333333334" y="760.0" type="curve" smooth="yes"/>
      <point x="44.5" y="760.0" type="line"/>
      <point x="44.5" y="717.3666666666667" type="line"/>
      <point x="73.03333333333333" y="717.3666666666667" type="line" smooth="yes"/>
      <point x="127.63333333333334" y="717.3666666666667"/>
      <point x="147.7" y="681.3666666666667"/>
      <point x="147.7" y="612.0" type="curve" smooth="yes"/>
      <point x="147.7" y="441.0" type="line" smooth="yes"/>
      <point x="147.7" y="375.6333333333333"/>
      <point x="181.76666666666668" y="329.6333333333333"/>
      <point x="250.63333333333333" y="318.0" type="curve"/>
      <point x="250.63333333333333" y="317.0" type="line"/>
      <point x="179.76666666666668" y="304.3666666666667"/>
      <point x="147.7" y="259.0"/>
      <point x="147.7" y="192.63333333333333" type="curve" smooth="yes"/>
      <point x="147.7" y="19.633333333333333" type="line" smooth="yes"/>
      <point x="147.7" y="-48.36666666666667"/>
      <point x="127.63333333333334" y="-85.36666666666666"/>
      <point x="73.03333333333333" y="-85.36666666666666" type="curve" smooth="yes"/>
      <point x="44.5" y="-85.36666666666666" type="line"/>
    </contour>
  </outline>
</glyph>
<glyph name="asciitilde" format="2">
  <advance width="509.8666666666667"/>
  <unicode hex="007E"/>
  <outline>
    <contour>
      <point x="45.2" y="269.3666666666667" type="curve"/>
      <point x="102.0" y="269.3666666666667" type="line"/>
      <point x="109.0" y="348.46666666666664"/>
      <point x="124.53333333333333" y="386.46666666666664"/>
      <point x="160.6" y="386.46666666666664" type="curve" smooth="yes"/>
      <point x="187.93333333333334" y="386.46666666666664"/>
      <point x="208.63333333333333" y="364.93333333333334"/>
      <point x="238.9" y="333.1" type="curve" smooth="yes"/>
      <point x="279.56666666666666" y="289.4"/>
      <point x="310.8" y="269.3666666666667"/>
      <point x="351.56666666666666" y="269.3666666666667" type="curve" smooth="yes"/>
      <point x="437.1333333333333" y="269.3666666666667"/>
      <point x="457.8666666666667" y="370.23333333333335"/>
      <point x="465.1333333333333" y="444.0" type="curve"/>
      <point x="407.3333333333333" y="444.0" type="line"/>
      <point x="399.43333333333334" y="367.43333333333334"/>
      <point x="385.53333333333336" y="326.9"/>
      <point x="351.1" y="326.9" type="curve" smooth="yes"/>
      <point x="325.3" y="326.9"/>
      <point x="303.7" y="349.43333333333334"/>
      <point x="275.3333333333333" y="378.0" type="curve" smooth="yes"/>
      <point x="232.36666666666667" y="420.26666666666665"/>
      <point x="202.56666666666666" y="444.0"/>
      <point x="159.5" y="444.0" type="curve" smooth="yes"/>
      <point x="71.83333333333333" y="444.0"/>
      <point x="51.833333333333336" y="348.93333333333334"/>
    </contour>
  </outline>
</glyph>
<glyph name="twosuperior" format="2">
  <advance width="369.2"/>
  <unicode hex="00B2"/>
  <outline>
    <contour>
      <point x="37.233333333333334" y="387.0" type="line"/>
      <point x="319.9666666666667" y="387.0" type="line"/>
      <point x="322.6" y="510.1666666666667" type="line"/>
      <point x="293.0" y="510.1666666666667" type="line"/>
      <point x="289.0" y="489.1666666666667" type="line"/>
      <point x="285.0" y="466.8"/>
      <point x="277.1" y="448.1666666666667"/>
      <point x="248.66666666666666" y="448.1666666666667" type="curve"/>
      <point x="108.06666666666666" y="448.1666666666667" type="line"/>
      <point x="201.6" y="536.2333333333333" type="line"/>
      <point x="282.03333333333336" y="608.3333333333334"/>
      <point x="311.3333333333333" y="649.2333333333333"/>
      <point x="311.3333333333333" y="714.4333333333333" type="curve" smooth="yes"/>
      <point x="311.3333333333333" y="785.1666666666666"/>
      <point x="261.2" y="824.6333333333333"/>
      <point x="174.43333333333334" y="824.6333333333333" type="curve" smooth="yes"/>
      <point x="88.2" y="824.6333333333333"/>
      <point x="44.86666666666667" y="787.5333333333333"/>
      <point x="44.86666666666667" y="740.2666666666667" type="curve" smooth="yes"/>
      <point x="44.86666666666667" y="708.2"/>
      <point x="68.2" y="698.3666666666667"/>
      <point x="109.9" y="698.3666666666667" type="curve"/>
      <point x="109.9" y="749.5"/>
      <point x="126.9" y="786.8333333333334"/>
      <point x="172.23333333333335" y="786.8333333333334" type="curve" smooth="yes"/>
      <point x="212.66666666666666" y="786.8333333333334"/>
      <point x="229.4" y="755.2"/>
      <point x="229.4" y="709.3666666666667" type="curve" smooth="yes"/>
      <point x="229.4" y="651.6"/>
      <point x="207.1" y="600.4666666666667"/>
      <point x="153.23333333333335" y="546.7333333333333" type="curve" smooth="yes"/>
      <point x="37.233333333333334" y="431.6333333333333" type="line"/>
    </contour>
  </outline>
</glyph>
<glyph name="threesuperior" format="2">
  <advance width="369.2"/>
  <unicode hex="00B3"/>
  <outline>
    <contour>
      <point x="162.26666666666668" y="380.0" type="curve" smooth="yes"/>
      <point x="243.73333333333335" y="380.0"/>
      <point x="325.3333333333333" y="417.03333333333336"/>
      <point x="325.3333333333333" y="509.9" type="curve" smooth="yes"/>
      <point x="325.3333333333333" y="582.9"/>
      <point x="265.93333333333334" y="603.3666666666667"/>
      <point x="216.23333333333335" y="612.0" type="curve"/>
      <point x="216.23333333333335" y="616.2666666666667" type="line"/>
      <point x="266.4666666666667" y="631.9"/>
      <point x="309.8" y="665.9"/>
      <point x="309.8" y="724.2666666666667" type="curve" smooth="yes"/>
      <point x="309.8" y="786.2666666666667"/>
      <point x="257.76666666666665" y="823.6333333333333"/>
      <point x="172.8" y="823.6333333333333" type="curve" smooth="yes"/>
      <point x="86.2" y="823.6333333333333"/>
      <point x="41.6" y="785.4333333333333"/>
      <point x="41.6" y="739.2666666666667" type="curve" smooth="yes"/>
      <point x="41.6" y="706.1"/>
      <point x="66.3" y="697.0"/>
      <point x="106.8" y="697.0" type="curve"/>
      <point x="106.8" y="745.2"/>
      <point x="120.33333333333333" y="785.8333333333334"/>
      <point x="170.23333333333335" y="785.8333333333334" type="curve" smooth="yes"/>
      <point x="209.76666666666668" y="785.8333333333334"/>
      <point x="226.86666666666667" y="762.2"/>
      <point x="226.86666666666667" y="716.7333333333333" type="curve" smooth="yes"/>
      <point x="226.86666666666667" y="663.3666666666667"/>
      <point x="192.26666666666668" y="629.2666666666667"/>
      <point x="143.36666666666667" y="629.2666666666667" type="curve" smooth="yes"/>
      <point x="111.83333333333333" y="629.2666666666667" type="line"/>
      <point x="111.83333333333333" y="590.1" type="line"/>
      <point x="142.63333333333333" y="590.1" type="line" smooth="yes"/>
      <point x="210.86666666666667" y="590.1"/>
      <point x="241.66666666666666" y="559.7333333333333"/>
      <point x="241.66666666666666" y="510.9" type="curve" smooth="yes"/>
      <point x="241.66666666666666" y="447.43333333333334"/>
      <point x="208.76666666666668" y="422.43333333333334"/>
      <point x="158.9" y="422.43333333333334" type="curve" smooth="yes"/>
      <point x="102.36666666666667" y="422.43333333333334"/>
      <point x="79.76666666666667" y="466.43333333333334"/>
      <point x="79.76666666666667" y="509.9" type="curve"/>
      <point x="52.13333333333333" y="509.9"/>
      <point x="34.5" y="492.1"/>
      <point x="34.5" y="462.0" type="curve" smooth="yes"/>
      <point x="34.5" y="413.0"/>
      <point x="77.83333333333333" y="380.0"/>
    </contour>
  </outline>
</glyph>
<glyph name="multiply" format="2">
  <advance width="509.8666666666667"/>
  <unicode hex="00D7"/>
  <outline>
    <contour>
      <point x="103.46666666666667" y="150.36666666666667" type="line"/>
      <point x="255.53333333333333" y="315.26666666666665" type="line"/>
      <point x="407.6" y="150.36666666666667" type="line"/>
      <point x="449.9666666666667" y="189.8" type="line"/>
      <point x="295.3333333333333" y="358.0" type="line"/>
      <point x="449.9666666666667" y="525.8333333333334" type="line"/>
      <point x="407.6" y="565.9" type="line"/>
      <point x="255.53333333333333" y="401.1" type="line"/>
      <point x="103.83333333333333" y="565.6333333333333" type="line"/>
      <point x="61.1" y="526.2" type="line"/>
      <point x="216.1" y="358.6333333333333" type="line"/>
      <point x="61.1" y="190.06666666666666" type="line"/>
    </contour>
  </outline>
</glyph>
<glyph name="divide" format="2">
  <advance width="509.8666666666667"/>
  <unicode hex="00F7"/>
  <outline>
    <contour>
      <point x="56.93333333333334" y="328.3666666666667" type="line"/>
      <point x="452.93333333333334" y="328.3666666666667" type="line"/>
      <point x="452.93333333333334" y="386.6333333333333" type="line"/>
      <point x="56.93333333333334" y="386.6333333333333" type="line"/>
    </contour>
    <contour>
      <point x="255.43333333333334" y="113.36666666666666" type="curve" smooth="yes"/>
      <point x="281.9666666666667" y="113.36666666666666"/>
      <point x="303.5" y="127.36666666666666"/>
      <point x="303.5" y="168.0" type="curve" smooth="yes"/>
      <point x="303.5" y="209.63333333333333"/>
      <point x="281.9666666666667" y="222.63333333333333"/>
      <point x="255.43333333333334" y="222.63333333333333" type="curve" smooth="yes"/>
      <point x="227.9" y="222.63333333333333"/>
      <point x="207.0" y="209.63333333333333"/>
      <point x="207.0" y="168.0" type="curve" smooth="yes"/>
      <point x="207.0" y="127.36666666666666"/>
      <point x="227.9" y="113.36666666666666"/>
    </contour>
    <contour>
      <point x="255.43333333333334" y="492.3666666666667" type="curve" smooth="yes"/>
      <point x="281.9666666666667" y="492.3666666666667"/>
      <point x="303.5" y="506.3666666666667"/>
      <point x="303.5" y="547.0" type="curve" smooth="yes"/>
      <point x="303.5" y="588.6333333333333"/>
      <point x="281.9666666666667" y="601.6333333333333"/>
      <point x="255.43333333333334" y="601.6333333333333" type="curve" smooth="yes"/>
      <point x="227.9" y="601.6333333333333"/>
      <point x="207.0" y="588.6333333333333"/>
      <point x="207.0" y="547.0" type="curve" smooth="yes"/>
      <point x="207.0" y="506.3666666666667"/>
      <point x="227.9" y="492.3666666666667"/>
    </contour>
  </outline>
</glyph>
<glyph name="udatta-deva" format="2">
  <unicode hex="0951"/>
  <anchor x="0.0" y="554.0" name="_vedic"/>
  <outline>
    <contour>
      <point x="-26.266666666666666" y="913.8333333333334" type="line"/>
      <point x="26.266666666666666" y="913.8333333333334" type="line"/>
      <point x="26.266666666666666" y="1108.8333333333333" type="line"/>
      <point x="-26.266666666666666" y="1108.8333333333333" type="line"/>
    </contour>
  </outline>
</glyph>
<glyph name="anudatta-deva" format="2">
  <unicode hex="0952"/>
  <anchor x="0.0" y="0.0" name="_bottom"/>
  <outline>
    <contour>
      <point x="-208.6" y="-538.2" type="line"/>
      <point x="208.6" y="-538.2" type="line"/>
      <point x="208.6" y="-471.2" type="line"/>
      <point x="-208.6" y="-471.2" type="line"/>
    </contour>
  </outline>
</glyph>
<glyph name="danda-deva" format="2">
  <advance width="283.3666666666667"/>
  <unicode hex="0964"/>
  <outline>
    <contour>
      <point x="95.1" y="0.0" type="line"/>
      <point x="188.26666666666668" y="0.0" type="line"/>
      <point x="188.26666666666668" y="554.0" type="line"/>
      <point x="95.1" y="554.0" type="line"/>
    </contour>
  </outline>
</glyph>
<glyph name="dbldanda-deva" format="2">
  <advance width="508.6"/>
  <unicode hex="0965"/>
  <outline>
    <contour>
      <point x="320.3333333333333" y="0.0" type="line"/>
      <point x="413.5" y="0.0" type="line"/>
      <point x="413.5" y="554.0" type="line"/>
      <point x="320.3333333333333" y="554.0" type="line"/>
    </contour>
    <contour>
      <point x="95.1" y="0.0" type="line"/>
      <point x="188.26666666666668" y="0.0" type="line"/>
      <point x="188.26666666666668" y="554.0" type="line"/>
      <point x="95.1" y="554.0" type="line"/>
    </contour>
  </outline>
</glyph>
<glyph name="anusvara-tamil" format="2">
  <unicode hex="0B82"/>
  <note>
uni0B82
</note>
  <anchor x="0.0" y="554.0" name="_top"/>
  <outline>
    <contour>
      <point x="0.0" y="633.0" type="curve" smooth="yes"/>
      <point x="66.33333333333333" y="633.0"/>
      <point x="114.76666666666667" y="678.0666666666667"/>
      <point x="114.76666666666667" y="744.7666666666667" type="curve" smooth="yes"/>
      <point x="114.76666666666667" y="811.7333333333333"/>
      <point x="66.33333333333333" y="857.1666666666666"/>
      <point x="0.0" y="857.1666666666666" type="curve" smooth="yes"/>
      <point x="-66.33333333333333" y="857.1666666666666"/>
      <point x="-114.76666666666667" y="811.7333333333333"/>
      <point x="-114.76666666666667" y="744.7666666666667" type="curve" smooth="yes"/>
      <point x="-114.76666666666667" y="678.0666666666667"/>
      <point x="-66.33333333333333" y="633.0"/>
    </contour>
    <contour>
      <point x="0.0" y="687.0" type="curve" smooth="yes"/>
      <point x="-33.333333333333336" y="687.0"/>
      <point x="-56.4" y="710.4333333333333"/>
      <point x="-56.4" y="744.7666666666667" type="curve" smooth="yes"/>
      <point x="-56.4" y="779.7333333333333"/>
      <point x="-33.333333333333336" y="803.1666666666666"/>
      <point x="0.0" y="803.1666666666666" type="curve" smooth="yes"/>
      <point x="33.333333333333336" y="803.1666666666666"/>
      <point x="56.4" y="779.7333333333333"/>
      <point x="56.4" y="744.7666666666667" type="curve" smooth="yes"/>
      <point x="56.4" y="710.4333333333333"/>
      <point x="33.333333333333336" y="687.0"/>
    </contour>
  </outline>
</glyph>
<glyph name="visarga-tamil" format="2">
  <advance width="822.8"/>
  <unicode hex="0B83"/>
  <note>
uni0B83
</note>
  <outline>
    <contour>
      <point x="609.9333333333334" y="0.0" type="curve" smooth="yes"/>
      <point x="698.4333333333334" y="0.0"/>
      <point x="766.2666666666667" y="75.0"/>
      <point x="766.2666666666667" y="185.0" type="curve" smooth="yes"/>
      <point x="766.2666666666667" y="294.0"/>
      <point x="698.8" y="369.0"/>
      <point x="610.3" y="369.0" type="curve" smooth="yes"/>
      <point x="519.0" y="369.0"/>
      <point x="456.1666666666667" y="294.0"/>
      <point x="456.1666666666667" y="185.0" type="curve" smooth="yes"/>
      <point x="456.1666666666667" y="75.0"/>
      <point x="518.6333333333333" y="0.0"/>
    </contour>
    <contour>
      <point x="209.93333333333334" y="0.0" type="curve" smooth="yes"/>
      <point x="298.43333333333334" y="0.0"/>
      <point x="366.26666666666665" y="75.0"/>
      <point x="366.26666666666665" y="185.0" type="curve" smooth="yes"/>
      <point x="366.26666666666665" y="294.0"/>
      <point x="298.8" y="369.0"/>
      <point x="210.3" y="369.0" type="curve" smooth="yes"/>
      <point x="119.36666666666667" y="369.0"/>
      <point x="57.166666666666664" y="294.0"/>
      <point x="57.166666666666664" y="185.0" type="curve" smooth="yes"/>
      <point x="57.166666666666664" y="75.0"/>
      <point x="119.0" y="0.0"/>
    </contour>
    <contour>
      <point x="410.6666666666667" y="412.0" type="curve" smooth="yes"/>
      <point x="499.1666666666667" y="412.0"/>
      <point x="567.0" y="486.0"/>
      <point x="567.0" y="596.0" type="curve" smooth="yes"/>
      <point x="567.0" y="706.0"/>
      <point x="499.53333333333336" y="780.0"/>
      <point x="411.03333333333336" y="780.0" type="curve" smooth="yes"/>
      <point x="320.1" y="780.0"/>
      <point x="257.26666666666665" y="706.0"/>
      <point x="257.26666666666665" y="596.0" type="curve" smooth="yes"/>
      <point x="257.26666666666665" y="486.0"/>
      <point x="319.73333333333335" y="412.0"/>
    </contour>
    <contour>
      <point x="197.5" y="50.46666666666667" type="curve" smooth="yes"/>
      <point x="141.2" y="50.46666666666667"/>
      <point x="104.8" y="103.1"/>
      <point x="104.8" y="185.0" type="curve" smooth="yes"/>
      <point x="104.8" y="265.53333333333336"/>
      <point x="141.2" y="318.1666666666667"/>
      <point x="197.5" y="318.1666666666667" type="curve" smooth="yes"/>
      <point x="258.06666666666666" y="318.1666666666667"/>
      <point x="293.2" y="272.9"/>
      <point x="293.2" y="185.0" type="curve" smooth="yes"/>
      <point x="293.2" y="95.46666666666667"/>
      <point x="258.06666666666666" y="50.46666666666667"/>
    </contour>
    <contour>
      <point x="398.23333333333335" y="461.8333333333333" type="curve" smooth="yes"/>
      <point x="341.93333333333334" y="461.8333333333333"/>
      <point x="305.53333333333336" y="514.4666666666667"/>
      <point x="305.53333333333336" y="596.0" type="curve" smooth="yes"/>
      <point x="305.53333333333336" y="676.9"/>
      <point x="341.93333333333334" y="729.5333333333333"/>
      <point x="398.23333333333335" y="729.5333333333333" type="curve" smooth="yes"/>
      <point x="458.8" y="729.5333333333333"/>
      <point x="493.3" y="684.5333333333333"/>
      <point x="493.3" y="596.0" type="curve" smooth="yes"/>
      <point x="493.3" y="507.46666666666664"/>
      <point x="458.8" y="461.8333333333333"/>
    </contour>
    <contour>
      <point x="597.5" y="50.46666666666667" type="curve" smooth="yes"/>
      <point x="541.2" y="50.46666666666667"/>
      <point x="504.43333333333334" y="103.1"/>
      <point x="504.43333333333334" y="185.0" type="curve" smooth="yes"/>
      <point x="504.43333333333334" y="265.53333333333336"/>
      <point x="541.2" y="318.1666666666667"/>
      <point x="597.5" y="318.1666666666667" type="curve" smooth="yes"/>
      <point x="658.0666666666667" y="318.1666666666667"/>
      <point x="693.2" y="272.9"/>
      <point x="693.2" y="185.0" type="curve" smooth="yes"/>
      <point x="693.2" y="95.46666666666667"/>
      <point x="658.0666666666667" y="50.46666666666667"/>
    </contour>
  </outline>
</glyph>
<glyph name="a-tamil" format="2">
  <advance width="1194.9666666666667"/>
  <unicode hex="0B85"/>
  <note>
uni0B85
</note>
  <anchor x="576.8" y="0.0" name="bottom"/>
  <anchor x="412.1" y="-122.0" name="nukta"/>
  <anchor x="587.4333333333334" y="554.0" name="top"/>
  <anchor x="588.1666666666666" y="554.0" name="vedic"/>
  <outline>
    <contour>
      <point x="1012.5" y="-193.5" type="line"/>
      <point x="1105.6666666666667" y="-193.5" type="line"/>
      <point x="1105.6666666666667" y="554.0" type="line"/>
      <point x="1012.5" y="554.0" type="line"/>
      <point x="1012.5" y="171.0" type="line"/>
      <point x="117.73333333333333" y="171.0" type="line" smooth="yes"/>
      <point x="64.23333333333333" y="171.0"/>
      <point x="37.166666666666664" y="143.0"/>
      <point x="37.166666666666664" y="99.0" type="curve" smooth="yes"/>
      <point x="37.166666666666664" y="4.0"/>
      <point x="181.3" y="-122.0"/>
      <point x="412.1" y="-122.0" type="curve" smooth="yes"/>
      <point x="691.2333333333333" y="-122.0"/>
      <point x="872.8666666666667" y="17.0"/>
      <point x="872.8666666666667" y="250.0" type="curve" smooth="yes"/>
      <point x="872.8666666666667" y="442.0"/>
      <point x="744.2666666666667" y="559.0"/>
      <point x="580.8333333333334" y="559.0" type="curve" smooth="yes"/>
      <point x="464.26666666666665" y="559.0"/>
      <point x="374.3666666666667" y="496.0"/>
      <point x="374.3666666666667" y="385.0" type="curve" smooth="yes"/>
      <point x="374.3666666666667" y="307.0"/>
      <point x="435.03333333333336" y="247.0"/>
      <point x="519.6" y="247.0" type="curve" smooth="yes"/>
      <point x="597.5666666666667" y="247.0"/>
      <point x="655.5" y="296.0"/>
      <point x="655.5" y="377.0" type="curve" smooth="yes"/>
      <point x="655.5" y="452.0"/>
      <point x="593.2" y="513.0"/>
      <point x="534.2" y="519.0" type="curve"/>
      <point x="484.7" y="516.0" type="line"/>
      <point x="537.7333333333333" y="500.0"/>
      <point x="570.7333333333333" y="439.0"/>
      <point x="570.7333333333333" y="386.0" type="curve" smooth="yes"/>
      <point x="570.7333333333333" y="337.0"/>
      <point x="547.5666666666667" y="301.0"/>
      <point x="500.8" y="301.0" type="curve" smooth="yes"/>
      <point x="460.6666666666667" y="301.0"/>
      <point x="428.9666666666667" y="328.0"/>
      <point x="428.9666666666667" y="382.0" type="curve" smooth="yes"/>
      <point x="428.9666666666667" y="461.0"/>
      <point x="489.43333333333334" y="505.0"/>
      <point x="569.2" y="505.0" type="curve" smooth="yes"/>
      <point x="680.0666666666667" y="505.0"/>
      <point x="779.4333333333334" y="408.0"/>
      <point x="779.4333333333334" y="250.0" type="curve" smooth="yes"/>
      <point x="779.4333333333334" y="57.0"/>
      <point x="639.6" y="-68.0"/>
      <point x="409.9" y="-68.0" type="curve" smooth="yes"/>
      <point x="222.8" y="-68.0"/>
      <point x="94.7" y="29.0"/>
      <point x="94.7" y="91.0" type="curve" smooth="yes"/>
      <point x="94.7" y="107.0"/>
      <point x="101.33333333333333" y="117.0"/>
      <point x="125.4" y="117.0" type="curve" smooth="yes"/>
      <point x="1012.5" y="117.0" type="line"/>
    </contour>
  </outline>
</glyph>
<glyph name="aa-tamil" format="2">
  <advance width="1349.0333333333333"/>
  <unicode hex="0B86"/>
  <note>
uni0B86
</note>
  <anchor x="655.5" y="0.0" name="bottom"/>
  <anchor x="412.1" y="-122.0" name="nukta"/>
  <anchor x="666.7666666666667" y="554.0" name="top"/>
  <anchor x="666.5" y="554.0" name="vedic"/>
  <outline>
    <contour>
      <point x="941.9" y="-430.53333333333336" type="curve" smooth="yes"/>
      <point x="1130.7666666666667" y="-430.53333333333336"/>
      <point x="1322.5333333333333" y="-309.8333333333333"/>
      <point x="1322.5333333333333" y="-109.56666666666666" type="curve" smooth="yes"/>
      <point x="1322.5333333333333" y="-13.033333333333335"/>
      <point x="1281.2666666666667" y="45.0"/>
      <point x="1205.7" y="45.0" type="curve" smooth="yes"/>
      <point x="1126.3" y="45.0"/>
      <point x="1079.5333333333333" y="-20.0"/>
      <point x="1073.2666666666667" y="-108.16666666666667" type="curve"/>
      <point x="1098.2333333333333" y="-118.7" type="line"/>
      <point x="1097.8666666666668" y="-64.53333333333333"/>
      <point x="1132.7333333333333" y="-34.166666666666664"/>
      <point x="1168.3333333333333" y="-34.166666666666664" type="curve" smooth="yes"/>
      <point x="1209.8333333333333" y="-34.166666666666664"/>
      <point x="1232.1" y="-62.96666666666667"/>
      <point x="1232.1" y="-118.3" type="curve" smooth="yes"/>
      <point x="1231.7333333333333" y="-277.6"/>
      <point x="1069.4333333333334" y="-376.53333333333336"/>
      <point x="929.3" y="-376.53333333333336" type="curve" smooth="yes"/>
      <point x="848.2666666666667" y="-376.53333333333336"/>
      <point x="764.3333333333334" y="-349.9"/>
      <point x="764.3333333333334" y="-278.6" type="curve" smooth="yes"/>
      <point x="764.3333333333334" y="-232.33333333333334"/>
      <point x="798.5" y="-199.9"/>
      <point x="862.1666666666666" y="-190.06666666666666" type="curve"/>
      <point x="848.8" y="-137.06666666666666" type="line"/>
      <point x="756.8" y="-154.26666666666668"/>
      <point x="707.9666666666667" y="-204.7"/>
      <point x="707.9666666666667" y="-273.6" type="curve" smooth="yes"/>
      <point x="707.9666666666667" y="-380.8"/>
      <point x="817.5333333333333" y="-430.53333333333336"/>
    </contour>
    <component base="a-tamil"/>
  </outline>
</glyph>
<glyph name="i-tamil" format="2">
  <advance width="929.1333333333333"/>
  <unicode hex="0B87"/>
  <note>
uni0B87
</note>
  <anchor x="449.7" y="0.0" name="bottom"/>
  <anchor x="447.7" y="-263.1333333333333" name="nukta"/>
  <anchor x="458.26666666666665" y="823.8666666666667" name="top"/>
  <anchor x="455.7" y="554.0" name="vedic"/>
  <outline>
    <contour>
      <point x="217.3" y="-297.0" type="curve" smooth="yes"/>
      <point x="495.03333333333336" y="-297.0"/>
      <point x="703.7" y="-37.0"/>
      <point x="703.7" y="239.0" type="curve" smooth="yes"/>
      <point x="703.7" y="435.0"/>
      <point x="604.8333333333334" y="559.0"/>
      <point x="445.56666666666666" y="559.0" type="curve" smooth="yes"/>
      <point x="338.3" y="559.0"/>
      <point x="244.5" y="499.0"/>
      <point x="244.5" y="382.0" type="curve" smooth="yes"/>
      <point x="244.5" y="300.0"/>
      <point x="308.8666666666667" y="248.0"/>
      <point x="379.56666666666666" y="248.0" type="curve" smooth="yes"/>
      <point x="458.7" y="248.0"/>
      <point x="512.1" y="298.0"/>
      <point x="512.1" y="374.0" type="curve" smooth="yes"/>
      <point x="512.1" y="436.0"/>
      <point x="471.93333333333334" y="499.0"/>
      <point x="388.3" y="517.0" type="curve"/>
      <point x="334.8" y="512.0" type="line"/>
      <point x="390.8333333333333" y="497.0"/>
      <point x="428.3333333333333" y="440.0"/>
      <point x="428.3333333333333" y="384.0" type="curve" smooth="yes"/>
      <point x="428.3333333333333" y="336.0"/>
      <point x="406.8" y="301.26666666666665"/>
      <point x="362.4" y="301.26666666666665" type="curve" smooth="yes"/>
      <point x="322.8" y="301.26666666666665"/>
      <point x="299.1" y="334.0"/>
      <point x="299.1" y="380.0" type="curve" smooth="yes"/>
      <point x="299.1" y="460.0"/>
      <point x="357.9" y="505.0"/>
      <point x="431.6" y="505.0" type="curve" smooth="yes"/>
      <point x="553.5666666666667" y="505.0"/>
      <point x="610.2666666666667" y="403.0"/>
      <point x="610.2666666666667" y="262.0" type="curve" smooth="yes"/>
      <point x="610.2666666666667" y="0.0"/>
      <point x="481.6333333333333" y="-243.0"/>
      <point x="230.26666666666668" y="-243.0" type="curve" smooth="yes"/>
      <point x="158.33333333333334" y="-243.0"/>
      <point x="111.13333333333334" y="-211.0"/>
      <point x="111.13333333333334" y="-148.73333333333332" type="curve" smooth="yes"/>
      <point x="111.13333333333334" y="-18.266666666666666"/>
      <point x="288.8666666666667" y="57.0"/>
      <point x="434.4" y="57.0" type="curve" smooth="yes"/>
      <point x="581.1" y="57.0"/>
      <point x="771.7" y="-3.3"/>
      <point x="771.7" y="-140.1" type="curve" smooth="yes"/>
      <point x="771.7" y="-214.63333333333333"/>
      <point x="710.0666666666667" y="-243.0"/>
      <point x="630.0666666666667" y="-243.0" type="curve" smooth="yes"/>
      <point x="396.06666666666666" y="-243.0"/>
      <point x="130.93333333333334" y="77.76666666666667"/>
      <point x="130.93333333333334" y="381.03333333333336" type="curve" smooth="yes"/>
      <point x="130.93333333333334" y="638.0333333333333"/>
      <point x="285.3" y="734.2333333333333"/>
      <point x="457.9" y="734.2333333333333" type="curve" smooth="yes"/>
      <point x="696.9" y="734.2333333333333"/>
      <point x="812.6333333333333" y="571.2333333333333"/>
      <point x="812.6333333333333" y="330.93333333333334" type="curve" smooth="yes"/>
      <point x="812.6333333333333" y="86.0" type="line"/>
      <point x="869.5333333333333" y="86.0" type="line"/>
      <point x="869.5333333333333" y="330.93333333333334" type="line" smooth="yes"/>
      <point x="869.5333333333333" y="659.2333333333333"/>
      <point x="725.8" y="823.8666666666667"/>
      <point x="458.26666666666665" y="823.8666666666667" type="curve" smooth="yes"/>
      <point x="230.3" y="823.8666666666667"/>
      <point x="64.6" y="657.4"/>
      <point x="64.6" y="415.03333333333336" type="curve" smooth="yes"/>
      <point x="64.6" y="60.7"/>
      <point x="355.8333333333333" y="-297.0"/>
      <point x="657.4" y="-297.0" type="curve" smooth="yes"/>
      <point x="758.8333333333334" y="-297.0"/>
      <point x="838.0333333333333" y="-248.63333333333333"/>
      <point x="838.0333333333333" y="-154.1" type="curve" smooth="yes"/>
      <point x="838.0333333333333" y="24.1"/>
      <point x="616.8" y="110.0"/>
      <point x="434.4" y="110.0" type="curve" smooth="yes"/>
      <point x="248.9" y="110.0"/>
      <point x="46.43333333333334" y="22.266666666666666"/>
      <point x="46.43333333333334" y="-149.1" type="curve" smooth="yes"/>
      <point x="46.43333333333334" y="-243.63333333333333"/>
      <point x="117.56666666666666" y="-297.0"/>
    </contour>
  </outline>
</glyph>
<glyph name="ii-tamil" format="2">
  <advance width="704.5333333333333"/>
  <unicode hex="0B88"/>
  <note>
uni0B88
</note>
  <anchor x="367.8666666666667" y="0.0" name="bottom"/>
  <anchor x="368.23333333333335" y="0.0" name="nukta"/>
  <anchor x="369.8666666666667" y="554.0" name="top"/>
  <anchor x="370.23333333333335" y="554.0" name="vedic"/>
  <outline>
    <contour>
      <point x="89.56666666666666" y="0.0" type="line"/>
      <point x="148.36666666666667" y="0.0" type="line"/>
      <point x="148.36666666666667" y="500.0" type="line"/>
      <point x="389.9666666666667" y="500.0" type="line"/>
      <point x="389.9666666666667" y="0.0" type="line"/>
      <point x="483.1333333333333" y="0.0" type="line"/>
      <point x="483.1333333333333" y="500.0" type="line"/>
      <point x="657.2" y="500.0" type="line"/>
      <point x="657.2" y="554.0" type="line"/>
      <point x="89.56666666666666" y="554.0" type="line"/>
    </contour>
    <contour>
      <point x="268.8" y="212.1" type="curve" smooth="yes"/>
      <point x="298.43333333333334" y="212.1"/>
      <point x="321.7" y="236.1"/>
      <point x="321.7" y="264.3666666666667" type="curve" smooth="yes"/>
      <point x="321.7" y="292.0"/>
      <point x="298.43333333333334" y="315.6333333333333"/>
      <point x="268.8" y="315.6333333333333" type="curve" smooth="yes"/>
      <point x="238.8" y="315.6333333333333"/>
      <point x="215.53333333333333" y="292.0"/>
      <point x="215.53333333333333" y="264.3666666666667" type="curve" smooth="yes"/>
      <point x="215.53333333333333" y="236.1"/>
      <point x="238.8" y="212.1"/>
    </contour>
    <contour>
      <point x="603.5666666666667" y="212.1" type="curve" smooth="yes"/>
      <point x="633.8333333333334" y="212.1"/>
      <point x="656.4666666666667" y="236.1"/>
      <point x="656.4666666666667" y="264.3666666666667" type="curve" smooth="yes"/>
      <point x="656.4666666666667" y="292.0"/>
      <point x="633.8333333333334" y="315.6333333333333"/>
      <point x="603.5666666666667" y="315.6333333333333" type="curve" smooth="yes"/>
      <point x="573.5666666666667" y="315.6333333333333"/>
      <point x="550.9333333333334" y="292.0"/>
      <point x="550.9333333333334" y="264.3666666666667" type="curve" smooth="yes"/>
      <point x="550.9333333333334" y="236.1"/>
      <point x="573.5666666666667" y="212.1"/>
    </contour>
  </outline>
</glyph>
<glyph name="u-tamil" format="2">
  <advance width="924.6"/>
  <unicode hex="0B89"/>
  <note>
uni0B89
</note>
  <anchor x="493.93333333333334" y="0.0" name="bottom"/>
  <anchor x="494.3" y="0.0" name="nukta"/>
  <anchor x="496.6666666666667" y="554.0" name="top"/>
  <anchor x="496.93333333333334" y="554.0" name="vedic"/>
  <outline>
    <contour>
      <point x="145.56666666666666" y="0.0" type="curve" smooth="yes"/>
      <point x="905.7" y="0.0" type="line"/>
      <point x="905.7" y="54.0" type="line"/>
      <point x="141.96666666666667" y="54.0" type="line" smooth="yes"/>
      <point x="122.43333333333334" y="54.0"/>
      <point x="102.96666666666667" y="69.0"/>
      <point x="102.96666666666667" y="94.0" type="curve" smooth="yes"/>
      <point x="102.96666666666667" y="120.0"/>
      <point x="122.43333333333334" y="135.0"/>
      <point x="141.96666666666667" y="135.0" type="curve" smooth="yes"/>
      <point x="359.3333333333333" y="135.0" type="line" smooth="yes"/>
      <point x="492.9" y="135.0"/>
      <point x="598.8" y="200.0"/>
      <point x="598.8" y="336.0" type="curve" smooth="yes"/>
      <point x="598.8" y="481.0"/>
      <point x="485.6" y="559.0"/>
      <point x="340.6333333333333" y="559.0" type="curve" smooth="yes"/>
      <point x="217.73333333333335" y="559.0"/>
      <point x="127.63333333333334" y="493.9"/>
      <point x="127.63333333333334" y="383.9" type="curve" smooth="yes"/>
      <point x="127.63333333333334" y="305.53333333333336"/>
      <point x="185.73333333333335" y="247.0"/>
      <point x="269.3" y="247.0" type="curve" smooth="yes"/>
      <point x="346.1666666666667" y="247.0"/>
      <point x="404.8333333333333" y="294.53333333333336"/>
      <point x="404.8333333333333" y="375.9" type="curve" smooth="yes"/>
      <point x="404.8333333333333" y="450.53333333333336"/>
      <point x="344.3666666666667" y="512.2666666666667"/>
      <point x="286.1" y="519.0" type="curve"/>
      <point x="236.86666666666667" y="516.0" type="line"/>
      <point x="288.53333333333336" y="500.0"/>
      <point x="320.06666666666666" y="437.9"/>
      <point x="320.06666666666666" y="384.9" type="curve" smooth="yes"/>
      <point x="320.06666666666666" y="335.53333333333336"/>
      <point x="298.0" y="301.0"/>
      <point x="251.96666666666667" y="301.0" type="curve" smooth="yes"/>
      <point x="212.56666666666666" y="301.0"/>
      <point x="181.6" y="326.9"/>
      <point x="181.6" y="380.9" type="curve" smooth="yes"/>
      <point x="181.6" y="459.9"/>
      <point x="243.06666666666666" y="505.0"/>
      <point x="322.2" y="505.0" type="curve" smooth="yes"/>
      <point x="421.3666666666667" y="505.0"/>
      <point x="505.6333333333333" y="447.0"/>
      <point x="505.6333333333333" y="349.0" type="curve" smooth="yes"/>
      <point x="505.6333333333333" y="244.0"/>
      <point x="446.6" y="188.0"/>
      <point x="345.7" y="188.0" type="curve" smooth="yes"/>
      <point x="145.56666666666666" y="188.0" type="line" smooth="yes"/>
      <point x="87.43333333333334" y="188.0"/>
      <point x="47.166666666666664" y="154.0"/>
      <point x="47.166666666666664" y="94.0" type="curve" smooth="yes"/>
      <point x="47.166666666666664" y="35.0"/>
      <point x="87.43333333333334" y="0.0"/>
    </contour>
  </outline>
</glyph>
<glyph name="uu-tamil" format="2">
  <advance width="1565.7333333333333"/>
  <unicode hex="0B8A"/>
  <note>
uni0B8A
</note>
  <anchor x="813.6" y="0.0" name="bottom"/>
  <anchor x="814.2333333333333" y="0.0" name="nukta"/>
  <anchor x="817.2333333333333" y="554.0" name="top"/>
  <anchor x="816.6" y="554.0" name="vedic"/>
  <outline>
    <contour>
      <point x="143.36666666666667" y="0.0" type="curve" smooth="yes"/>
      <point x="1541.8333333333333" y="0.0" type="line"/>
      <point x="1541.8333333333333" y="54.0" type="line"/>
      <point x="139.76666666666668" y="54.0" type="line" smooth="yes"/>
      <point x="119.86666666666667" y="54.0"/>
      <point x="102.96666666666667" y="69.0"/>
      <point x="102.96666666666667" y="94.0" type="curve" smooth="yes"/>
      <point x="102.96666666666667" y="120.0"/>
      <point x="119.86666666666667" y="135.0"/>
      <point x="139.76666666666668" y="135.0" type="curve" smooth="yes"/>
      <point x="359.3333333333333" y="135.0" type="line" smooth="yes"/>
      <point x="492.9" y="135.0"/>
      <point x="598.8" y="200.0"/>
      <point x="598.8" y="336.0" type="curve" smooth="yes"/>
      <point x="598.8" y="481.0"/>
      <point x="485.6" y="559.0"/>
      <point x="340.6333333333333" y="559.0" type="curve" smooth="yes"/>
      <point x="217.73333333333335" y="559.0"/>
      <point x="127.63333333333334" y="493.9"/>
      <point x="127.63333333333334" y="383.9" type="curve" smooth="yes"/>
      <point x="127.63333333333334" y="305.53333333333336"/>
      <point x="185.73333333333335" y="247.0"/>
      <point x="269.3" y="247.0" type="curve" smooth="yes"/>
      <point x="346.1666666666667" y="247.0"/>
      <point x="404.8333333333333" y="294.53333333333336"/>
      <point x="404.8333333333333" y="375.9" type="curve" smooth="yes"/>
      <point x="404.8333333333333" y="450.53333333333336"/>
      <point x="344.3666666666667" y="512.2666666666667"/>
      <point x="286.1" y="519.0" type="curve"/>
      <point x="236.86666666666667" y="516.0" type="line"/>
      <point x="288.53333333333336" y="500.0"/>
      <point x="320.06666666666666" y="437.9"/>
      <point x="320.06666666666666" y="384.9" type="curve" smooth="yes"/>
      <point x="320.06666666666666" y="335.53333333333336"/>
      <point x="298.0" y="301.0"/>
      <point x="251.96666666666667" y="301.0" type="curve" smooth="yes"/>
      <point x="212.56666666666666" y="301.0"/>
      <point x="181.6" y="326.9"/>
      <point x="181.6" y="380.9" type="curve" smooth="yes"/>
      <point x="181.6" y="459.9"/>
      <point x="243.06666666666666" y="505.0"/>
      <point x="322.2" y="505.0" type="curve" smooth="yes"/>
      <point x="421.3666666666667" y="505.0"/>
      <point x="505.6333333333333" y="447.0"/>
      <point x="505.6333333333333" y="349.0" type="curve" smooth="yes"/>
      <point x="505.6333333333333" y="244.0"/>
      <point x="446.6" y="188.0"/>
      <point x="345.7" y="188.0" type="curve" smooth="yes"/>
      <point x="143.36666666666667" y="188.0" type="line" smooth="yes"/>
      <point x="85.23333333333333" y="188.0"/>
      <point x="47.166666666666664" y="154.0"/>
      <point x="47.166666666666664" y="94.0" type="curve" smooth="yes"/>
      <point x="47.166666666666664" y="35.0"/>
      <point x="85.23333333333333" y="0.0"/>
    </contour>
    <contour>
      <point x="857.2333333333333" y="103.0" type="curve" smooth="yes"/>
      <point x="952.3333333333334" y="103.0"/>
      <point x="1004.3" y="166.7"/>
      <point x="1004.3" y="242.0" type="curve" smooth="yes"/>
      <point x="1004.3" y="336.2"/>
      <point x="944.5333333333333" y="390.0"/>
      <point x="868.1333333333333" y="390.0" type="curve" smooth="yes"/>
      <point x="800.5333333333333" y="390.0"/>
      <point x="736.4333333333334" y="334.0"/>
      <point x="724.0" y="252.0" type="curve"/>
      <point x="738.0" y="209.0" type="line"/>
      <point x="749.4333333333334" y="272.0"/>
      <point x="794.9333333333334" y="327.0"/>
      <point x="846.2333333333333" y="327.0" type="curve" smooth="yes"/>
      <point x="887.0" y="327.0"/>
      <point x="916.8" y="299.3"/>
      <point x="916.8" y="245.0" type="curve" smooth="yes"/>
      <point x="916.8" y="196.33333333333334"/>
      <point x="892.1" y="156.0"/>
      <point x="841.8" y="156.0" type="curve" smooth="yes"/>
      <point x="781.9666666666667" y="156.0"/>
      <point x="737.8333333333334" y="204.0"/>
      <point x="737.8333333333334" y="319.0" type="curve" smooth="yes"/>
      <point x="737.8333333333334" y="424.6333333333333"/>
      <point x="810.2666666666667" y="505.0"/>
      <point x="910.4666666666667" y="505.0" type="curve" smooth="yes"/>
      <point x="1025.7" y="505.0"/>
      <point x="1096.4333333333334" y="418.0"/>
      <point x="1096.8" y="301.0" type="curve"/>
      <point x="1139.9" y="301.0" type="line"/>
      <point x="1139.5333333333333" y="458.0"/>
      <point x="1053.6333333333334" y="559.0"/>
      <point x="908.4666666666667" y="559.0" type="curve" smooth="yes"/>
      <point x="773.0" y="559.0"/>
      <point x="681.4" y="454.53333333333336"/>
      <point x="681.4" y="317.0" type="curve" smooth="yes"/>
      <point x="681.4" y="181.0"/>
      <point x="754.4" y="103.0"/>
    </contour>
    <contour>
      <point x="1096.8" y="107.0" type="line"/>
      <point x="1188.8666666666668" y="107.0" type="line"/>
      <point x="1188.8666666666668" y="502.0" type="line"/>
      <point x="1352.4333333333334" y="502.0" type="line"/>
      <point x="1352.4333333333334" y="107.0" type="line"/>
      <point x="1444.1333333333334" y="107.0" type="line"/>
      <point x="1444.1333333333334" y="502.0" type="line"/>
      <point x="1541.8333333333333" y="502.0" type="line"/>
      <point x="1541.8333333333333" y="554.0" type="line"/>
      <point x="1104.7333333333333" y="554.0" type="line"/>
      <point x="1104.7333333333333" y="379.0" type="line"/>
      <point x="1096.8" y="375.0" type="line"/>
    </contour>
  </outline>
</glyph>
<glyph name="e-tamil" format="2">
  <advance width="852.5666666666667"/>
  <unicode hex="0B8E"/>
  <note>
uni0B8E
</note>
  <anchor x="452.56666666666666" y="0.0" name="bottom"/>
  <anchor x="453.56666666666666" y="0.0" name="nukta"/>
  <anchor x="454.3" y="554.0" name="top"/>
  <anchor x="455.56666666666666" y="554.0" name="vedic"/>
  <outline>
    <contour>
      <point x="253.43333333333334" y="-5.0" type="curve" smooth="yes"/>
      <point x="355.1" y="-5.0"/>
      <point x="419.76666666666665" y="58.266666666666666"/>
      <point x="419.76666666666665" y="150.73333333333332" type="curve" smooth="yes"/>
      <point x="419.76666666666665" y="243.1"/>
      <point x="364.7" y="303.0"/>
      <point x="278.4" y="303.0" type="curve" smooth="yes"/>
      <point x="184.43333333333334" y="303.0"/>
      <point x="115.26666666666667" y="223.13333333333333"/>
      <point x="110.1" y="121.16666666666667" type="curve"/>
      <point x="139.36666666666667" y="94.53333333333333" type="line"/>
      <point x="143.16666666666666" y="178.86666666666667"/>
      <point x="186.3" y="236.0"/>
      <point x="245.43333333333334" y="236.0" type="curve" smooth="yes"/>
      <point x="304.73333333333335" y="236.0"/>
      <point x="329.7" y="190.0"/>
      <point x="329.7" y="146.0" type="curve" smooth="yes"/>
      <point x="329.7" y="91.0"/>
      <point x="298.03333333333336" y="49.0"/>
      <point x="237.16666666666666" y="49.0" type="curve" smooth="yes"/>
      <point x="168.3" y="49.0"/>
      <point x="109.66666666666667" y="115.36666666666666"/>
      <point x="109.66666666666667" y="249.36666666666667" type="curve" smooth="yes"/>
      <point x="109.66666666666667" y="414.3666666666667"/>
      <point x="220.3" y="500.0"/>
      <point x="377.3" y="500.0" type="curve" smooth="yes"/>
      <point x="583.8333333333334" y="500.0" type="line"/>
      <point x="583.8333333333334" y="0.0" type="line"/>
      <point x="677.0" y="0.0" type="line"/>
      <point x="677.0" y="500.0" type="line"/>
      <point x="832.1" y="500.0" type="line"/>
      <point x="832.1" y="554.0" type="line"/>
      <point x="374.3" y="554.0" type="line" smooth="yes"/>
      <point x="194.13333333333333" y="554.0"/>
      <point x="53.5" y="451.9"/>
      <point x="53.5" y="250.36666666666667" type="curve" smooth="yes"/>
      <point x="53.5" y="83.0"/>
      <point x="144.03333333333333" y="-5.0"/>
    </contour>
  </outline>
</glyph>
<glyph name="ee-tamil" format="2">
  <advance width="852.5666666666667"/>
  <unicode hex="0B8F"/>
  <note>
uni0B8F
</note>
  <anchor x="452.56666666666666" y="0.0" name="bottom"/>
  <anchor x="453.56666666666666" y="-186.2" name="nukta"/>
  <anchor x="455.93333333333334" y="554.0" name="top"/>
  <anchor x="455.56666666666666" y="554.0" name="vedic"/>
  <outline>
    <contour>
      <point x="459.8" y="-226.8" type="line"/>
      <point x="677.0" y="18.03333333333333" type="line"/>
      <point x="677.0" y="500.0" type="line"/>
      <point x="832.1" y="500.0" type="line"/>
      <point x="832.1" y="554.0" type="line"/>
      <point x="371.1333333333333" y="554.0" type="line" smooth="yes"/>
      <point x="190.96666666666667" y="554.0"/>
      <point x="53.5" y="451.9"/>
      <point x="53.5" y="250.36666666666667" type="curve" smooth="yes"/>
      <point x="53.5" y="83.0"/>
      <point x="144.03333333333333" y="-4.366666666666666"/>
      <point x="253.43333333333334" y="-4.366666666666666" type="curve" smooth="yes"/>
      <point x="355.1" y="-4.366666666666666"/>
      <point x="419.76666666666665" y="58.9"/>
      <point x="419.76666666666665" y="150.73333333333332" type="curve" smooth="yes"/>
      <point x="419.76666666666665" y="243.1"/>
      <point x="364.7" y="303.6333333333333"/>
      <point x="278.4" y="303.6333333333333" type="curve" smooth="yes"/>
      <point x="184.43333333333334" y="303.6333333333333"/>
      <point x="115.26666666666667" y="223.13333333333333"/>
      <point x="110.1" y="121.8" type="curve"/>
      <point x="139.36666666666667" y="95.16666666666667" type="line"/>
      <point x="143.16666666666666" y="179.5"/>
      <point x="186.3" y="236.0"/>
      <point x="245.43333333333334" y="236.0" type="curve" smooth="yes"/>
      <point x="304.73333333333335" y="236.0"/>
      <point x="329.7" y="190.63333333333333"/>
      <point x="329.7" y="146.0" type="curve" smooth="yes"/>
      <point x="329.7" y="91.63333333333334"/>
      <point x="298.03333333333336" y="49.0"/>
      <point x="237.16666666666666" y="49.0" type="curve" smooth="yes"/>
      <point x="168.3" y="49.0"/>
      <point x="109.66666666666667" y="115.36666666666666"/>
      <point x="109.66666666666667" y="249.36666666666667" type="curve" smooth="yes"/>
      <point x="109.66666666666667" y="414.3666666666667"/>
      <point x="220.3" y="500.0"/>
      <point x="377.3" y="500.0" type="curve" smooth="yes"/>
      <point x="583.8333333333334" y="500.0" type="line"/>
      <point x="583.8333333333334" y="-0.9000000000000001" type="line"/>
      <point x="417.43333333333334" y="-188.0" type="line"/>
    </contour>
  </outline>
</glyph>
<glyph name="ai-tamil" format="2">
  <advance width="902.1"/>
  <unicode hex="0B90"/>
  <note>
uni0B90
</note>
  <anchor x="456.9" y="0.0" name="bottom"/>
  <anchor x="449.73333333333335" y="-296.0" name="nukta"/>
  <anchor x="465.3666666666667" y="554.0" name="top"/>
  <anchor x="462.53333333333336" y="554.0" name="vedic"/>
  <outline>
    <contour>
      <point x="273.6" y="-296.0" type="curve" smooth="yes"/>
      <point x="371.3333333333333" y="-296.0"/>
      <point x="443.3" y="-254.26666666666668"/>
      <point x="467.53333333333336" y="-182.26666666666668" type="curve"/>
      <point x="490.03333333333336" y="-249.26666666666668"/>
      <point x="558.7666666666667" y="-296.0"/>
      <point x="646.2333333333333" y="-296.0" type="curve" smooth="yes"/>
      <point x="762.2333333333333" y="-296.0"/>
      <point x="849.2333333333333" y="-235.9"/>
      <point x="849.2333333333333" y="-99.63333333333334" type="curve" smooth="yes"/>
      <point x="849.2333333333333" y="-35.63333333333333"/>
      <point x="824.3666666666667" y="20.066666666666666"/>
      <point x="781.3333333333334" y="76.9" type="curve"/>
      <point x="738.7666666666667" y="46.1" type="line"/>
      <point x="774.5333333333333" y="0.6333333333333333"/>
      <point x="792.8" y="-46.266666666666666"/>
      <point x="792.8" y="-93.0" type="curve" smooth="yes"/>
      <point x="792.8" y="-195.96666666666667"/>
      <point x="733.0666666666667" y="-235.0"/>
      <point x="645.8666666666667" y="-235.0" type="curve" smooth="yes"/>
      <point x="563.7333333333333" y="-235.0"/>
      <point x="516.8" y="-171.0"/>
      <point x="516.8" y="-74.0" type="curve" smooth="yes"/>
      <point x="516.8" y="-41.0" type="line"/>
      <point x="423.9" y="-41.0" type="line"/>
      <point x="423.9" y="-88.0" type="line" smooth="yes"/>
      <point x="423.9" y="-188.0"/>
      <point x="373.6666666666667" y="-241.0"/>
      <point x="281.1666666666667" y="-241.0" type="curve" smooth="yes"/>
      <point x="197.36666666666667" y="-241.0"/>
      <point x="147.4" y="-197.0"/>
      <point x="147.4" y="-117.0" type="curve" smooth="yes"/>
      <point x="147.4" y="32.0"/>
      <point x="281.4666666666667" y="64.73333333333333"/>
      <point x="487.06666666666666" y="76.73333333333333" type="curve" smooth="yes"/>
      <point x="672.8333333333334" y="88.1"/>
      <point x="845.7" y="137.0"/>
      <point x="845.7" y="340.0" type="curve" smooth="yes"/>
      <point x="845.7" y="505.0"/>
      <point x="749.0666666666667" y="559.0"/>
      <point x="649.2" y="559.0" type="curve" smooth="yes"/>
      <point x="568.3333333333334" y="559.0"/>
      <point x="501.5" y="518.8333333333334"/>
      <point x="474.1666666666667" y="440.8333333333333" type="curve"/>
      <point x="442.2" y="519.8333333333334"/>
      <point x="364.7" y="559.0"/>
      <point x="282.4666666666667" y="559.0" type="curve" smooth="yes"/>
      <point x="153.66666666666666" y="559.0"/>
      <point x="57.13333333333333" y="476.0"/>
      <point x="57.13333333333333" y="349.0" type="curve" smooth="yes"/>
      <point x="57.13333333333333" y="238.0"/>
      <point x="120.9" y="156.0"/>
      <point x="212.83333333333334" y="156.0" type="curve" smooth="yes"/>
      <point x="294.03333333333336" y="156.0"/>
      <point x="349.53333333333336" y="205.0"/>
      <point x="349.53333333333336" y="276.0" type="curve" smooth="yes"/>
      <point x="349.53333333333336" y="361.0"/>
      <point x="300.4" y="412.0"/>
      <point x="230.0" y="412.0" type="curve" smooth="yes"/>
      <point x="175.93333333333334" y="412.0"/>
      <point x="107.3" y="378.0"/>
      <point x="97.76666666666667" y="262.0" type="curve"/>
      <point x="121.83333333333333" y="224.0" type="line"/>
      <point x="128.63333333333333" y="322.0"/>
      <point x="169.23333333333335" y="350.53333333333336"/>
      <point x="204.93333333333334" y="350.53333333333336" type="curve" smooth="yes"/>
      <point x="241.9" y="350.53333333333336"/>
      <point x="263.8666666666667" y="323.26666666666665"/>
      <point x="263.8666666666667" y="279.0" type="curve" smooth="yes"/>
      <point x="263.8666666666667" y="237.36666666666667"/>
      <point x="241.43333333333334" y="210.0"/>
      <point x="204.1" y="210.0" type="curve" smooth="yes"/>
      <point x="158.6" y="210.0"/>
      <point x="114.3" y="243.0"/>
      <point x="114.3" y="344.0" type="curve" smooth="yes"/>
      <point x="114.3" y="448.0"/>
      <point x="185.93333333333334" y="505.0"/>
      <point x="266.8666666666667" y="505.0" type="curve" smooth="yes"/>
      <point x="360.6" y="505.0"/>
      <point x="423.9" y="449.76666666666665"/>
      <point x="423.9" y="335.5" type="curve" smooth="yes"/>
      <point x="423.9" y="215.0" type="line"/>
      <point x="516.8" y="215.0" type="line"/>
      <point x="516.8" y="361.5" type="line" smooth="yes"/>
      <point x="516.8" y="444.1333333333333"/>
      <point x="560.8333333333334" y="505.0"/>
      <point x="635.8333333333334" y="505.0" type="curve" smooth="yes"/>
      <point x="717.2" y="505.0"/>
      <point x="751.8" y="445.0"/>
      <point x="751.8" y="350.0" type="curve" smooth="yes"/>
      <point x="751.8" y="185.0"/>
      <point x="649.6333333333333" y="130.26666666666668"/>
      <point x="422.7" y="117.26666666666667" type="curve" smooth="yes"/>
      <point x="203.93333333333334" y="104.9"/>
      <point x="53.5" y="62.0"/>
      <point x="53.5" y="-105.0" type="curve" smooth="yes"/>
      <point x="53.5" y="-225.0"/>
      <point x="142.0" y="-296.0"/>
    </contour>
  </outline>
</glyph>
<glyph name="o-tamil" format="2">
  <advance width="919.2333333333333"/>
  <unicode hex="0B92"/>
  <note>
uni0B92
</note>
  <anchor x="470.7" y="0.0" name="bottom"/>
  <anchor x="468.7" y="-335.0" name="nukta"/>
  <anchor x="463.7" y="554.0" name="top"/>
  <anchor x="463.7" y="554.0" name="vedic"/>
  <outline>
    <contour>
      <point x="348.53333333333336" y="-321.8666666666667" type="curve" smooth="yes"/>
      <point x="532.8" y="-321.8666666666667"/>
      <point x="545.6666666666666" y="-141.96666666666667"/>
      <point x="703.4333333333334" y="-141.96666666666667" type="curve" smooth="yes"/>
      <point x="736.4333333333334" y="-141.96666666666667" type="line"/>
      <point x="736.4333333333334" y="-88.6" type="line"/>
      <point x="700.1333333333333" y="-88.6" type="line" smooth="yes"/>
      <point x="564.8333333333334" y="-88.6"/>
      <point x="461.0" y="49.06666666666667"/>
      <point x="562.9666666666667" y="200.3" type="curve"/>
      <point x="568.3333333333334" y="196.66666666666666" type="line"/>
      <point x="534.6666666666666" y="103.5"/>
      <point x="567.7" y="-5.0"/>
      <point x="689.7" y="-5.0" type="curve" smooth="yes"/>
      <point x="788.1666666666666" y="-5.0"/>
      <point x="866.3666666666667" y="75.33333333333333"/>
      <point x="866.3666666666667" y="198.06666666666666" type="curve" smooth="yes"/>
      <point x="866.3666666666667" y="416.3"/>
      <point x="680.6333333333333" y="559.0"/>
      <point x="445.6" y="559.0" type="curve" smooth="yes"/>
      <point x="232.86666666666667" y="559.0"/>
      <point x="53.5" y="430.93333333333334"/>
      <point x="53.5" y="232.13333333333333" type="curve" smooth="yes"/>
      <point x="53.5" y="77.16666666666667"/>
      <point x="145.3" y="-5.0"/>
      <point x="253.43333333333334" y="-5.0" type="curve" smooth="yes"/>
      <point x="355.1" y="-5.0"/>
      <point x="419.76666666666665" y="58.9"/>
      <point x="419.76666666666665" y="150.73333333333332" type="curve" smooth="yes"/>
      <point x="419.76666666666665" y="243.1"/>
      <point x="364.7" y="303.6333333333333"/>
      <point x="278.4" y="303.6333333333333" type="curve" smooth="yes"/>
      <point x="184.43333333333334" y="303.6333333333333"/>
      <point x="115.26666666666667" y="223.13333333333333"/>
      <point x="110.1" y="121.8" type="curve"/>
      <point x="139.36666666666667" y="95.16666666666667" type="line"/>
      <point x="142.8" y="179.5"/>
      <point x="186.3" y="236.0"/>
      <point x="245.43333333333334" y="236.0" type="curve" smooth="yes"/>
      <point x="304.73333333333335" y="236.0"/>
      <point x="329.7" y="190.63333333333333"/>
      <point x="329.7" y="146.0" type="curve" smooth="yes"/>
      <point x="329.7" y="91.63333333333334"/>
      <point x="298.03333333333336" y="49.0"/>
      <point x="237.16666666666666" y="49.0" type="curve" smooth="yes"/>
      <point x="168.93333333333334" y="49.0"/>
      <point x="109.66666666666667" y="109.8"/>
      <point x="109.66666666666667" y="230.5" type="curve" smooth="yes"/>
      <point x="109.66666666666667" y="399.8"/>
      <point x="268.23333333333335" y="505.0"/>
      <point x="446.5" y="505.0" type="curve" smooth="yes"/>
      <point x="637.1666666666666" y="505.0"/>
      <point x="773.9333333333334" y="394.0"/>
      <point x="773.9333333333334" y="208.06666666666666" type="curve" smooth="yes"/>
      <point x="773.9333333333334" y="116.33333333333333"/>
      <point x="736.0666666666667" y="49.0"/>
      <point x="674.5" y="49.0" type="curve" smooth="yes"/>
      <point x="589.6" y="49.0"/>
      <point x="584.4666666666667" y="160.56666666666666"/>
      <point x="640.9" y="256.7" type="curve"/>
      <point x="581.9666666666667" y="294.46666666666664" type="line"/>
      <point x="413.56666666666666" y="127.9"/>
      <point x="465.1" y="-55.766666666666666"/>
      <point x="587.8666666666667" y="-110.6" type="curve"/>
      <point x="587.8666666666667" y="-115.6" type="line"/>
      <point x="462.43333333333334" y="-129.0"/>
      <point x="447.06666666666666" y="-256.23333333333335"/>
      <point x="325.1" y="-256.23333333333335" type="curve" smooth="yes"/>
      <point x="279.1333333333333" y="-256.23333333333335"/>
      <point x="243.06666666666666" y="-228.53333333333333"/>
      <point x="243.06666666666666" y="-178.73333333333335" type="curve" smooth="yes"/>
      <point x="243.06666666666666" y="-142.3"/>
      <point x="258.8666666666667" y="-118.86666666666667"/>
      <point x="293.4666666666667" y="-90.23333333333333" type="curve"/>
      <point x="254.1" y="-51.43333333333334" type="line"/>
      <point x="207.33333333333334" y="-91.7"/>
      <point x="186.26666666666668" y="-126.3"/>
      <point x="186.26666666666668" y="-177.73333333333335" type="curve" smooth="yes"/>
      <point x="186.26666666666668" y="-266.0"/>
      <point x="257.76666666666665" y="-321.8666666666667"/>
    </contour>
  </outline>
</glyph>
<glyph name="oo-tamil" format="2">
  <advance width="919.2333333333333"/>
  <unicode hex="0B93"/>
  <note>
uni0B93
</note>
  <anchor x="454.1" y="0.0" name="bottom"/>
  <anchor x="452.1" y="-298.8666666666667" name="nukta"/>
  <anchor x="447.1" y="554.0" name="top"/>
  <anchor x="447.1" y="554.0" name="vedic"/>
  <outline>
    <contour>
      <point x="330.06666666666666" y="-332.23333333333335" type="curve" smooth="yes"/>
      <point x="531.9333333333334" y="-332.23333333333335"/>
      <point x="541.8666666666667" y="-141.96666666666667"/>
      <point x="690.7666666666667" y="-141.96666666666667" type="curve" smooth="yes"/>
      <point x="722.1" y="-141.96666666666667" type="line"/>
      <point x="722.1" y="-88.6" type="line"/>
      <point x="694.4333333333334" y="-88.6" type="line" smooth="yes"/>
      <point x="559.1333333333333" y="-88.6"/>
      <point x="460.26666666666665" y="49.06666666666667"/>
      <point x="562.9666666666667" y="200.3" type="curve"/>
      <point x="568.3333333333334" y="196.66666666666666" type="line"/>
      <point x="534.6666666666666" y="103.5"/>
      <point x="567.7" y="-5.0"/>
      <point x="689.7" y="-5.0" type="curve" smooth="yes"/>
      <point x="788.1666666666666" y="-5.0"/>
      <point x="866.3666666666667" y="75.33333333333333"/>
      <point x="866.3666666666667" y="198.06666666666666" type="curve" smooth="yes"/>
      <point x="866.3666666666667" y="416.3"/>
      <point x="680.6333333333333" y="559.0"/>
      <point x="445.6" y="559.0" type="curve" smooth="yes"/>
      <point x="232.86666666666667" y="559.0"/>
      <point x="53.5" y="430.93333333333334"/>
      <point x="53.5" y="232.13333333333333" type="curve" smooth="yes"/>
      <point x="53.5" y="77.16666666666667"/>
      <point x="145.3" y="-5.0"/>
      <point x="253.43333333333334" y="-5.0" type="curve" smooth="yes"/>
      <point x="355.1" y="-5.0"/>
      <point x="419.76666666666665" y="58.9"/>
      <point x="419.76666666666665" y="150.73333333333332" type="curve" smooth="yes"/>
      <point x="419.76666666666665" y="243.1"/>
      <point x="364.7" y="303.6333333333333"/>
      <point x="278.4" y="303.6333333333333" type="curve" smooth="yes"/>
      <point x="184.43333333333334" y="303.6333333333333"/>
      <point x="115.26666666666667" y="223.13333333333333"/>
      <point x="110.1" y="121.8" type="curve"/>
      <point x="139.36666666666667" y="95.16666666666667" type="line"/>
      <point x="142.8" y="179.5"/>
      <point x="186.3" y="236.0"/>
      <point x="245.43333333333334" y="236.0" type="curve" smooth="yes"/>
      <point x="304.73333333333335" y="236.0"/>
      <point x="329.7" y="190.63333333333333"/>
      <point x="329.7" y="146.0" type="curve" smooth="yes"/>
      <point x="329.7" y="91.63333333333334"/>
      <point x="298.03333333333336" y="49.0"/>
      <point x="237.16666666666666" y="49.0" type="curve" smooth="yes"/>
      <point x="168.93333333333334" y="49.0"/>
      <point x="109.66666666666667" y="109.8"/>
      <point x="109.66666666666667" y="230.5" type="curve" smooth="yes"/>
      <point x="109.66666666666667" y="399.8"/>
      <point x="268.23333333333335" y="505.0"/>
      <point x="446.5" y="505.0" type="curve" smooth="yes"/>
      <point x="637.1666666666666" y="505.0"/>
      <point x="773.9333333333334" y="394.0"/>
      <point x="773.9333333333334" y="208.06666666666666" type="curve" smooth="yes"/>
      <point x="773.9333333333334" y="116.33333333333333"/>
      <point x="736.0666666666667" y="49.0"/>
      <point x="674.5" y="49.0" type="curve" smooth="yes"/>
      <point x="589.6" y="49.0"/>
      <point x="584.4666666666667" y="160.56666666666666"/>
      <point x="640.9" y="256.7" type="curve"/>
      <point x="581.9666666666667" y="294.46666666666664" type="line"/>
      <point x="412.8333333333333" y="127.9"/>
      <point x="458.76666666666665" y="-55.766666666666666"/>
      <point x="581.5333333333333" y="-110.6" type="curve"/>
      <point x="581.5333333333333" y="-115.6" type="line"/>
      <point x="456.73333333333335" y="-132.16666666666666"/>
      <point x="448.3" y="-268.06666666666666"/>
      <point x="304.26666666666665" y="-268.06666666666666" type="curve" smooth="yes"/>
      <point x="247.86666666666667" y="-268.06666666666666"/>
      <point x="219.4" y="-237.9"/>
      <point x="219.4" y="-195.46666666666667" type="curve" smooth="yes"/>
      <point x="219.4" y="-157.23333333333332"/>
      <point x="252.63333333333333" y="-133.86666666666667"/>
      <point x="286.3333333333333" y="-133.86666666666667" type="curve" smooth="yes"/>
      <point x="320.1333333333333" y="-133.86666666666667"/>
      <point x="350.3666666666667" y="-150.5"/>
      <point x="362.0" y="-184.5" type="curve"/>
      <point x="389.3666666666667" y="-172.5"/>
      <point x="409.6333333333333" y="-145.33333333333334"/>
      <point x="409.6333333333333" y="-121.33333333333333" type="curve" smooth="yes"/>
      <point x="409.6333333333333" y="-77.9"/>
      <point x="367.73333333333335" y="-55.166666666666664"/>
      <point x="319.56666666666666" y="-55.166666666666664" type="curve" smooth="yes"/>
      <point x="248.23333333333335" y="-55.166666666666664"/>
      <point x="165.53333333333333" y="-101.63333333333334"/>
      <point x="165.53333333333333" y="-191.46666666666667" type="curve" smooth="yes"/>
      <point x="165.53333333333333" y="-281.8"/>
      <point x="238.13333333333333" y="-332.23333333333335"/>
    </contour>
  </outline>
</glyph>
<glyph name="au-tamil" format="2">
  <advance width="2035.3333333333333"/>
  <unicode hex="0B94"/>
  <note>
uni0B94
</note>
  <anchor x="1037.5666666666666" y="0.0" name="bottom"/>
  <anchor x="1111.9666666666667" y="0.0" name="nukta"/>
  <anchor x="1030.5666666666666" y="554.0" name="top"/>
  <anchor x="1030.5666666666666" y="554.0" name="vedic"/>
  <outline>
    <contour>
      <point x="1145.4666666666667" y="-4.366666666666666" type="curve" smooth="yes"/>
      <point x="1246.1333333333334" y="-4.366666666666666"/>
      <point x="1311.8" y="58.9"/>
      <point x="1311.8" y="150.73333333333332" type="curve" smooth="yes"/>
      <point x="1311.8" y="243.1"/>
      <point x="1256.1" y="303.6333333333333"/>
      <point x="1169.4333333333334" y="303.6333333333333" type="curve" smooth="yes"/>
      <point x="1076.4666666666667" y="303.6333333333333"/>
      <point x="1007.3" y="223.13333333333333"/>
      <point x="1001.7666666666667" y="121.8" type="curve"/>
      <point x="1031.0333333333333" y="95.16666666666667" type="line"/>
      <point x="1034.8333333333333" y="179.5"/>
      <point x="1078.3333333333333" y="236.0"/>
      <point x="1136.4666666666667" y="236.0" type="curve" smooth="yes"/>
      <point x="1196.4" y="236.0"/>
      <point x="1221.3666666666668" y="190.63333333333333"/>
      <point x="1221.3666666666668" y="146.0" type="curve" smooth="yes"/>
      <point x="1221.3666666666668" y="91.63333333333334"/>
      <point x="1190.0666666666666" y="49.0"/>
      <point x="1129.2" y="49.0" type="curve" smooth="yes"/>
      <point x="1059.3333333333333" y="49.0"/>
      <point x="1001.7" y="115.36666666666666"/>
      <point x="1001.7" y="249.36666666666667" type="curve" smooth="yes"/>
      <point x="1001.7" y="415.0"/>
      <point x="1100.9" y="505.0"/>
      <point x="1239.8333333333333" y="505.0" type="curve" smooth="yes"/>
      <point x="1382.6333333333334" y="505.0"/>
      <point x="1475.0333333333333" y="425.5"/>
      <point x="1475.0333333333333" y="272.3" type="curve"/>
      <point x="1529.6666666666667" y="276.6666666666667" type="line"/>
      <point x="1522.1" y="464.1666666666667"/>
      <point x="1408.9" y="559.0"/>
      <point x="1238.0" y="559.0" type="curve" smooth="yes"/>
      <point x="1072.1" y="559.0"/>
      <point x="944.9" y="454.0"/>
      <point x="944.9" y="250.36666666666667" type="curve" smooth="yes"/>
      <point x="944.9" y="83.0"/>
      <point x="1036.0666666666666" y="-4.366666666666666"/>
    </contour>
    <contour>
      <point x="1475.4" y="0.0" type="line"/>
      <point x="1567.5666666666666" y="0.0" type="line"/>
      <point x="1567.5666666666666" y="500.0" type="line"/>
      <point x="1766.9666666666667" y="500.0" type="line"/>
      <point x="1766.9666666666667" y="0.0" type="line"/>
      <point x="1859.4" y="0.0" type="line"/>
      <point x="1859.4" y="500.0" type="line"/>
      <point x="2014.8666666666668" y="500.0" type="line"/>
      <point x="2014.8666666666668" y="554.0" type="line"/>
      <point x="1484.1666666666667" y="554.0" type="line"/>
      <point x="1484.1666666666667" y="387.0" type="line"/>
      <point x="1475.4" y="382.0" type="line"/>
    </contour>
    <component base="o-tamil"/>
  </outline>
</glyph>
<glyph name="tta-tamil" format="2">
  <advance width="821.5"/>
  <unicode hex="0B9F"/>
  <note>
uni0B9F
</note>
  <anchor x="443.03333333333336" y="0.0" name="bottom"/>
  <anchor x="443.03333333333336" y="0.0" name="nukta"/>
  <anchor x="471.2" y="554.0" name="top"/>
  <anchor x="447.8" y="554.0" name="vedic"/>
  <outline>
    <contour>
      <point x="89.56666666666666" y="0.0" type="line"/>
      <point x="806.0333333333333" y="0.0" type="line"/>
      <point x="806.0333333333333" y="54.0" type="line"/>
      <point x="182.1" y="54.0" type="line"/>
      <point x="182.1" y="554.0" type="line"/>
      <point x="89.56666666666666" y="554.0" type="line"/>
    </contour>
  </outline>
</glyph>
<glyph name="na-tamil" format="2">
  <advance width="744.9666666666667"/>
  <unicode hex="0BA8"/>
  <note>
uni0BA8
</note>
  <anchor x="373.3333333333333" y="0.0" name="bottom"/>
  <anchor x="520.3333333333334" y="554.0" name="imatra"/>
  <anchor x="382.2" y="-181.0" name="nukta"/>
  <anchor x="375.43333333333334" y="554.0" name="top"/>
  <anchor x="386.06666666666666" y="554.0" name="vedic"/>
  <outline>
    <contour>
      <point x="169.4" y="-249.0" type="curve"/>
      <point x="169.4" y="-180.0"/>
      <point x="187.56666666666666" y="-139.63333333333333"/>
      <point x="273.9666666666667" y="-139.63333333333333" type="curve" smooth="yes"/>
      <point x="362.1333333333333" y="-139.63333333333333" type="line" smooth="yes"/>
      <point x="548.0" y="-139.63333333333333"/>
      <point x="690.6333333333333" y="-62.0"/>
      <point x="690.6333333333333" y="143.0" type="curve" smooth="yes"/>
      <point x="690.6333333333333" y="275.0"/>
      <point x="622.2666666666667" y="345.0"/>
      <point x="530.3333333333334" y="345.0" type="curve" smooth="yes"/>
      <point x="464.93333333333334" y="345.0"/>
      <point x="431.06666666666666" y="306.03333333333336"/>
      <point x="420.9666666666667" y="278.23333333333335" type="curve"/>
      <point x="420.9666666666667" y="500.0" type="line"/>
      <point x="582.1666666666666" y="500.0" type="line"/>
      <point x="582.1666666666666" y="554.0" type="line"/>
      <point x="105.4" y="554.0" type="line"/>
      <point x="105.4" y="0.0" type="line"/>
      <point x="164.2" y="0.0" type="line"/>
      <point x="164.2" y="500.0" type="line"/>
      <point x="328.43333333333334" y="500.0" type="line"/>
      <point x="328.43333333333334" y="0.0" type="line"/>
      <point x="420.9666666666667" y="0.0" type="line"/>
      <point x="420.9666666666667" y="189.96666666666667" type="line" smooth="yes"/>
      <point x="420.9666666666667" y="238.56666666666666"/>
      <point x="449.4666666666667" y="283.06666666666666"/>
      <point x="501.4" y="283.06666666666666" type="curve" smooth="yes"/>
      <point x="556.6" y="283.06666666666666"/>
      <point x="596.1" y="239.0"/>
      <point x="596.1" y="132.0" type="curve" smooth="yes"/>
      <point x="596.1" y="-30.0"/>
      <point x="518.8666666666667" y="-91.36666666666666"/>
      <point x="341.3666666666667" y="-91.36666666666666" type="curve" smooth="yes"/>
      <point x="239.6" y="-91.36666666666666" type="line" smooth="yes"/>
      <point x="158.56666666666666" y="-91.36666666666666"/>
      <point x="84.43333333333334" y="-108.0"/>
      <point x="84.43333333333334" y="-179.0" type="curve" smooth="yes"/>
      <point x="84.43333333333334" y="-225.0"/>
      <point x="115.06666666666666" y="-249.0"/>
    </contour>
  </outline>
</glyph>
<glyph name="nnna-tamil" format="2">
  <advance width="1216.0"/>
  <unicode hex="0BA9"/>
  <note>
uni0BA9
</note>
  <anchor x="605.6666666666666" y="0.0" name="bottom"/>
  <anchor x="1066.2" y="554.0" name="imatra"/>
  <anchor x="605.6666666666666" y="0.0" name="nukta"/>
  <anchor x="629.9333333333334" y="554.0" name="top"/>
  <anchor x="626.0333333333333" y="554.0" name="vedic"/>
  <outline>
    <contour>
      <point x="253.33333333333334" y="-4.366666666666666" type="curve" smooth="yes"/>
      <point x="354.3666666666667" y="-4.366666666666666"/>
      <point x="419.4" y="58.9"/>
      <point x="419.4" y="150.73333333333332" type="curve" smooth="yes"/>
      <point x="419.4" y="243.1"/>
      <point x="364.3333333333333" y="303.6333333333333"/>
      <point x="277.6666666666667" y="303.6333333333333" type="curve" smooth="yes"/>
      <point x="184.7" y="303.6333333333333"/>
      <point x="115.9" y="223.13333333333333"/>
      <point x="110.73333333333333" y="121.8" type="curve"/>
      <point x="140.0" y="95.16666666666667" type="line"/>
      <point x="143.43333333333334" y="179.5"/>
      <point x="186.56666666666666" y="236.0"/>
      <point x="244.7" y="236.0" type="curve" smooth="yes"/>
      <point x="304.6333333333333" y="236.0"/>
      <point x="329.6" y="190.63333333333333"/>
      <point x="329.6" y="146.0" type="curve" smooth="yes"/>
      <point x="329.6" y="91.63333333333334"/>
      <point x="298.3" y="49.0"/>
      <point x="237.43333333333334" y="49.0" type="curve" smooth="yes"/>
      <point x="169.46666666666667" y="49.0"/>
      <point x="109.66666666666667" y="111.56666666666666"/>
      <point x="109.66666666666667" y="237.96666666666667" type="curve" smooth="yes"/>
      <point x="109.66666666666667" y="411.03333333333336"/>
      <point x="242.6" y="505.0"/>
      <point x="404.0" y="505.0" type="curve" smooth="yes"/>
      <point x="595.8" y="505.0"/>
      <point x="723.8" y="395.3333333333333"/>
      <point x="723.8" y="190.96666666666667" type="curve" smooth="yes"/>
      <point x="723.8" y="105.66666666666667"/>
      <point x="693.6333333333333" y="49.0"/>
      <point x="632.3666666666667" y="49.0" type="curve" smooth="yes"/>
      <point x="572.7333333333333" y="49.0"/>
      <point x="545.0333333333333" y="101.76666666666667"/>
      <point x="545.0333333333333" y="188.96666666666667" type="curve" smooth="yes"/>
      <point x="545.0333333333333" y="372.8"/>
      <point x="663.4" y="500.0"/>
      <point x="857.1666666666666" y="500.0" type="curve" smooth="yes"/>
      <point x="1195.5333333333333" y="500.0" type="line"/>
      <point x="1195.5333333333333" y="554.0" type="line"/>
      <point x="866.1333333333333" y="554.0" type="line" smooth="yes"/>
      <point x="641.7333333333333" y="554.0"/>
      <point x="489.76666666666665" y="408.8"/>
      <point x="489.76666666666665" y="192.96666666666667" type="curve" smooth="yes"/>
      <point x="489.76666666666665" y="70.76666666666667"/>
      <point x="544.4333333333334" y="-5.0"/>
      <point x="647.8" y="-5.0" type="curve" smooth="yes"/>
      <point x="749.5333333333333" y="-5.0"/>
      <point x="818.8666666666667" y="71.13333333333334"/>
      <point x="818.8666666666667" y="190.33333333333334" type="curve" smooth="yes"/>
      <point x="818.8666666666667" y="409.8"/>
      <point x="642.8" y="559.0"/>
      <point x="414.7" y="559.0" type="curve" smooth="yes"/>
      <point x="222.13333333333333" y="559.0"/>
      <point x="53.5" y="448.6666666666667"/>
      <point x="53.5" y="240.23333333333332" type="curve" smooth="yes"/>
      <point x="53.5" y="79.2"/>
      <point x="146.83333333333334" y="-4.366666666666666"/>
    </contour>
    <contour>
      <point x="947.2666666666667" y="0.0" type="line"/>
      <point x="1040.0666666666666" y="0.0" type="line"/>
      <point x="1040.0666666666666" y="529.0" type="line"/>
      <point x="947.2666666666667" y="529.0" type="line"/>
    </contour>
  </outline>
</glyph>
<glyph name="pa-tamil" format="2">
  <advance width="818.0666666666667"/>
  <unicode hex="0BAA"/>
  <note>
uni0BAA
</note>
  <anchor x="410.1333333333333" y="0.0" name="bottom"/>
  <anchor x="720.6" y="554.0" name="imatra"/>
  <anchor x="410.1333333333333" y="0.0" name="nukta"/>
  <anchor x="409.4" y="554.0" name="top"/>
  <anchor x="410.1333333333333" y="554.0" name="vedic"/>
  <outline>
    <contour>
      <point x="89.56666666666666" y="0.0" type="line"/>
      <point x="728.7666666666667" y="0.0" type="line"/>
      <point x="728.7666666666667" y="554.0" type="line"/>
      <point x="635.9666666666667" y="554.0" type="line"/>
      <point x="635.9666666666667" y="54.0" type="line"/>
      <point x="182.1" y="54.0" type="line"/>
      <point x="182.1" y="554.0" type="line"/>
      <point x="89.56666666666666" y="554.0" type="line"/>
    </contour>
  </outline>
</glyph>
<glyph name="ma-tamil" format="2">
  <advance width="837.4666666666667"/>
  <unicode hex="0BAE"/>
  <note>
uni0BAE
</note>
  <anchor x="418.4666666666667" y="0.0" name="bottom"/>
  <anchor x="724.6333333333333" y="554.0" name="imatra"/>
  <anchor x="419.4666666666667" y="0.0" name="nukta"/>
  <anchor x="454.0" y="554.0" name="top"/>
  <anchor x="434.26666666666665" y="554.0" name="vedic"/>
  <outline>
    <contour>
      <point x="89.56666666666666" y="0.0" type="line"/>
      <point x="624.3666666666667" y="0.0" type="line" smooth="yes"/>
      <point x="743.1666666666666" y="0.0"/>
      <point x="780.0666666666667" y="79.36666666666667"/>
      <point x="780.0666666666667" y="240.33333333333334" type="curve" smooth="yes"/>
      <point x="780.0666666666667" y="443.43333333333334"/>
      <point x="687.2333333333333" y="559.0"/>
      <point x="565.0" y="559.0" type="curve" smooth="yes"/>
      <point x="467.8666666666667" y="559.0"/>
      <point x="406.73333333333335" y="497.3666666666667"/>
      <point x="406.73333333333335" y="387.6" type="curve" smooth="yes"/>
      <point x="406.73333333333335" y="54.0" type="line"/>
      <point x="182.1" y="54.0" type="line"/>
      <point x="182.1" y="554.0" type="line"/>
      <point x="89.56666666666666" y="554.0" type="line"/>
    </contour>
    <contour>
      <point x="499.9" y="54.0" type="line"/>
      <point x="499.9" y="388.6" type="line" smooth="yes"/>
      <point x="499.9" y="467.8333333333333"/>
      <point x="531.9" y="500.0"/>
      <point x="582.2" y="500.0" type="curve" smooth="yes"/>
      <point x="645.7" y="500.0"/>
      <point x="720.9" y="416.3333333333333"/>
      <point x="720.9" y="238.33333333333334" type="curve" smooth="yes"/>
      <point x="720.9" y="122.36666666666667"/>
      <point x="708.6" y="54.0"/>
      <point x="616.1" y="54.0" type="curve" smooth="yes"/>
    </contour>
  </outline>
</glyph>
<glyph name="ya-tamil" format="2">
  <advance width="890.9333333333334"/>
  <unicode hex="0BAF"/>
  <note>
uni0BAF
</note>
  <anchor x="456.23333333333335" y="0.0" name="bottom"/>
  <anchor x="792.7333333333333" y="554.0" name="imatra"/>
  <anchor x="457.3333333333333" y="0.0" name="nukta"/>
  <anchor x="464.9" y="554.0" name="top"/>
  <anchor x="445.3" y="554.0" name="vedic"/>
  <outline>
    <contour>
      <point x="225.36666666666667" y="-5.0" type="curve" smooth="yes"/>
      <point x="294.7" y="-5.0"/>
      <point x="330.3" y="44.233333333333334"/>
      <point x="339.6666666666667" y="66.23333333333333" type="curve"/>
      <point x="339.6666666666667" y="0.0" type="line"/>
      <point x="801.6333333333333" y="0.0" type="line"/>
      <point x="801.6333333333333" y="554.0" type="line"/>
      <point x="708.4666666666667" y="554.0" type="line"/>
      <point x="708.4666666666667" y="54.0" type="line"/>
      <point x="425.56666666666666" y="54.0" type="line"/>
      <point x="425.56666666666666" y="554.0" type="line"/>
      <point x="333.6666666666667" y="554.0" type="line"/>
      <point x="333.6666666666667" y="155.6" type="line" smooth="yes"/>
      <point x="333.6666666666667" y="95.6"/>
      <point x="302.6" y="56.0"/>
      <point x="251.66666666666666" y="56.0" type="curve" smooth="yes"/>
      <point x="209.53333333333333" y="56.0"/>
      <point x="177.56666666666666" y="86.33333333333333"/>
      <point x="177.56666666666666" y="146.6" type="curve" smooth="yes"/>
      <point x="177.56666666666666" y="554.0" type="line"/>
      <point x="85.66666666666667" y="554.0" type="line"/>
      <point x="85.66666666666667" y="160.66666666666666" type="line" smooth="yes"/>
      <point x="85.66666666666667" y="48.333333333333336"/>
      <point x="138.9" y="-5.0"/>
    </contour>
  </outline>
</glyph>
<glyph name="la-tamil" format="2">
  <advance width="962.7"/>
  <unicode hex="0BB2"/>
  <note>
uni0BB2
</note>
  <anchor x="481.1666666666667" y="0.0" name="bottom"/>
  <anchor x="481.1666666666667" y="0.0" name="nukta"/>
  <anchor x="504.9" y="554.0" name="top"/>
  <anchor x="478.9" y="554.0" name="vedic"/>
  <outline>
    <contour>
      <point x="254.06666666666666" y="-4.366666666666666" type="curve" smooth="yes"/>
      <point x="355.1" y="-4.366666666666666"/>
      <point x="419.76666666666665" y="58.9"/>
      <point x="419.76666666666665" y="150.73333333333332" type="curve" smooth="yes"/>
      <point x="419.76666666666665" y="243.1"/>
      <point x="364.7" y="303.6333333333333"/>
      <point x="278.4" y="303.6333333333333" type="curve" smooth="yes"/>
      <point x="185.06666666666666" y="303.6333333333333"/>
      <point x="115.9" y="223.13333333333333"/>
      <point x="110.73333333333333" y="121.8" type="curve"/>
      <point x="140.0" y="95.16666666666667" type="line"/>
      <point x="143.43333333333334" y="179.5"/>
      <point x="186.93333333333334" y="236.0"/>
      <point x="245.43333333333334" y="236.0" type="curve" smooth="yes"/>
      <point x="305.3666666666667" y="236.0"/>
      <point x="330.3333333333333" y="190.63333333333333"/>
      <point x="330.3333333333333" y="146.0" type="curve" smooth="yes"/>
      <point x="330.3333333333333" y="91.63333333333334"/>
      <point x="298.6666666666667" y="49.0"/>
      <point x="237.8" y="49.0" type="curve" smooth="yes"/>
      <point x="170.2" y="49.0"/>
      <point x="109.66666666666667" y="111.56666666666666"/>
      <point x="109.66666666666667" y="237.96666666666667" type="curve" smooth="yes"/>
      <point x="109.66666666666667" y="405.56666666666666"/>
      <point x="198.73333333333335" y="505.0"/>
      <point x="339.53333333333336" y="505.0" type="curve" smooth="yes"/>
      <point x="457.2" y="505.0"/>
      <point x="524.8333333333334" y="431.1"/>
      <point x="524.8333333333334" y="320.0" type="curve" smooth="yes"/>
      <point x="524.8333333333334" y="169.33333333333334" type="line" smooth="yes"/>
      <point x="524.8333333333334" y="55.06666666666667"/>
      <point x="597.2" y="0.0"/>
      <point x="688.9666666666667" y="0.0" type="curve" smooth="yes"/>
      <point x="821.7" y="0.0"/>
      <point x="905.5666666666667" y="123.3"/>
      <point x="905.5666666666667" y="279.0" type="curve" smooth="yes"/>
      <point x="905.5666666666667" y="380.1333333333333"/>
      <point x="880.4" y="471.5"/>
      <point x="805.4" y="559.0" type="curve"/>
      <point x="764.7333333333333" y="525.6666666666666" type="line"/>
      <point x="827.5666666666667" y="454.8"/>
      <point x="851.9333333333334" y="371.46666666666664"/>
      <point x="851.9333333333334" y="289.0" type="curve" smooth="yes"/>
      <point x="851.9333333333334" y="157.13333333333333"/>
      <point x="791.5333333333333" y="59.0"/>
      <point x="702.5333333333333" y="59.0" type="curve" smooth="yes"/>
      <point x="644.3333333333334" y="59.0"/>
      <point x="618.0" y="92.16666666666667"/>
      <point x="618.0" y="168.33333333333334" type="curve" smooth="yes"/>
      <point x="618.0" y="319.1" type="line" smooth="yes"/>
      <point x="618.0" y="465.3"/>
      <point x="507.3" y="559.0"/>
      <point x="349.6333333333333" y="559.0" type="curve" smooth="yes"/>
      <point x="174.36666666666667" y="559.0"/>
      <point x="53.5" y="441.1"/>
      <point x="53.5" y="240.23333333333332" type="curve" smooth="yes"/>
      <point x="53.5" y="79.2"/>
      <point x="147.2" y="-4.366666666666666"/>
    </contour>
  </outline>
</glyph>
<glyph name="va-tamil" format="2">
  <advance width="1046.9333333333334"/>
  <unicode hex="0BB5"/>
  <note>
uni0BB5
</note>
  <anchor x="568.2" y="0.0" name="bottom"/>
  <anchor x="877.2" y="554.0" name="imatra"/>
  <anchor x="568.2" y="0.0" name="nukta"/>
  <anchor x="520.9666666666667" y="554.0" name="top"/>
  <anchor x="506.3" y="554.0" name="vedic"/>
  <outline>
    <contour>
      <point x="254.06666666666666" y="-4.366666666666666" type="curve" smooth="yes"/>
      <point x="355.1" y="-4.366666666666666"/>
      <point x="419.76666666666665" y="58.9"/>
      <point x="419.76666666666665" y="150.73333333333332" type="curve" smooth="yes"/>
      <point x="419.76666666666665" y="243.1"/>
      <point x="364.7" y="303.6333333333333"/>
      <point x="278.4" y="303.6333333333333" type="curve" smooth="yes"/>
      <point x="185.06666666666666" y="303.6333333333333"/>
      <point x="115.9" y="223.13333333333333"/>
      <point x="110.73333333333333" y="121.8" type="curve"/>
      <point x="140.0" y="95.16666666666667" type="line"/>
      <point x="143.43333333333334" y="179.5"/>
      <point x="186.93333333333334" y="236.0"/>
      <point x="245.43333333333334" y="236.0" type="curve" smooth="yes"/>
      <point x="305.3666666666667" y="236.0"/>
      <point x="330.3333333333333" y="190.63333333333333"/>
      <point x="330.3333333333333" y="146.0" type="curve" smooth="yes"/>
      <point x="330.3333333333333" y="91.63333333333334"/>
      <point x="298.6666666666667" y="49.0"/>
      <point x="237.8" y="49.0" type="curve" smooth="yes"/>
      <point x="170.2" y="49.0"/>
      <point x="109.66666666666667" y="111.56666666666666"/>
      <point x="109.66666666666667" y="237.96666666666667" type="curve" smooth="yes"/>
      <point x="109.66666666666667" y="405.56666666666666"/>
      <point x="209.63333333333333" y="505.0"/>
      <point x="361.8333333333333" y="505.0" type="curve" smooth="yes"/>
      <point x="498.73333333333335" y="505.0"/>
      <point x="598.7" y="402.0"/>
      <point x="598.7" y="257.0" type="curve" smooth="yes"/>
      <point x="598.7" y="150.0"/>
      <point x="563.0" y="84.46666666666667"/>
      <point x="525.4" y="41.9" type="curve"/>
      <point x="541.9333333333334" y="0.0" type="line"/>
      <point x="957.6333333333333" y="0.0" type="line"/>
      <point x="957.6333333333333" y="554.0" type="line"/>
      <point x="864.4666666666667" y="554.0" type="line"/>
      <point x="864.4666666666667" y="54.0" type="line"/>
      <point x="608.1666666666666" y="54.0" type="line"/>
      <point x="649.7" y="99.56666666666666"/>
      <point x="691.0333333333333" y="165.1"/>
      <point x="691.0333333333333" y="262.8333333333333" type="curve" smooth="yes"/>
      <point x="691.0333333333333" y="441.73333333333335"/>
      <point x="554.3666666666667" y="559.0"/>
      <point x="375.2" y="559.0" type="curve" smooth="yes"/>
      <point x="188.26666666666668" y="559.0"/>
      <point x="53.5" y="440.3666666666667"/>
      <point x="53.5" y="240.23333333333332" type="curve" smooth="yes"/>
      <point x="53.5" y="79.2"/>
      <point x="147.2" y="-4.366666666666666"/>
    </contour>
  </outline>
</glyph>
<glyph name="ssa-tamil" format="2">
  <advance width="1309.4"/>
  <unicode hex="0BB7"/>
  <note>
uni0BB7
</note>
  <anchor x="670.1333333333333" y="0.0" name="bottom"/>
  <anchor x="604.6" y="0.0" name="nukta"/>
  <anchor x="685.7333333333333" y="554.0" name="top"/>
  <anchor x="663.9333333333334" y="554.0" name="vedic"/>
  <outline>
    <contour>
      <point x="254.06666666666666" y="-4.366666666666666" type="curve" smooth="yes"/>
      <point x="355.1" y="-4.366666666666666"/>
      <point x="419.76666666666665" y="58.9"/>
      <point x="419.76666666666665" y="150.73333333333332" type="curve" smooth="yes"/>
      <point x="419.76666666666665" y="243.1"/>
      <point x="364.7" y="303.6333333333333"/>
      <point x="278.4" y="303.6333333333333" type="curve" smooth="yes"/>
      <point x="185.06666666666666" y="303.6333333333333"/>
      <point x="115.9" y="223.13333333333333"/>
      <point x="110.73333333333333" y="121.8" type="curve"/>
      <point x="140.0" y="95.16666666666667" type="line"/>
      <point x="143.43333333333334" y="179.5"/>
      <point x="186.93333333333334" y="236.0"/>
      <point x="245.43333333333334" y="236.0" type="curve" smooth="yes"/>
      <point x="305.3666666666667" y="236.0"/>
      <point x="330.3333333333333" y="190.63333333333333"/>
      <point x="330.3333333333333" y="146.0" type="curve" smooth="yes"/>
      <point x="330.3333333333333" y="91.63333333333334"/>
      <point x="298.6666666666667" y="49.0"/>
      <point x="237.8" y="49.0" type="curve" smooth="yes"/>
      <point x="170.2" y="49.0"/>
      <point x="109.66666666666667" y="111.56666666666666"/>
      <point x="109.66666666666667" y="237.96666666666667" type="curve" smooth="yes"/>
      <point x="109.66666666666667" y="405.56666666666666"/>
      <point x="208.9" y="505.0"/>
      <point x="361.8333333333333" y="505.0" type="curve" smooth="yes"/>
      <point x="498.73333333333335" y="505.0"/>
      <point x="598.7" y="402.0"/>
      <point x="598.7" y="257.0" type="curve" smooth="yes"/>
      <point x="598.7" y="150.0"/>
      <point x="563.0" y="84.46666666666667"/>
      <point x="525.4" y="41.9" type="curve"/>
      <point x="541.9333333333334" y="0.0" type="line"/>
      <point x="1251.5333333333333" y="0.0" type="line"/>
      <point x="1251.5333333333333" y="335.8333333333333" type="line"/>
      <point x="1157.3666666666668" y="284.8333333333333" type="line"/>
      <point x="1157.3666666666668" y="54.0" type="line"/>
      <point x="608.1666666666666" y="54.0" type="line"/>
      <point x="649.7" y="99.56666666666666"/>
      <point x="691.0333333333333" y="165.1"/>
      <point x="691.0333333333333" y="262.8333333333333" type="curve" smooth="yes"/>
      <point x="691.0333333333333" y="441.73333333333335"/>
      <point x="554.3666666666667" y="559.0"/>
      <point x="375.2" y="559.0" type="curve" smooth="yes"/>
      <point x="187.53333333333333" y="559.0"/>
      <point x="53.5" y="440.3666666666667"/>
      <point x="53.5" y="240.23333333333332" type="curve" smooth="yes"/>
      <point x="53.5" y="79.2"/>
      <point x="147.2" y="-4.366666666666666"/>
    </contour>
    <contour>
      <point x="939.0" y="-280.6" type="line"/>
      <point x="1031.8" y="-280.6" type="line"/>
      <point x="1031.8" y="433.46666666666664" type="line" smooth="yes"/>
      <point x="1031.8" y="507.76666666666665"/>
      <point x="981.4666666666667" y="559.0"/>
      <point x="906.3333333333334" y="559.0" type="curve" smooth="yes"/>
      <point x="817.1333333333333" y="559.0"/>
      <point x="767.3333333333334" y="503.0"/>
      <point x="767.3333333333334" y="415.0" type="curve" smooth="yes"/>
      <point x="767.3333333333334" y="285.1666666666667"/>
      <point x="855.4333333333334" y="218.73333333333332"/>
      <point x="976.9" y="218.73333333333332" type="curve" smooth="yes"/>
      <point x="1069.9666666666667" y="218.73333333333332"/>
      <point x="1154.8" y="237.33333333333334"/>
      <point x="1251.5333333333333" y="330.46666666666664" type="curve"/>
      <point x="1251.5333333333333" y="341.8333333333333" type="line"/>
      <point x="1214.9333333333334" y="369.2" type="line"/>
      <point x="1142.4333333333334" y="300.3666666666667"/>
      <point x="1071.6333333333334" y="271.3666666666667"/>
      <point x="977.8333333333334" y="271.3666666666667" type="curve" smooth="yes"/>
      <point x="883.0666666666667" y="271.3666666666667"/>
      <point x="820.8666666666667" y="307.0"/>
      <point x="820.8666666666667" y="414.0" type="curve" smooth="yes"/>
      <point x="820.8666666666667" y="466.6333333333333"/>
      <point x="842.8333333333334" y="502.8"/>
      <point x="885.9666666666667" y="502.8" type="curve" smooth="yes"/>
      <point x="918.2" y="502.8"/>
      <point x="939.0" y="482.9"/>
      <point x="939.0" y="445.0" type="curve" smooth="yes"/>
    </contour>
  </outline>
</glyph>
<glyph name="sa-tamil" format="2">
  <advance width="1286.1666666666667"/>
  <unicode hex="0BB8"/>
  <note>
uni0BB8
</note>
  <anchor x="645.9" y="0.0" name="bottom"/>
  <anchor x="645.9" y="0.0" name="nukta"/>
  <anchor x="630.2" y="554.0" name="top"/>
  <anchor x="643.6333333333333" y="554.0" name="vedic"/>
  <outline>
    <contour>
      <point x="583.6" y="0.0" type="line"/>
      <point x="676.7666666666667" y="0.0" type="line"/>
      <point x="676.7666666666667" y="409.1333333333333" type="line" smooth="yes"/>
      <point x="676.7666666666667" y="466.3"/>
      <point x="704.8333333333334" y="504.0"/>
      <point x="762.5" y="504.0" type="curve" smooth="yes"/>
      <point x="813.3666666666667" y="504.0"/>
      <point x="841.9666666666667" y="472.46666666666664"/>
      <point x="841.9666666666667" y="421.03333333333336" type="curve" smooth="yes"/>
      <point x="841.9666666666667" y="172.5" type="line" smooth="yes"/>
      <point x="841.9666666666667" y="58.233333333333334"/>
      <point x="913.9666666666667" y="0.0"/>
      <point x="1006.1" y="0.0" type="curve" smooth="yes"/>
      <point x="1145.8" y="0.0"/>
      <point x="1229.0333333333333" y="123.3"/>
      <point x="1229.0333333333333" y="279.0" type="curve" smooth="yes"/>
      <point x="1229.0333333333333" y="380.1333333333333"/>
      <point x="1200.7" y="472.1333333333333"/>
      <point x="1124.4333333333334" y="559.0" type="curve"/>
      <point x="1080.6" y="523.7666666666667" type="line"/>
      <point x="1144.9666666666667" y="450.3666666666667"/>
      <point x="1169.0666666666666" y="371.46666666666664"/>
      <point x="1169.0666666666666" y="289.0" type="curve" smooth="yes"/>
      <point x="1169.0666666666666" y="157.13333333333333"/>
      <point x="1108.6666666666667" y="59.0"/>
      <point x="1018.6666666666666" y="59.0" type="curve" smooth="yes"/>
      <point x="972.5" y="59.0"/>
      <point x="934.7666666666667" y="92.16666666666667"/>
      <point x="934.7666666666667" y="171.5" type="curve" smooth="yes"/>
      <point x="934.7666666666667" y="405.4" type="line" smooth="yes"/>
      <point x="934.7666666666667" y="503.1333333333333"/>
      <point x="868.3666666666667" y="559.0"/>
      <point x="777.9666666666667" y="559.0" type="curve" smooth="yes"/>
      <point x="677.3" y="559.0"/>
      <point x="625.4" y="492.3"/>
      <point x="625.4" y="415.5" type="curve" smooth="yes"/>
      <point x="625.4" y="335.1333333333333" type="line"/>
      <point x="583.6" y="335.1333333333333" type="line"/>
    </contour>
    <contour>
      <point x="256.9666666666667" y="-4.366666666666666" type="curve" smooth="yes"/>
      <point x="358.6333333333333" y="-4.366666666666666"/>
      <point x="423.6666666666667" y="58.9"/>
      <point x="423.6666666666667" y="150.73333333333332" type="curve" smooth="yes"/>
      <point x="423.6666666666667" y="243.1"/>
      <point x="368.6" y="303.6333333333333"/>
      <point x="281.93333333333334" y="303.6333333333333" type="curve" smooth="yes"/>
      <point x="188.33333333333334" y="303.6333333333333"/>
      <point x="119.53333333333333" y="223.13333333333333"/>
      <point x="114.36666666666667" y="121.8" type="curve"/>
      <point x="143.63333333333333" y="95.16666666666667" type="line"/>
      <point x="147.43333333333334" y="179.5"/>
      <point x="190.2" y="236.0"/>
      <point x="248.33333333333334" y="236.0" type="curve" smooth="yes"/>
      <point x="308.26666666666665" y="236.0"/>
      <point x="333.23333333333335" y="190.63333333333333"/>
      <point x="333.23333333333335" y="146.0" type="curve" smooth="yes"/>
      <point x="333.23333333333335" y="91.63333333333334"/>
      <point x="301.93333333333334" y="49.0"/>
      <point x="241.06666666666666" y="49.0" type="curve" smooth="yes"/>
      <point x="171.2" y="49.0"/>
      <point x="113.93333333333334" y="115.36666666666666"/>
      <point x="113.93333333333334" y="249.36666666666667" type="curve" smooth="yes"/>
      <point x="113.93333333333334" y="406.06666666666666"/>
      <point x="211.33333333333334" y="505.0"/>
      <point x="360.4" y="505.0" type="curve" smooth="yes"/>
      <point x="474.0" y="505.0"/>
      <point x="583.6" y="441.1333333333333"/>
      <point x="583.6" y="293.5" type="curve"/>
      <point x="641.0333333333333" y="298.5" type="line"/>
      <point x="637.1333333333333" y="475.5"/>
      <point x="507.1" y="559.0"/>
      <point x="362.6" y="559.0" type="curve" smooth="yes"/>
      <point x="181.36666666666667" y="559.0"/>
      <point x="57.13333333333333" y="442.43333333333334"/>
      <point x="57.13333333333333" y="250.36666666666667" type="curve" smooth="yes"/>
      <point x="57.13333333333333" y="83.0"/>
      <point x="147.93333333333334" y="-4.366666666666666"/>
    </contour>
  </outline>
</glyph>
<glyph name="ha-tamil" format="2">
  <advance width="1507.9"/>
  <unicode hex="0BB9"/>
  <note>
uni0BB9
</note>
  <anchor x="762.7" y="0.0" name="bottom"/>
  <anchor x="762.7" y="-152.0" name="nukta"/>
  <anchor x="770.2666666666667" y="554.0" name="top"/>
  <anchor x="752.3666666666667" y="554.0" name="vedic"/>
  <outline>
    <contour>
      <point x="204.86666666666667" y="-251.03333333333333" type="curve"/>
      <point x="204.86666666666667" y="-183.66666666666666"/>
      <point x="223.4" y="-144.3"/>
      <point x="309.43333333333334" y="-144.3" type="curve" smooth="yes"/>
      <point x="994.6333333333333" y="-144.3" type="line" smooth="yes"/>
      <point x="1289.3" y="-144.3"/>
      <point x="1450.4" y="-36.43333333333334"/>
      <point x="1450.4" y="236.5" type="curve" smooth="yes"/>
      <point x="1450.4" y="403.3"/>
      <point x="1391.4666666666667" y="559.0"/>
      <point x="1225.9333333333334" y="559.0" type="curve" smooth="yes"/>
      <point x="1141.1666666666667" y="559.0"/>
      <point x="1088.1666666666667" y="511.4"/>
      <point x="1069.1666666666667" y="475.03333333333336" type="curve"/>
      <point x="1055.8" y="509.76666666666665"/>
      <point x="1020.1" y="558.0"/>
      <point x="944.3333333333334" y="558.0" type="curve" smooth="yes"/>
      <point x="867.9333333333334" y="558.0"/>
      <point x="804.9" y="506.56666666666666"/>
      <point x="804.9" y="409.23333333333335" type="curve" smooth="yes"/>
      <point x="804.9" y="54.0" type="line"/>
      <point x="608.1666666666666" y="54.0" type="line"/>
      <point x="649.7" y="99.56666666666666"/>
      <point x="691.0333333333333" y="165.1"/>
      <point x="691.0333333333333" y="262.8333333333333" type="curve" smooth="yes"/>
      <point x="691.0333333333333" y="441.73333333333335"/>
      <point x="554.3666666666667" y="559.0"/>
      <point x="375.2" y="559.0" type="curve" smooth="yes"/>
      <point x="188.26666666666668" y="559.0"/>
      <point x="53.5" y="440.3666666666667"/>
      <point x="53.5" y="240.23333333333332" type="curve" smooth="yes"/>
      <point x="53.5" y="79.2"/>
      <point x="147.2" y="-4.366666666666666"/>
      <point x="254.06666666666666" y="-4.366666666666666" type="curve" smooth="yes"/>
      <point x="355.1" y="-4.366666666666666"/>
      <point x="419.76666666666665" y="58.9"/>
      <point x="419.76666666666665" y="150.73333333333332" type="curve" smooth="yes"/>
      <point x="419.76666666666665" y="243.1"/>
      <point x="364.7" y="303.6333333333333"/>
      <point x="278.4" y="303.6333333333333" type="curve" smooth="yes"/>
      <point x="185.06666666666666" y="303.6333333333333"/>
      <point x="115.9" y="223.13333333333333"/>
      <point x="110.73333333333333" y="121.8" type="curve"/>
      <point x="140.0" y="95.16666666666667" type="line"/>
      <point x="143.8" y="179.5"/>
      <point x="186.93333333333334" y="236.0"/>
      <point x="245.43333333333334" y="236.0" type="curve" smooth="yes"/>
      <point x="305.3666666666667" y="236.0"/>
      <point x="330.3333333333333" y="190.63333333333333"/>
      <point x="330.3333333333333" y="146.0" type="curve" smooth="yes"/>
      <point x="330.3333333333333" y="91.63333333333334"/>
      <point x="298.6666666666667" y="49.0"/>
      <point x="237.8" y="49.0" type="curve" smooth="yes"/>
      <point x="170.2" y="49.0"/>
      <point x="109.66666666666667" y="111.56666666666666"/>
      <point x="109.66666666666667" y="237.96666666666667" type="curve" smooth="yes"/>
      <point x="109.66666666666667" y="405.56666666666666"/>
      <point x="209.63333333333333" y="505.0"/>
      <point x="361.8333333333333" y="505.0" type="curve" smooth="yes"/>
      <point x="498.73333333333335" y="505.0"/>
      <point x="598.7" y="402.0"/>
      <point x="598.7" y="257.0" type="curve" smooth="yes"/>
      <point x="598.7" y="150.0"/>
      <point x="563.0" y="84.46666666666667"/>
      <point x="525.4" y="41.9" type="curve"/>
      <point x="541.9333333333334" y="0.0" type="line"/>
      <point x="864.0666666666667" y="0.0" type="line"/>
      <point x="864.0666666666667" y="408.8666666666667" type="line" smooth="yes"/>
      <point x="864.0666666666667" y="471.93333333333334"/>
      <point x="895.2" y="504.0"/>
      <point x="944.0666666666667" y="504.0" type="curve" smooth="yes"/>
      <point x="997.7333333333333" y="504.0"/>
      <point x="1026.7" y="462.76666666666665"/>
      <point x="1026.7" y="398.06666666666666" type="curve" smooth="yes"/>
      <point x="1026.7" y="0.0" type="line"/>
      <point x="1119.8666666666668" y="0.0" type="line"/>
      <point x="1119.8666666666668" y="397.06666666666666" type="line" smooth="yes"/>
      <point x="1119.8666666666668" y="463.46666666666664"/>
      <point x="1166.0666666666666" y="505.0"/>
      <point x="1222.0" y="505.0" type="curve" smooth="yes"/>
      <point x="1293.9666666666667" y="505.0"/>
      <point x="1355.8666666666668" y="443.6"/>
      <point x="1355.8666666666668" y="245.3" type="curve" smooth="yes"/>
      <point x="1355.8666666666668" y="-5.600000000000001"/>
      <point x="1240.5" y="-91.4"/>
      <point x="983.7666666666667" y="-91.4" type="curve" smooth="yes"/>
      <point x="275.06666666666666" y="-91.4" type="line" smooth="yes"/>
      <point x="194.03333333333333" y="-91.4"/>
      <point x="119.9" y="-109.03333333333333"/>
      <point x="119.9" y="-181.03333333333333" type="curve" smooth="yes"/>
      <point x="119.9" y="-230.03333333333333"/>
      <point x="151.26666666666668" y="-251.03333333333333"/>
    </contour>
  </outline>
</glyph>
<glyph name="aaMatra-tamil" format="2">
  <advance width="614.7666666666667"/>
  <unicode hex="0BBE"/>
  <note>
uni0BBE
</note>
  <anchor x="334.1333333333333" y="0.0" name="bottom"/>
  <anchor x="333.1333333333333" y="0.0" name="nukta"/>
  <anchor x="327.1333333333333" y="554.0" name="top"/>
  <anchor x="327.1333333333333" y="554.0" name="vedic"/>
  <outline>
    <contour>
      <point x="89.56666666666666" y="0.0" type="line"/>
      <point x="149.1" y="0.0" type="line"/>
      <point x="149.1" y="500.0" type="line"/>
      <point x="346.6666666666667" y="500.0" type="line"/>
      <point x="346.6666666666667" y="0.0" type="line"/>
      <point x="439.2" y="0.0" type="line"/>
      <point x="439.2" y="500.0" type="line"/>
      <point x="594.3" y="500.0" type="line"/>
      <point x="594.3" y="554.0" type="line"/>
      <point x="89.56666666666666" y="554.0" type="line"/>
    </contour>
  </outline>
</glyph>
<glyph name="iMatra-tamil" format="2">
  <advance width="209.26666666666668"/>
  <unicode hex="0BBF"/>
  <note>
uni0BBF
</note>
  <anchor x="-109.26666666666667" y="827.0333333333333" name="top"/>
  <outline>
    <contour>
      <point x="62.36666666666667" y="0.0" type="line"/>
      <point x="121.16666666666667" y="0.0" type="line"/>
      <point x="121.16666666666667" y="568.9" type="line" smooth="yes"/>
      <point x="121.16666666666667" y="734.9"/>
      <point x="32.733333333333334" y="827.0333333333333"/>
      <point x="-109.26666666666667" y="827.0333333333333" type="curve" smooth="yes"/>
      <point x="-225.4" y="827.0333333333333"/>
      <point x="-308.4" y="753.0333333333333"/>
      <point x="-308.4" y="648.7" type="curve" smooth="yes"/>
      <point x="-308.4" y="559.7"/>
      <point x="-248.46666666666667" y="500.0"/>
      <point x="-166.46666666666667" y="500.0" type="curve" smooth="yes"/>
      <point x="-161.46666666666667" y="500.0" type="line"/>
      <point x="-161.46666666666667" y="554.0" type="line"/>
      <point x="-166.46666666666667" y="554.0" type="line" smooth="yes"/>
      <point x="-212.8" y="554.0"/>
      <point x="-245.6" y="584.4333333333333"/>
      <point x="-245.6" y="635.3333333333334" type="curve" smooth="yes"/>
      <point x="-245.6" y="702.4"/>
      <point x="-190.1" y="739.4"/>
      <point x="-114.8" y="739.4" type="curve" smooth="yes"/>
      <point x="0.36666666666666714" y="739.4"/>
      <point x="62.36666666666667" y="676.9"/>
      <point x="62.36666666666667" y="538.9" type="curve" smooth="yes"/>
    </contour>
  </outline>
</glyph>
<glyph name="iiMatra-tamil" format="2">
  <unicode hex="0BC0"/>
  <note>
uni0BC0
</note>
  <anchor x="0.0" y="554.0" name="_imatra"/>
  <anchor x="6.866666666666667" y="882.0" name="top"/>
  <outline>
    <contour>
      <point x="-23.633333333333333" y="505.0" type="curve" smooth="yes"/>
      <point x="0.0" y="505.0" type="line"/>
      <point x="0.0" y="554.0" type="line"/>
      <point x="-22.533333333333335" y="554.0" type="line" smooth="yes"/>
      <point x="-91.23333333333333" y="554.0"/>
      <point x="-143.33333333333334" y="604.0"/>
      <point x="-143.33333333333334" y="684.0" type="curve" smooth="yes"/>
      <point x="-143.33333333333334" y="770.0"/>
      <point x="-96.86666666666667" y="828.0"/>
      <point x="2.5" y="828.0" type="curve" smooth="yes"/>
      <point x="70.16666666666667" y="828.0"/>
      <point x="114.56666666666666" y="792.0"/>
      <point x="114.56666666666666" y="730.0" type="curve" smooth="yes"/>
      <point x="114.56666666666666" y="685.5333333333333"/>
      <point x="85.96666666666667" y="656.0"/>
      <point x="45.36666666666667" y="656.0" type="curve" smooth="yes"/>
      <point x="-37.166666666666664" y="656.0"/>
      <point x="-54.766666666666666" y="756.0"/>
      <point x="-9.266666666666667" y="851.0" type="curve"/>
      <point x="-51.9" y="855.0" type="line"/>
      <point x="-118.93333333333334" y="729.0"/>
      <point x="-73.16666666666667" y="602.0"/>
      <point x="57.9" y="602.0" type="curve" smooth="yes"/>
      <point x="139.5" y="602.0"/>
      <point x="194.63333333333333" y="657.8333333333334"/>
      <point x="194.63333333333333" y="726.1" type="curve" smooth="yes"/>
      <point x="194.63333333333333" y="820.2"/>
      <point x="122.6" y="882.0"/>
      <point x="6.866666666666667" y="882.0" type="curve" smooth="yes"/>
      <point x="-118.5" y="882.0"/>
      <point x="-199.86666666666667" y="801.1"/>
      <point x="-199.86666666666667" y="685.0" type="curve" smooth="yes"/>
      <point x="-199.86666666666667" y="576.0"/>
      <point x="-122.6" y="505.0"/>
    </contour>
  </outline>
</glyph>
<glyph name="uuMatra-tamil" format="2">
  <advance width="823.4333333333334"/>
  <unicode hex="0BC2"/>
  <note>
uni0BC2
</note>
  <anchor x="440.6" y="780.0" name="top"/>
  <outline>
    <contour>
      <point x="362.8" y="0.0" type="curve" smooth="yes"/>
      <point x="623.7666666666667" y="0.0"/>
      <point x="775.5333333333333" y="169.0"/>
      <point x="775.5333333333333" y="411.0" type="curve" smooth="yes"/>
      <point x="775.5333333333333" y="601.0"/>
      <point x="651.0" y="780.0"/>
      <point x="440.6" y="780.0" type="curve" smooth="yes"/>
      <point x="241.4" y="780.0"/>
      <point x="157.33333333333334" y="648.3666666666667"/>
      <point x="157.33333333333334" y="524.1" type="curve" smooth="yes"/>
      <point x="157.33333333333334" y="392.3666666666667" type="line" smooth="yes"/>
      <point x="157.33333333333334" y="276.6666666666667"/>
      <point x="222.1" y="214.0"/>
      <point x="324.9" y="214.0" type="curve" smooth="yes"/>
      <point x="417.0" y="214.0"/>
      <point x="490.7" y="272.4"/>
      <point x="490.7" y="377.5" type="curve" smooth="yes"/>
      <point x="490.7" y="554.0" type="line"/>
      <point x="-238.23333333333335" y="554.0" type="line"/>
      <point x="-199.96666666666667" y="500.0" type="line"/>
      <point x="398.53333333333336" y="500.0" type="line"/>
      <point x="398.53333333333336" y="369.23333333333335" type="line" smooth="yes"/>
      <point x="398.53333333333336" y="309.3333333333333"/>
      <point x="361.76666666666665" y="269.1"/>
      <point x="307.73333333333335" y="269.1" type="curve" smooth="yes"/>
      <point x="245.26666666666665" y="269.1"/>
      <point x="216.13333333333333" y="311.4"/>
      <point x="216.13333333333333" y="388.1" type="curve" smooth="yes"/>
      <point x="216.13333333333333" y="524.1" type="line" smooth="yes"/>
      <point x="216.13333333333333" y="630.3666666666667"/>
      <point x="287.2" y="727.0"/>
      <point x="424.43333333333334" y="727.0" type="curve" smooth="yes"/>
      <point x="616.8" y="727.0"/>
      <point x="682.0" y="570.0"/>
      <point x="682.0" y="425.0" type="curve" smooth="yes"/>
      <point x="682.0" y="213.7"/>
      <point x="590.5" y="54.0"/>
      <point x="363.06666666666666" y="54.0" type="curve" smooth="yes"/>
      <point x="250.86666666666667" y="54.0"/>
      <point x="150.96666666666667" y="96.33333333333333"/>
      <point x="78.03333333333333" y="204.16666666666666" type="curve"/>
      <point x="37.2" y="172.8" type="line"/>
      <point x="115.4" y="62.333333333333336"/>
      <point x="221.96666666666667" y="0.0"/>
    </contour>
  </outline>
</glyph>
<glyph name="eMatra-tamil" format="2">
  <advance width="794.0333333333333"/>
  <unicode hex="0BC6"/>
  <note>
uni0BC6
</note>
  <outline>
    <contour>
      <point x="316.43333333333334" y="-4.366666666666666" type="curve" smooth="yes"/>
      <point x="417.4666666666667" y="-4.366666666666666"/>
      <point x="482.1333333333333" y="58.9"/>
      <point x="482.1333333333333" y="151.83333333333334" type="curve" smooth="yes"/>
      <point x="482.1333333333333" y="248.1"/>
      <point x="427.06666666666666" y="308.6333333333333"/>
      <point x="337.23333333333335" y="308.6333333333333" type="curve" smooth="yes"/>
      <point x="241.1" y="308.6333333333333"/>
      <point x="167.3" y="223.5"/>
      <point x="165.3" y="105.23333333333333" type="curve"/>
      <point x="195.66666666666666" y="78.6" type="line"/>
      <point x="196.3" y="179.86666666666667"/>
      <point x="242.96666666666667" y="241.0"/>
      <point x="304.6333333333333" y="241.0" type="curve" smooth="yes"/>
      <point x="367.3666666666667" y="241.0"/>
      <point x="392.06666666666666" y="195.63333333333333"/>
      <point x="392.06666666666666" y="146.73333333333332" type="curve" smooth="yes"/>
      <point x="392.06666666666666" y="91.63333333333334"/>
      <point x="360.4" y="49.0"/>
      <point x="299.53333333333336" y="49.0" type="curve" smooth="yes"/>
      <point x="151.73333333333332" y="49.0"/>
      <point x="114.66666666666667" y="233.9"/>
      <point x="114.66666666666667" y="379.3" type="curve" smooth="yes"/>
      <point x="114.66666666666667" y="598.6333333333333"/>
      <point x="221.13333333333333" y="733.8666666666667"/>
      <point x="407.56666666666666" y="733.8666666666667" type="curve" smooth="yes"/>
      <point x="574.3666666666667" y="733.8666666666667"/>
      <point x="647.1333333333333" y="649.2666666666667"/>
      <point x="647.1333333333333" y="450.76666666666665" type="curve" smooth="yes"/>
      <point x="647.1333333333333" y="0.0" type="line"/>
      <point x="705.9333333333334" y="0.0" type="line"/>
      <point x="705.9333333333334" y="457.0" type="line" smooth="yes"/>
      <point x="705.9333333333334" y="703.1333333333333"/>
      <point x="607.6333333333333" y="823.8666666666667"/>
      <point x="411.2" y="823.8666666666667" type="curve" smooth="yes"/>
      <point x="192.93333333333334" y="823.8666666666667"/>
      <point x="57.86666666666667" y="637.7333333333333"/>
      <point x="57.86666666666667" y="388.0" type="curve" smooth="yes"/>
      <point x="57.86666666666667" y="215.7"/>
      <point x="118.2" y="-4.366666666666666"/>
    </contour>
  </outline>
</glyph>
<glyph name="eeMatra-tamil" format="2">
  <advance width="588.9"/>
  <unicode hex="0BC7"/>
  <note>
uni0BC7
</note>
  <outline>
    <contour>
      <point x="367.1" y="-5.0" type="curve" smooth="yes"/>
      <point x="468.76666666666665" y="-5.0"/>
      <point x="537.4666666666667" y="55.7"/>
      <point x="537.4666666666667" y="151.83333333333334" type="curve" smooth="yes"/>
      <point x="537.4666666666667" y="251.9"/>
      <point x="481.1333333333333" y="309.9"/>
      <point x="392.56666666666666" y="309.9" type="curve" smooth="yes"/>
      <point x="298.5" y="309.9"/>
      <point x="223.36666666666667" y="225.73333333333335"/>
      <point x="219.36666666666667" y="95.63333333333334" type="curve"/>
      <point x="252.2" y="71.53333333333333" type="line"/>
      <point x="256.3666666666667" y="186.8"/>
      <point x="302.1" y="242.26666666666668"/>
      <point x="362.1333333333333" y="242.26666666666668" type="curve" smooth="yes"/>
      <point x="422.06666666666666" y="242.26666666666668"/>
      <point x="447.03333333333336" y="196.9"/>
      <point x="447.03333333333336" y="146.73333333333332" type="curve" smooth="yes"/>
      <point x="447.03333333333336" y="88.43333333333334"/>
      <point x="411.3333333333333" y="49.0"/>
      <point x="350.4666666666667" y="49.0" type="curve" smooth="yes"/>
      <point x="237.7" y="49.0"/>
      <point x="114.66666666666667" y="193.63333333333333"/>
      <point x="114.66666666666667" y="409.06666666666666" type="curve" smooth="yes"/>
      <point x="114.66666666666667" y="624.7666666666667"/>
      <point x="237.7" y="770.2333333333333"/>
      <point x="350.4666666666667" y="770.2333333333333" type="curve" smooth="yes"/>
      <point x="411.3333333333333" y="770.2333333333333"/>
      <point x="447.03333333333336" y="730.4333333333333"/>
      <point x="447.03333333333336" y="672.1333333333333" type="curve" smooth="yes"/>
      <point x="447.03333333333336" y="621.9666666666667"/>
      <point x="422.06666666666666" y="576.9666666666667"/>
      <point x="362.1333333333333" y="576.9666666666667" type="curve" smooth="yes"/>
      <point x="302.1" y="576.9666666666667"/>
      <point x="256.3666666666667" y="632.7"/>
      <point x="252.2" y="747.7" type="curve"/>
      <point x="219.36666666666667" y="724.2333333333333" type="line"/>
      <point x="223.36666666666667" y="593.5"/>
      <point x="298.5" y="509.6"/>
      <point x="392.56666666666666" y="509.6" type="curve" smooth="yes"/>
      <point x="481.1333333333333" y="509.6"/>
      <point x="537.4666666666667" y="567.3333333333334"/>
      <point x="537.4666666666667" y="667.4" type="curve" smooth="yes"/>
      <point x="537.4666666666667" y="763.1666666666666"/>
      <point x="468.76666666666665" y="823.8666666666667"/>
      <point x="367.1" y="823.8666666666667" type="curve" smooth="yes"/>
      <point x="207.56666666666666" y="823.8666666666667"/>
      <point x="57.86666666666667" y="656.2"/>
      <point x="57.86666666666667" y="409.8" type="curve" smooth="yes"/>
      <point x="57.86666666666667" y="163.4"/>
      <point x="207.56666666666666" y="-5.0"/>
    </contour>
  </outline>
</glyph>
<glyph name="aiMatra-tamil" format="2">
  <advance width="1187.6666666666667"/>
  <unicode hex="0BC8"/>
  <note>
uni0BC8
</note>
  <outline>
    <contour>
      <point x="967.3" y="-6.1" type="line"/>
      <point x="1077.3666666666668" y="47.86666666666667"/>
      <point x="1134.8" y="145.13333333333333"/>
      <point x="1134.8" y="264.03333333333336" type="curve" smooth="yes"/>
      <point x="1134.8" y="444.8"/>
      <point x="1008.7666666666667" y="559.0"/>
      <point x="821.1333333333333" y="559.0" type="curve" smooth="yes"/>
      <point x="610.1666666666666" y="559.0"/>
      <point x="486.6" y="397.1"/>
      <point x="486.6" y="199.3" type="curve" smooth="yes"/>
      <point x="486.6" y="76.46666666666667"/>
      <point x="542.3666666666667" y="-5.0"/>
      <point x="645.7333333333333" y="-5.0" type="curve" smooth="yes"/>
      <point x="747.8333333333334" y="-5.0"/>
      <point x="815.7" y="71.13333333333334"/>
      <point x="815.7" y="190.33333333333334" type="curve" smooth="yes"/>
      <point x="815.7" y="407.96666666666664"/>
      <point x="642.8" y="559.0"/>
      <point x="414.7" y="559.0" type="curve" smooth="yes"/>
      <point x="222.13333333333333" y="559.0"/>
      <point x="53.5" y="448.6666666666667"/>
      <point x="53.5" y="240.23333333333332" type="curve" smooth="yes"/>
      <point x="53.5" y="79.2"/>
      <point x="146.83333333333334" y="-4.366666666666666"/>
      <point x="253.33333333333334" y="-4.366666666666666" type="curve" smooth="yes"/>
      <point x="354.3666666666667" y="-4.366666666666666"/>
      <point x="419.4" y="58.9"/>
      <point x="419.4" y="150.73333333333332" type="curve" smooth="yes"/>
      <point x="419.4" y="243.1"/>
      <point x="364.3333333333333" y="303.6333333333333"/>
      <point x="277.6666666666667" y="303.6333333333333" type="curve" smooth="yes"/>
      <point x="184.7" y="303.6333333333333"/>
      <point x="115.9" y="223.13333333333333"/>
      <point x="110.73333333333333" y="121.8" type="curve"/>
      <point x="140.0" y="95.16666666666667" type="line"/>
      <point x="143.8" y="179.5"/>
      <point x="186.56666666666666" y="236.0"/>
      <point x="244.7" y="236.0" type="curve" smooth="yes"/>
      <point x="304.6333333333333" y="236.0"/>
      <point x="329.6" y="190.63333333333333"/>
      <point x="329.6" y="146.0" type="curve" smooth="yes"/>
      <point x="329.6" y="91.63333333333334"/>
      <point x="298.3" y="49.0"/>
      <point x="237.43333333333334" y="49.0" type="curve" smooth="yes"/>
      <point x="169.46666666666667" y="49.0"/>
      <point x="109.66666666666667" y="111.56666666666666"/>
      <point x="109.66666666666667" y="237.96666666666667" type="curve" smooth="yes"/>
      <point x="109.66666666666667" y="411.03333333333336"/>
      <point x="242.6" y="505.0"/>
      <point x="404.0" y="505.0" type="curve" smooth="yes"/>
      <point x="595.8" y="505.0"/>
      <point x="720.6333333333333" y="395.3333333333333"/>
      <point x="720.6333333333333" y="190.96666666666667" type="curve" smooth="yes"/>
      <point x="720.6333333333333" y="105.66666666666667"/>
      <point x="691.5666666666667" y="49.0"/>
      <point x="629.9333333333334" y="49.0" type="curve" smooth="yes"/>
      <point x="570.6666666666666" y="49.0"/>
      <point x="541.8666666666667" y="108.1"/>
      <point x="541.8666666666667" y="195.3" type="curve" smooth="yes"/>
      <point x="541.8666666666667" y="360.73333333333335"/>
      <point x="631.0" y="505.0"/>
      <point x="810.0666666666667" y="505.0" type="curve" smooth="yes"/>
      <point x="952.1" y="505.0"/>
      <point x="1041.7333333333333" y="409.5"/>
      <point x="1041.7333333333333" y="251.86666666666667" type="curve" smooth="yes"/>
      <point x="1041.7333333333333" y="164.46666666666667"/>
      <point x="1011.5" y="87.33333333333333"/>
      <point x="943.1" y="31.433333333333334" type="curve"/>
    </contour>
  </outline>
</glyph>
<glyph name="halant-tamil" format="2">
  <unicode hex="0BCD"/>
  <note>
uni0BCD
</note>
  <anchor x="0.0" y="554.0" name="_top"/>
  <outline>
    <contour>
      <point x="0.0" y="632.6" type="curve" smooth="yes"/>
      <point x="32.9" y="632.6"/>
      <point x="59.166666666666664" y="659.5"/>
      <point x="59.166666666666664" y="690.4" type="curve" smooth="yes"/>
      <point x="59.166666666666664" y="721.3"/>
      <point x="32.9" y="748.5666666666667"/>
      <point x="0.0" y="748.5666666666667" type="curve" smooth="yes"/>
      <point x="-32.9" y="748.5666666666667"/>
      <point x="-59.166666666666664" y="721.3"/>
      <point x="-59.166666666666664" y="690.4" type="curve" smooth="yes"/>
      <point x="-59.166666666666664" y="659.5"/>
      <point x="-32.9" y="632.6"/>
    </contour>
  </outline>
</glyph>
<glyph name="om-tamil" format="2">
  <advance width="919.2333333333333"/>
  <unicode hex="0BD0"/>
  <note>
uni0BD0
</note>
  <outline>
    <contour>
      <point x="330.23333333333335" y="-372.23333333333335" type="curve" smooth="yes"/>
      <point x="571.4" y="-372.23333333333335"/>
      <point x="580.9" y="-141.96666666666667"/>
      <point x="715.0333333333333" y="-141.96666666666667" type="curve" smooth="yes"/>
      <point x="766.6666666666666" y="-141.96666666666667" type="line"/>
      <point x="766.6666666666666" y="-88.6" type="line"/>
      <point x="711.3666666666667" y="-88.6" type="line" smooth="yes"/>
      <point x="576.0666666666667" y="-88.6"/>
      <point x="461.0" y="49.06666666666667"/>
      <point x="562.9666666666667" y="200.3" type="curve"/>
      <point x="568.3333333333334" y="196.66666666666666" type="line"/>
      <point x="534.6666666666666" y="103.5"/>
      <point x="567.7" y="-5.0"/>
      <point x="689.7" y="-5.0" type="curve" smooth="yes"/>
      <point x="788.1666666666666" y="-5.0"/>
      <point x="866.3666666666667" y="75.33333333333333"/>
      <point x="866.3666666666667" y="198.06666666666666" type="curve" smooth="yes"/>
      <point x="866.3666666666667" y="422.6333333333333"/>
      <point x="669.2333333333333" y="559.0"/>
      <point x="436.73333333333335" y="559.0" type="curve" smooth="yes"/>
      <point x="227.8" y="559.0"/>
      <point x="53.5" y="430.8666666666667"/>
      <point x="53.5" y="240.3" type="curve" smooth="yes"/>
      <point x="53.5" y="85.33333333333333"/>
      <point x="145.3" y="5.0"/>
      <point x="253.43333333333334" y="5.0" type="curve" smooth="yes"/>
      <point x="355.1" y="5.0"/>
      <point x="419.76666666666665" y="68.26666666666667"/>
      <point x="419.76666666666665" y="160.73333333333332" type="curve" smooth="yes"/>
      <point x="419.76666666666665" y="253.1"/>
      <point x="364.7" y="313.0"/>
      <point x="278.4" y="313.0" type="curve" smooth="yes"/>
      <point x="184.43333333333334" y="313.0"/>
      <point x="115.26666666666667" y="229.46666666666667"/>
      <point x="110.1" y="127.5" type="curve"/>
      <point x="139.36666666666667" y="100.86666666666667" type="line"/>
      <point x="142.8" y="185.2"/>
      <point x="186.3" y="246.0"/>
      <point x="245.43333333333334" y="246.0" type="curve" smooth="yes"/>
      <point x="304.73333333333335" y="246.0"/>
      <point x="329.7" y="200.63333333333333"/>
      <point x="329.7" y="156.0" type="curve" smooth="yes"/>
      <point x="329.7" y="101.63333333333334"/>
      <point x="298.03333333333336" y="59.0"/>
      <point x="237.16666666666666" y="59.0" type="curve" smooth="yes"/>
      <point x="168.93333333333334" y="59.0"/>
      <point x="109.66666666666667" y="117.96666666666667"/>
      <point x="109.66666666666667" y="238.03333333333333" type="curve" smooth="yes"/>
      <point x="109.66666666666667" y="399.1"/>
      <point x="263.1666666666667" y="505.0"/>
      <point x="438.26666666666665" y="505.0" type="curve" smooth="yes"/>
      <point x="628.3" y="505.0"/>
      <point x="773.9333333333334" y="399.06666666666666"/>
      <point x="773.9333333333334" y="208.06666666666666" type="curve" smooth="yes"/>
      <point x="773.9333333333334" y="116.33333333333333"/>
      <point x="736.0666666666667" y="48.36666666666667"/>
      <point x="674.5" y="48.36666666666667" type="curve" smooth="yes"/>
      <point x="589.6" y="48.36666666666667"/>
      <point x="584.4666666666667" y="160.56666666666666"/>
      <point x="640.9" y="256.7" type="curve"/>
      <point x="581.9666666666667" y="294.46666666666664" type="line"/>
      <point x="412.93333333333334" y="128.53333333333333"/>
      <point x="472.53333333333336" y="-52.96666666666667"/>
      <point x="605.4333333333334" y="-110.96666666666667" type="curve"/>
      <point x="605.4333333333334" y="-115.96666666666667" type="line"/>
      <point x="497.4666666666667" y="-136.96666666666667"/>
      <point x="505.3666666666667" y="-309.06666666666666"/>
      <point x="302.4666666666667" y="-309.06666666666666" type="curve" smooth="yes"/>
      <point x="211.73333333333335" y="-309.06666666666666"/>
      <point x="147.96666666666667" y="-263.73333333333335"/>
      <point x="166.66666666666666" y="-167.8" type="curve"/>
      <point x="112.23333333333333" y="-156.9" type="line"/>
      <point x="84.26666666666667" y="-303.56666666666666"/>
      <point x="207.96666666666667" y="-372.23333333333335"/>
    </contour>
    <contour>
      <point x="216.06666666666666" y="-240.36666666666667" type="line"/>
      <point x="258.23333333333335" y="-240.36666666666667" type="line"/>
      <point x="258.23333333333335" y="-88.36666666666667" type="line"/>
      <point x="216.06666666666666" y="-88.36666666666667" type="line"/>
    </contour>
    <contour>
      <point x="232.86666666666667" y="-240.36666666666667" type="line"/>
      <point x="408.8333333333333" y="-240.36666666666667" type="line"/>
      <point x="408.8333333333333" y="-201.1" type="line"/>
      <point x="232.86666666666667" y="-201.1" type="line"/>
    </contour>
    <contour>
      <point x="301.9" y="-240.36666666666667" type="line"/>
      <point x="341.43333333333334" y="-240.36666666666667" type="line"/>
      <point x="341.43333333333334" y="-150.16666666666666" type="line" smooth="yes"/>
      <point x="341.43333333333334" y="-134.63333333333333"/>
      <point x="348.3333333333333" y="-125.0"/>
      <point x="364.76666666666665" y="-125.0" type="curve" smooth="yes"/>
      <point x="381.4666666666667" y="-125.0"/>
      <point x="387.73333333333335" y="-134.63333333333333"/>
      <point x="387.73333333333335" y="-150.16666666666666" type="curve" smooth="yes"/>
      <point x="387.73333333333335" y="-240.36666666666667" type="line"/>
      <point x="430.6333333333333" y="-240.36666666666667" type="line"/>
      <point x="430.6333333333333" y="-155.7" type="line" smooth="yes"/>
      <point x="430.6333333333333" y="-101.46666666666667"/>
      <point x="397.6666666666667" y="-86.0"/>
      <point x="364.76666666666665" y="-86.0" type="curve" smooth="yes"/>
      <point x="332.23333333333335" y="-86.0"/>
      <point x="301.9" y="-101.46666666666667"/>
      <point x="301.9" y="-155.7" type="curve" smooth="yes"/>
    </contour>
    <contour>
      <point x="318.53333333333336" y="-73.66666666666667" type="curve" smooth="yes"/>
      <point x="336.43333333333334" y="-73.66666666666667"/>
      <point x="350.7" y="-58.766666666666666"/>
      <point x="350.7" y="-42.5" type="curve" smooth="yes"/>
      <point x="350.7" y="-26.866666666666667"/>
      <point x="336.43333333333334" y="-11.966666666666667"/>
      <point x="318.53333333333336" y="-11.966666666666667" type="curve" smooth="yes"/>
      <point x="300.6333333333333" y="-11.966666666666667"/>
      <point x="286.3666666666667" y="-26.866666666666667"/>
      <point x="286.3666666666667" y="-42.5" type="curve" smooth="yes"/>
      <point x="286.3666666666667" y="-58.766666666666666"/>
      <point x="300.6333333333333" y="-73.66666666666667"/>
    </contour>
  </outline>
</glyph>
<glyph name="zero-tamil" format="2">
  <advance width="566.8333333333334"/>
  <unicode hex="0BE6"/>
  <note>
uni0BE6
</note>
  <outline>
    <contour>
      <point x="286.3" y="-5.0" type="curve" smooth="yes"/>
      <point x="420.8666666666667" y="-5.0"/>
      <point x="513.2333333333333" y="103.33333333333333"/>
      <point x="513.2333333333333" y="277.0" type="curve" smooth="yes"/>
      <point x="513.2333333333333" y="445.6666666666667"/>
      <point x="422.3333333333333" y="559.0"/>
      <point x="287.03333333333336" y="559.0" type="curve" smooth="yes"/>
      <point x="137.96666666666667" y="559.0"/>
      <point x="54.233333333333334" y="442.6666666666667"/>
      <point x="54.233333333333334" y="277.0" type="curve" smooth="yes"/>
      <point x="54.233333333333334" y="111.33333333333333"/>
      <point x="137.23333333333335" y="-5.0"/>
    </contour>
    <contour>
      <point x="268.76666666666665" y="58.56666666666666" type="curve" smooth="yes"/>
      <point x="162.86666666666667" y="58.56666666666666"/>
      <point x="114.13333333333334" y="156.1"/>
      <point x="114.13333333333334" y="277.0" type="curve" smooth="yes"/>
      <point x="114.13333333333334" y="392.9"/>
      <point x="162.86666666666667" y="495.43333333333334"/>
      <point x="268.76666666666665" y="495.43333333333334" type="curve" smooth="yes"/>
      <point x="368.03333333333336" y="495.43333333333334"/>
      <point x="419.8" y="412.9"/>
      <point x="419.8" y="277.0" type="curve" smooth="yes"/>
      <point x="419.8" y="136.1"/>
      <point x="366.56666666666666" y="58.56666666666666"/>
    </contour>
  </outline>
</glyph>
<glyph name="one-tamil" format="2">
  <advance width="780.6333333333333"/>
  <unicode hex="0BE7"/>
  <note>
uni0BE7
</note>
  <outline>
    <contour>
      <point x="253.8" y="-4.633333333333334" type="curve" smooth="yes"/>
      <point x="392.53333333333336" y="-4.633333333333334"/>
      <point x="470.0" y="75.23333333333333"/>
      <point x="470.0" y="200.0" type="curve" smooth="yes"/>
      <point x="470.0" y="263.0" type="line"/>
      <point x="509.03333333333336" y="263.0" type="line" smooth="yes"/>
      <point x="581.7666666666667" y="263.0"/>
      <point x="631.0666666666667" y="229.0"/>
      <point x="631.0666666666667" y="154.0" type="curve" smooth="yes"/>
      <point x="631.0666666666667" y="89.7"/>
      <point x="591.1" y="51.0"/>
      <point x="536.8" y="51.0" type="curve" smooth="yes"/>
      <point x="491.03333333333336" y="51.0"/>
      <point x="454.1" y="72.16666666666667"/>
      <point x="421.5" y="108.8" type="curve"/>
      <point x="391.6" y="66.5" type="line"/>
      <point x="437.3666666666667" y="18.066666666666666"/>
      <point x="484.03333333333336" y="-5.0"/>
      <point x="551.0666666666667" y="-5.0" type="curve" smooth="yes"/>
      <point x="645.9" y="-5.0"/>
      <point x="723.5" y="50.7"/>
      <point x="723.5" y="151.0" type="curve" smooth="yes"/>
      <point x="723.5" y="259.0"/>
      <point x="640.5666666666667" y="317.0"/>
      <point x="508.03333333333336" y="317.0" type="curve" smooth="yes"/>
      <point x="470.0" y="317.0" type="line"/>
      <point x="470.0" y="500.0" type="line"/>
      <point x="624.8333333333334" y="500.0" type="line"/>
      <point x="624.8333333333334" y="554.0" type="line"/>
      <point x="177.4" y="554.0" type="line"/>
      <point x="177.4" y="286.0" type="line"/>
      <point x="236.2" y="286.0" type="line"/>
      <point x="236.2" y="500.0" type="line"/>
      <point x="376.8333333333333" y="500.0" type="line"/>
      <point x="376.8333333333333" y="317.0" type="line"/>
      <point x="223.26666666666668" y="317.0" type="line" smooth="yes"/>
      <point x="124.16666666666667" y="317.0"/>
      <point x="57.13333333333333" y="259.1666666666667"/>
      <point x="57.13333333333333" y="161.36666666666667" type="curve" smooth="yes"/>
      <point x="57.13333333333333" y="61.733333333333334"/>
      <point x="138.2" y="-4.633333333333334"/>
    </contour>
    <contour>
      <point x="245.43333333333334" y="49.0" type="curve" smooth="yes"/>
      <point x="170.4" y="49.0"/>
      <point x="117.66666666666667" y="86.73333333333333"/>
      <point x="117.66666666666667" y="160.0" type="curve" smooth="yes"/>
      <point x="117.66666666666667" y="223.63333333333333"/>
      <point x="157.23333333333335" y="263.0"/>
      <point x="227.73333333333335" y="263.0" type="curve" smooth="yes"/>
      <point x="376.8333333333333" y="263.0" type="line"/>
      <point x="376.8333333333333" y="189.0" type="line" smooth="yes"/>
      <point x="376.8333333333333" y="89.8"/>
      <point x="316.9" y="49.0"/>
    </contour>
  </outline>
</glyph>
<glyph name="two-tamil" format="2">
  <advance width="856.9333333333334"/>
  <unicode hex="0BE8"/>
  <note>
uni0BE8
</note>
  <outline>
    <contour>
      <point x="147.03333333333333" y="0.0" type="curve" smooth="yes"/>
      <point x="838.4666666666667" y="0.0" type="line"/>
      <point x="838.4666666666667" y="54.0" type="line"/>
      <point x="143.06666666666666" y="54.0" type="line" smooth="yes"/>
      <point x="122.8" y="54.0"/>
      <point x="104.43333333333334" y="69.0"/>
      <point x="104.43333333333334" y="94.0" type="curve" smooth="yes"/>
      <point x="104.43333333333334" y="120.0"/>
      <point x="122.8" y="135.0"/>
      <point x="143.06666666666666" y="135.0" type="curve" smooth="yes"/>
      <point x="359.3333333333333" y="135.0" type="line" smooth="yes"/>
      <point x="489.9666666666667" y="135.0"/>
      <point x="598.0666666666667" y="210.53333333333333"/>
      <point x="598.0666666666667" y="337.46666666666664" type="curve" smooth="yes"/>
      <point x="598.0666666666667" y="484.46666666666664"/>
      <point x="476.2" y="559.0"/>
      <point x="340.6333333333333" y="559.0" type="curve" smooth="yes"/>
      <point x="209.46666666666667" y="559.0"/>
      <point x="105.36666666666667" y="490.0"/>
      <point x="105.36666666666667" y="347.0" type="curve" smooth="yes"/>
      <point x="105.36666666666667" y="208.0"/>
      <point x="219.9" y="149.0"/>
      <point x="342.8666666666667" y="149.0" type="curve"/>
      <point x="342.8666666666667" y="188.0" type="line"/>
      <point x="227.26666666666668" y="188.0"/>
      <point x="164.36666666666667" y="247.0"/>
      <point x="164.36666666666667" y="347.0" type="curve" smooth="yes"/>
      <point x="164.36666666666667" y="450.0"/>
      <point x="232.36666666666667" y="505.0"/>
      <point x="334.6333333333333" y="505.0" type="curve" smooth="yes"/>
      <point x="431.1" y="505.0"/>
      <point x="505.26666666666665" y="450.3666666666667"/>
      <point x="505.26666666666665" y="347.0" type="curve" smooth="yes"/>
      <point x="505.26666666666665" y="250.6"/>
      <point x="445.5" y="188.0"/>
      <point x="343.5" y="188.0" type="curve" smooth="yes"/>
      <point x="147.03333333333333" y="188.0" type="line" smooth="yes"/>
      <point x="89.63333333333334" y="188.0"/>
      <point x="48.63333333333333" y="154.0"/>
      <point x="48.63333333333333" y="94.0" type="curve" smooth="yes"/>
      <point x="48.63333333333333" y="35.0"/>
      <point x="89.63333333333334" y="0.0"/>
    </contour>
  </outline>
</glyph>
<glyph name="three-tamil" format="2">
  <advance width="818.6666666666666"/>
  <unicode hex="0BE9"/>
  <note>
uni0BE9
</note>
  <outline>
    <contour>
      <point x="89.56666666666666" y="0.0" type="line"/>
      <point x="148.36666666666667" y="0.0" type="line"/>
      <point x="148.36666666666667" y="500.0" type="line"/>
      <point x="299.3333333333333" y="500.0" type="line"/>
      <point x="299.3333333333333" y="196.0" type="line"/>
      <point x="391.03333333333336" y="196.0" type="line"/>
      <point x="391.03333333333336" y="229.23333333333332" type="line" smooth="yes"/>
      <point x="391.03333333333336" y="279.93333333333334"/>
      <point x="420.3666666666667" y="314.9"/>
      <point x="464.3" y="314.9" type="curve" smooth="yes"/>
      <point x="511.9666666666667" y="314.9"/>
      <point x="545.4666666666667" y="276.3"/>
      <point x="545.4666666666667" y="210.0" type="curve" smooth="yes"/>
      <point x="545.4666666666667" y="90.4"/>
      <point x="454.53333333333336" y="54.0"/>
      <point x="396.0" y="54.0" type="curve" smooth="yes"/>
      <point x="299.3333333333333" y="54.0" type="line"/>
      <point x="299.3333333333333" y="0.0" type="line"/>
      <point x="798.5666666666667" y="0.0" type="line"/>
      <point x="798.5666666666667" y="54.0" type="line"/>
      <point x="508.3" y="54.0" type="line"/>
      <point x="572.2" y="71.46666666666667"/>
      <point x="635.9" y="134.33333333333334"/>
      <point x="635.9" y="226.0" type="curve" smooth="yes"/>
      <point x="635.9" y="316.46666666666664"/>
      <point x="577.8" y="379.0"/>
      <point x="497.76666666666665" y="379.0" type="curve" smooth="yes"/>
      <point x="436.3666666666667" y="379.0"/>
      <point x="401.76666666666665" y="341.6666666666667"/>
      <point x="391.76666666666665" y="315.76666666666665" type="curve"/>
      <point x="391.76666666666665" y="500.0" type="line"/>
      <point x="546.2333333333333" y="500.0" type="line"/>
      <point x="546.2333333333333" y="554.0" type="line"/>
      <point x="89.56666666666666" y="554.0" type="line"/>
    </contour>
  </outline>
</glyph>
<glyph name="four-tamil" format="2">
  <advance width="814.5"/>
  <unicode hex="0BEA"/>
  <note>
uni0BEA
</note>
  <outline>
    <contour>
      <point x="253.8" y="-4.0" type="curve" smooth="yes"/>
      <point x="392.53333333333336" y="-4.0"/>
      <point x="470.0" y="75.23333333333333"/>
      <point x="470.0" y="200.0" type="curve" smooth="yes"/>
      <point x="470.0" y="263.0" type="line"/>
      <point x="769.5333333333333" y="263.0" type="line"/>
      <point x="769.5333333333333" y="554.0" type="line"/>
      <point x="710.7333333333333" y="554.0" type="line"/>
      <point x="710.7333333333333" y="317.0" type="line"/>
      <point x="470.0" y="317.0" type="line"/>
      <point x="470.0" y="500.0" type="line"/>
      <point x="624.8333333333334" y="500.0" type="line"/>
      <point x="624.8333333333334" y="554.0" type="line"/>
      <point x="177.4" y="554.0" type="line"/>
      <point x="177.4" y="286.0" type="line"/>
      <point x="236.2" y="286.0" type="line"/>
      <point x="236.2" y="500.0" type="line"/>
      <point x="376.8333333333333" y="500.0" type="line"/>
      <point x="376.8333333333333" y="317.0" type="line"/>
      <point x="226.43333333333334" y="317.0" type="line" smooth="yes"/>
      <point x="123.53333333333333" y="317.0"/>
      <point x="57.13333333333333" y="256.0"/>
      <point x="57.13333333333333" y="162.0" type="curve" smooth="yes"/>
      <point x="57.13333333333333" y="60.46666666666667"/>
      <point x="138.83333333333334" y="-4.0"/>
    </contour>
    <contour>
      <point x="245.43333333333334" y="49.0" type="curve" smooth="yes"/>
      <point x="171.03333333333333" y="49.0"/>
      <point x="117.66666666666667" y="85.46666666666667"/>
      <point x="117.66666666666667" y="160.0" type="curve" smooth="yes"/>
      <point x="117.66666666666667" y="223.0"/>
      <point x="157.23333333333335" y="263.0"/>
      <point x="234.06666666666666" y="263.0" type="curve" smooth="yes"/>
      <point x="376.8333333333333" y="263.0" type="line"/>
      <point x="376.8333333333333" y="189.0" type="line" smooth="yes"/>
      <point x="376.8333333333333" y="88.53333333333333"/>
      <point x="316.9" y="49.0"/>
    </contour>
  </outline>
</glyph>
<glyph name="five-tamil" format="2">
  <advance width="1021.1666666666666"/>
  <unicode hex="0BEB"/>
  <note>
uni0BEB
</note>
  <outline>
    <contour>
      <point x="499.23333333333335" y="-296.0" type="curve" smooth="yes"/>
      <point x="764.1" y="-296.0"/>
      <point x="896.4666666666667" y="-112.66666666666667"/>
      <point x="896.4666666666667" y="112.0" type="curve" smooth="yes"/>
      <point x="896.4666666666667" y="245.0"/>
      <point x="836.9666666666667" y="345.0"/>
      <point x="726.6" y="345.0" type="curve" smooth="yes"/>
      <point x="647.7333333333333" y="345.0"/>
      <point x="594.3333333333334" y="282.1"/>
      <point x="594.3333333333334" y="189.4" type="curve" smooth="yes"/>
      <point x="594.3333333333334" y="138.0" type="line"/>
      <point x="622.3333333333334" y="138.0" type="line"/>
      <point x="622.3333333333334" y="188.5" type="line" smooth="yes"/>
      <point x="622.3333333333334" y="238.56666666666666"/>
      <point x="649.7666666666667" y="285.26666666666665"/>
      <point x="701.3333333333334" y="285.26666666666665" type="curve" smooth="yes"/>
      <point x="775.9666666666667" y="285.26666666666665"/>
      <point x="801.9333333333334" y="202.0"/>
      <point x="801.9333333333334" y="102.0" type="curve" smooth="yes"/>
      <point x="801.9333333333334" y="-95.66666666666667"/>
      <point x="716.8333333333334" y="-243.0"/>
      <point x="495.56666666666666" y="-243.0" type="curve" smooth="yes"/>
      <point x="244.76666666666668" y="-243.0"/>
      <point x="114.5" y="-12.0"/>
      <point x="114.5" y="264.0" type="curve" smooth="yes"/>
      <point x="114.5" y="549.0"/>
      <point x="251.0" y="739.0"/>
      <point x="521.4" y="739.0" type="curve" smooth="yes"/>
      <point x="748.8" y="739.0"/>
      <point x="878.8666666666667" y="621.0"/>
      <point x="895.5" y="396.0" type="curve"/>
      <point x="955.4" y="396.0" type="line"/>
      <point x="936.9333333333334" y="658.8"/>
      <point x="767.4666666666667" y="829.0"/>
      <point x="520.3" y="829.0" type="curve" smooth="yes"/>
      <point x="212.66666666666666" y="829.0"/>
      <point x="56.06666666666667" y="584.0"/>
      <point x="56.06666666666667" y="264.0" type="curve" smooth="yes"/>
      <point x="56.06666666666667" y="-38.0"/>
      <point x="213.06666666666666" y="-296.0"/>
    </contour>
    <contour>
      <point x="306.5" y="0.0" type="line"/>
      <point x="365.93333333333334" y="0.0" type="line"/>
      <point x="365.93333333333334" y="500.0" type="line"/>
      <point x="529.1666666666666" y="500.0" type="line"/>
      <point x="529.1666666666666" y="0.0" type="line"/>
      <point x="622.3333333333334" y="0.0" type="line"/>
      <point x="622.3333333333334" y="500.0" type="line"/>
      <point x="777.1666666666666" y="500.0" type="line"/>
      <point x="777.1666666666666" y="554.0" type="line"/>
      <point x="306.5" y="554.0" type="line"/>
    </contour>
  </outline>
</glyph>
<glyph name="six-tamil" format="2">
  <advance width="1016.0"/>
  <unicode hex="0BEC"/>
  <note>
uni0BEC
</note>
  <outline>
    <contour>
      <point x="253.8" y="-4.0" type="curve" smooth="yes"/>
      <point x="394.3666666666667" y="-4.0"/>
      <point x="470.0" y="75.23333333333333"/>
      <point x="470.0" y="200.0" type="curve" smooth="yes"/>
      <point x="470.0" y="263.0" type="line"/>
      <point x="544.5666666666667" y="263.0" type="line" smooth="yes"/>
      <point x="573.3666666666667" y="263.0"/>
      <point x="589.9" y="246.0"/>
      <point x="589.9" y="214.0" type="curve" smooth="yes"/>
      <point x="589.9" y="0.0" type="line"/>
      <point x="678.9666666666667" y="0.0" type="line"/>
      <point x="678.9666666666667" y="214.0" type="line" smooth="yes"/>
      <point x="678.9666666666667" y="246.0"/>
      <point x="694.8666666666667" y="263.0"/>
      <point x="724.3" y="263.0" type="curve" smooth="yes"/>
      <point x="969.4666666666667" y="263.0" type="line"/>
      <point x="969.4666666666667" y="317.0" type="line"/>
      <point x="714.6666666666666" y="317.0" type="line" smooth="yes"/>
      <point x="671.9666666666667" y="317.0"/>
      <point x="641.0666666666667" y="296.46666666666664"/>
      <point x="634.4333333333334" y="258.93333333333334" type="curve"/>
      <point x="627.8" y="296.46666666666664"/>
      <point x="596.9" y="317.0"/>
      <point x="553.2" y="317.0" type="curve" smooth="yes"/>
      <point x="470.0" y="317.0" type="line"/>
      <point x="470.0" y="500.0" type="line"/>
      <point x="624.8333333333334" y="500.0" type="line"/>
      <point x="624.8333333333334" y="554.0" type="line"/>
      <point x="177.4" y="554.0" type="line"/>
      <point x="177.4" y="286.0" type="line"/>
      <point x="236.2" y="286.0" type="line"/>
      <point x="236.2" y="500.0" type="line"/>
      <point x="376.8333333333333" y="500.0" type="line"/>
      <point x="376.8333333333333" y="317.0" type="line"/>
      <point x="226.43333333333334" y="317.0" type="line" smooth="yes"/>
      <point x="123.53333333333333" y="317.0"/>
      <point x="57.13333333333333" y="256.0"/>
      <point x="57.13333333333333" y="162.0" type="curve" smooth="yes"/>
      <point x="57.13333333333333" y="60.46666666666667"/>
      <point x="138.83333333333334" y="-4.0"/>
    </contour>
    <contour>
      <point x="245.43333333333334" y="49.0" type="curve" smooth="yes"/>
      <point x="171.03333333333333" y="49.0"/>
      <point x="117.66666666666667" y="85.46666666666667"/>
      <point x="117.66666666666667" y="160.0" type="curve" smooth="yes"/>
      <point x="117.66666666666667" y="223.0"/>
      <point x="157.23333333333335" y="263.0"/>
      <point x="234.06666666666666" y="263.0" type="curve" smooth="yes"/>
      <point x="376.8333333333333" y="263.0" type="line"/>
      <point x="376.8333333333333" y="189.0" type="line" smooth="yes"/>
      <point x="376.8333333333333" y="88.53333333333333"/>
      <point x="318.73333333333335" y="49.0"/>
    </contour>
    <contour>
      <point x="797.4" y="0.0" type="line"/>
      <point x="887.4666666666667" y="0.0" type="line"/>
      <point x="887.4666666666667" y="288.0" type="line"/>
      <point x="797.4" y="288.0" type="line"/>
    </contour>
  </outline>
</glyph>
<glyph name="eight-tamil" format="2">
  <advance width="1194.7"/>
  <unicode hex="0BEE"/>
  <note>
uni0BEE
</note>
  <outline>
    <contour>
      <point x="1012.6" y="-196.03333333333333" type="line"/>
      <point x="1105.4" y="-196.03333333333333" type="line"/>
      <point x="1105.4" y="554.0" type="line"/>
      <point x="1012.6" y="554.0" type="line"/>
      <point x="1012.6" y="171.0" type="line"/>
      <point x="117.73333333333333" y="171.0" type="line" smooth="yes"/>
      <point x="64.23333333333333" y="171.0"/>
      <point x="37.166666666666664" y="143.0"/>
      <point x="37.166666666666664" y="99.0" type="curve" smooth="yes"/>
      <point x="37.166666666666664" y="4.0"/>
      <point x="182.76666666666668" y="-122.0"/>
      <point x="412.1" y="-122.0" type="curve" smooth="yes"/>
      <point x="690.1333333333333" y="-122.0"/>
      <point x="872.8666666666667" y="15.533333333333333"/>
      <point x="872.8666666666667" y="258.53333333333336" type="curve" smooth="yes"/>
      <point x="872.8666666666667" y="440.56666666666666"/>
      <point x="763.1333333333333" y="559.0"/>
      <point x="597.4333333333334" y="559.0" type="curve" smooth="yes"/>
      <point x="454.53333333333336" y="559.0"/>
      <point x="351.23333333333335" y="466.43333333333334"/>
      <point x="351.23333333333335" y="324.0" type="curve" smooth="yes"/>
      <point x="351.23333333333335" y="256.0"/>
      <point x="374.3" y="195.0"/>
      <point x="423.06666666666666" y="138.0" type="curve"/>
      <point x="488.56666666666666" y="138.0" type="line"/>
      <point x="433.53333333333336" y="196.0"/>
      <point x="409.4666666666667" y="252.0"/>
      <point x="409.4666666666667" y="314.0" type="curve" smooth="yes"/>
      <point x="409.4666666666667" y="433.26666666666665"/>
      <point x="488.1333333333333" y="505.0"/>
      <point x="588.6" y="505.0" type="curve" smooth="yes"/>
      <point x="706.1333333333333" y="505.0"/>
      <point x="779.4333333333334" y="404.1"/>
      <point x="779.4333333333334" y="260.0" type="curve" smooth="yes"/>
      <point x="779.4333333333334" y="56.63333333333333"/>
      <point x="642.1666666666666" y="-68.0"/>
      <point x="409.9" y="-68.0" type="curve" smooth="yes"/>
      <point x="222.8" y="-68.0"/>
      <point x="94.7" y="29.0"/>
      <point x="94.7" y="91.0" type="curve" smooth="yes"/>
      <point x="94.7" y="107.0"/>
      <point x="101.33333333333333" y="117.0"/>
      <point x="125.4" y="117.0" type="curve" smooth="yes"/>
      <point x="1012.6" y="117.0" type="line"/>
    </contour>
  </outline>
</glyph>
<glyph name="nine-tamil" format="2">
  <advance width="1145.8333333333333"/>
  <unicode hex="0BEF"/>
  <note>
uni0BEF
</note>
  <outline>
    <contour>
      <point x="954.8333333333334" y="-20.0" type="line"/>
      <point x="1034.7666666666667" y="19.566666666666666"/>
      <point x="1100.5" y="79.93333333333334"/>
      <point x="1100.5" y="187.1" type="curve" smooth="yes"/>
      <point x="1100.5" y="329.8333333333333"/>
      <point x="976.2" y="423.0"/>
      <point x="829.3666666666667" y="423.0" type="curve" smooth="yes"/>
      <point x="681.7333333333333" y="423.0"/>
      <point x="564.0666666666667" y="327.06666666666666"/>
      <point x="564.0666666666667" y="177.16666666666666" type="curve" smooth="yes"/>
      <point x="564.0666666666667" y="75.9"/>
      <point x="616.7333333333333" y="-5.0"/>
      <point x="729.1" y="-5.0" type="curve" smooth="yes"/>
      <point x="818.6666666666666" y="-5.0"/>
      <point x="884.8" y="55.333333333333336"/>
      <point x="884.8" y="142.9" type="curve" smooth="yes"/>
      <point x="884.8" y="258.96666666666664"/>
      <point x="791.6" y="317.0"/>
      <point x="661.1333333333333" y="317.0" type="curve" smooth="yes"/>
      <point x="470.0" y="317.0" type="line"/>
      <point x="470.0" y="500.0" type="line"/>
      <point x="624.8333333333334" y="500.0" type="line"/>
      <point x="624.8333333333334" y="554.0" type="line"/>
      <point x="177.4" y="554.0" type="line"/>
      <point x="177.4" y="286.0" type="line"/>
      <point x="236.2" y="286.0" type="line"/>
      <point x="236.2" y="500.0" type="line"/>
      <point x="376.8333333333333" y="500.0" type="line"/>
      <point x="376.8333333333333" y="317.0" type="line"/>
      <point x="226.43333333333334" y="317.0" type="line" smooth="yes"/>
      <point x="123.53333333333333" y="317.0"/>
      <point x="57.13333333333333" y="256.0"/>
      <point x="57.13333333333333" y="162.0" type="curve" smooth="yes"/>
      <point x="57.13333333333333" y="60.46666666666667"/>
      <point x="138.83333333333334" y="-4.0"/>
      <point x="253.8" y="-4.0" type="curve" smooth="yes"/>
      <point x="392.53333333333336" y="-4.0"/>
      <point x="470.0" y="75.23333333333333"/>
      <point x="470.0" y="200.0" type="curve" smooth="yes"/>
      <point x="470.0" y="263.0" type="line"/>
      <point x="659.3" y="263.0" type="line" smooth="yes"/>
      <point x="739.3333333333334" y="263.0"/>
      <point x="793.0" y="218.9"/>
      <point x="793.0" y="135.9" type="curve" smooth="yes"/>
      <point x="793.0" y="84.46666666666667"/>
      <point x="764.3333333333334" y="49.0"/>
      <point x="712.9333333333334" y="49.0" type="curve" smooth="yes"/>
      <point x="653.8333333333334" y="49.0"/>
      <point x="621.7666666666667" y="105.9"/>
      <point x="621.7666666666667" y="170.53333333333333" type="curve" smooth="yes"/>
      <point x="621.7666666666667" y="291.7"/>
      <point x="697.7333333333333" y="370.0"/>
      <point x="815.7333333333333" y="370.0" type="curve" smooth="yes"/>
      <point x="931.9" y="370.0"/>
      <point x="1008.0666666666667" y="301.73333333333335"/>
      <point x="1008.0666666666667" y="180.0" type="curve" smooth="yes"/>
      <point x="1008.0666666666667" y="120.0"/>
      <point x="986.2" y="52.56666666666666"/>
      <point x="930.6333333333333" y="16.0" type="curve"/>
    </contour>
    <contour>
      <point x="245.43333333333334" y="49.0" type="curve" smooth="yes"/>
      <point x="171.03333333333333" y="49.0"/>
      <point x="117.66666666666667" y="85.46666666666667"/>
      <point x="117.66666666666667" y="160.0" type="curve" smooth="yes"/>
      <point x="117.66666666666667" y="223.0"/>
      <point x="157.23333333333335" y="263.0"/>
      <point x="234.06666666666666" y="263.0" type="curve" smooth="yes"/>
      <point x="376.8333333333333" y="263.0" type="line"/>
      <point x="376.8333333333333" y="189.0" type="line" smooth="yes"/>
      <point x="376.8333333333333" y="88.53333333333333"/>
      <point x="316.9" y="49.0"/>
    </contour>
  </outline>
</glyph>
<glyph name="ten-tamil" format="2">
  <advance width="777.2"/>
  <unicode hex="0BF0"/>
  <note>
uni0BF0
</note>
  <outline>
    <contour>
      <point x="469.3333333333333" y="-5.0" type="curve" smooth="yes"/>
      <point x="622.5666666666667" y="-5.0"/>
      <point x="708.9" y="150.0"/>
      <point x="708.9" y="326.0" type="curve" smooth="yes"/>
      <point x="708.9" y="596.6666666666666"/>
      <point x="555.8333333333334" y="765.0"/>
      <point x="289.73333333333335" y="796.0" type="curve"/>
      <point x="285.4666666666667" y="742.0" type="line"/>
      <point x="528.6333333333333" y="717.0"/>
      <point x="650.8333333333334" y="545.3"/>
      <point x="650.8333333333334" y="336.0" type="curve" smooth="yes"/>
      <point x="650.8333333333334" y="160.0"/>
      <point x="576.7333333333333" y="49.0"/>
      <point x="480.0" y="49.0" type="curve" smooth="yes"/>
      <point x="436.0" y="49.0"/>
      <point x="414.6666666666667" y="74.86666666666667"/>
      <point x="414.6666666666667" y="125.73333333333333" type="curve" smooth="yes"/>
      <point x="414.6666666666667" y="554.0" type="line"/>
      <point x="323.4" y="554.0" type="line"/>
      <point x="323.4" y="150.26666666666668" type="line" smooth="yes"/>
      <point x="323.4" y="59.7"/>
      <point x="368.3333333333333" y="-5.0"/>
    </contour>
    <contour>
      <point x="224.3" y="-5.0" type="curve" smooth="yes"/>
      <point x="304.1333333333333" y="-5.0"/>
      <point x="359.03333333333336" y="40.6"/>
      <point x="359.03333333333336" y="155.23333333333332" type="curve" smooth="yes"/>
      <point x="359.03333333333336" y="207.0" type="line"/>
      <point x="323.4" y="207.0" type="line"/>
      <point x="323.4" y="151.6" type="line" smooth="yes"/>
      <point x="323.4" y="91.86666666666667"/>
      <point x="296.8" y="49.0"/>
      <point x="248.03333333333333" y="49.0" type="curve" smooth="yes"/>
      <point x="202.63333333333333" y="49.0"/>
      <point x="181.56666666666666" y="70.16666666666667"/>
      <point x="181.56666666666666" y="127.96666666666667" type="curve" smooth="yes"/>
      <point x="181.56666666666666" y="554.0" type="line"/>
      <point x="87.66666666666667" y="554.0" type="line"/>
      <point x="87.66666666666667" y="139.6" type="line" smooth="yes"/>
      <point x="87.66666666666667" y="42.53333333333333"/>
      <point x="141.26666666666668" y="-5.0"/>
    </contour>
  </outline>
</glyph>
<glyph name="onehundred-tamil" format="2">
  <advance width="814.2"/>
  <unicode hex="0BF1"/>
  <note>
uni0BF1
</note>
  <outline>
    <contour>
      <point x="284.5" y="0.0" type="line"/>
      <point x="342.6666666666667" y="0.0" type="line"/>
      <point x="342.6666666666667" y="500.0" type="line"/>
      <point x="540.6" y="500.0" type="line"/>
      <point x="540.6" y="0.0" type="line"/>
      <point x="632.7666666666667" y="0.0" type="line"/>
      <point x="632.7666666666667" y="500.0" type="line"/>
      <point x="788.2333333333333" y="500.0" type="line"/>
      <point x="788.2333333333333" y="554.0" type="line"/>
      <point x="284.5" y="554.0" type="line"/>
    </contour>
    <contour>
      <point x="69.43333333333334" y="0.0" type="line"/>
      <point x="128.96666666666667" y="0.0" type="line"/>
      <point x="128.96666666666667" y="415.3333333333333" type="line" smooth="yes"/>
      <point x="128.96666666666667" y="472.6666666666667"/>
      <point x="155.2" y="505.0"/>
      <point x="206.23333333333335" y="505.0" type="curve" smooth="yes"/>
      <point x="255.26666666666668" y="505.0"/>
      <point x="284.5" y="467.23333333333335"/>
      <point x="284.5" y="409.23333333333335" type="curve"/>
      <point x="314.6666666666667" y="409.23333333333335" type="line"/>
      <point x="314.6666666666667" y="497.23333333333335"/>
      <point x="267.6333333333333" y="559.0"/>
      <point x="193.66666666666666" y="559.0" type="curve" smooth="yes"/>
      <point x="116.3" y="559.0"/>
      <point x="69.43333333333334" y="503.4"/>
      <point x="69.43333333333334" y="416.43333333333334" type="curve" smooth="yes"/>
    </contour>
  </outline>
</glyph>
<glyph name="onethousand-tamil" format="2">
  <advance width="1050.5"/>
  <unicode hex="0BF2"/>
  <note>
uni0BF2
</note>
  <outline>
    <contour>
      <point x="237.46666666666667" y="-4.0" type="curve" smooth="yes"/>
      <point x="376.8333333333333" y="-4.0"/>
      <point x="453.6666666666667" y="75.23333333333333"/>
      <point x="453.6666666666667" y="200.0" type="curve" smooth="yes"/>
      <point x="453.6666666666667" y="500.0" type="line"/>
      <point x="609.1333333333333" y="500.0" type="line"/>
      <point x="609.1333333333333" y="554.0" type="line"/>
      <point x="161.06666666666666" y="554.0" type="line"/>
      <point x="161.06666666666666" y="286.0" type="line"/>
      <point x="219.86666666666667" y="286.0" type="line"/>
      <point x="219.86666666666667" y="500.0" type="line"/>
      <point x="360.5" y="500.0" type="line"/>
      <point x="360.5" y="189.0" type="line" smooth="yes"/>
      <point x="360.5" y="88.53333333333333"/>
      <point x="300.93333333333334" y="49.0"/>
      <point x="229.1" y="49.0" type="curve" smooth="yes"/>
      <point x="155.33333333333334" y="49.0"/>
      <point x="101.7" y="85.46666666666667"/>
      <point x="101.7" y="160.0" type="curve" smooth="yes"/>
      <point x="101.7" y="223.0"/>
      <point x="141.9" y="263.0"/>
      <point x="217.73333333333335" y="263.0" type="curve" smooth="yes"/>
      <point x="933.7" y="263.0" type="line"/>
      <point x="933.7" y="317.0" type="line"/>
      <point x="210.1" y="317.0" type="line" smooth="yes"/>
      <point x="107.83333333333333" y="317.0"/>
      <point x="41.43333333333334" y="256.0"/>
      <point x="41.43333333333334" y="162.0" type="curve" smooth="yes"/>
      <point x="41.43333333333334" y="60.46666666666667"/>
      <point x="122.5" y="-4.0"/>
    </contour>
    <contour>
      <point x="462.9666666666667" y="-280.6" type="curve"/>
      <point x="462.9666666666667" y="-213.6"/>
      <point x="481.5" y="-174.6"/>
      <point x="567.5333333333333" y="-174.6" type="curve" smooth="yes"/>
      <point x="741.8666666666667" y="-174.6" type="line" smooth="yes"/>
      <point x="899.1" y="-174.6"/>
      <point x="1009.0666666666667" y="-128.23333333333332"/>
      <point x="1009.0666666666667" y="18.0" type="curve" smooth="yes"/>
      <point x="1009.0666666666667" y="126.63333333333334"/>
      <point x="932.1333333333333" y="188.0"/>
      <point x="812.4" y="188.0" type="curve" smooth="yes"/>
      <point x="648.2333333333333" y="188.0" type="line" smooth="yes"/>
      <point x="569.2333333333333" y="188.0"/>
      <point x="513.4333333333334" y="146.9"/>
      <point x="513.4333333333334" y="68.63333333333334" type="curve" smooth="yes"/>
      <point x="513.4333333333334" y="-4.366666666666666"/>
      <point x="572.5333333333333" y="-56.0"/>
      <point x="652.5666666666667" y="-56.0" type="curve" smooth="yes"/>
      <point x="755.4666666666667" y="-56.0"/>
      <point x="812.3333333333334" y="11.666666666666668"/>
      <point x="812.3333333333334" y="101.66666666666667" type="curve" smooth="yes"/>
      <point x="812.3333333333334" y="291.0" type="line"/>
      <point x="726.7333333333333" y="291.0" type="line"/>
      <point x="726.7333333333333" y="92.76666666666667" type="line" smooth="yes"/>
      <point x="726.7333333333333" y="26.433333333333334"/>
      <point x="693.9666666666667" y="-2.0"/>
      <point x="645.6666666666666" y="-2.0" type="curve" smooth="yes"/>
      <point x="604.6333333333333" y="-2.0"/>
      <point x="572.2333333333333" y="21.0"/>
      <point x="572.2333333333333" y="66.63333333333334" type="curve" smooth="yes"/>
      <point x="572.2333333333333" y="114.26666666666667"/>
      <point x="602.9333333333334" y="134.0"/>
      <point x="654.1333333333333" y="134.0" type="curve" smooth="yes"/>
      <point x="812.7666666666667" y="134.0" type="line" smooth="yes"/>
      <point x="888.3333333333334" y="134.0"/>
      <point x="924.7333333333333" y="89.0"/>
      <point x="924.7333333333333" y="18.0" type="curve" smooth="yes"/>
      <point x="924.7333333333333" y="-85.33333333333333"/>
      <point x="848.8666666666667" y="-120.6"/>
      <point x="720.8333333333334" y="-120.6" type="curve" smooth="yes"/>
      <point x="533.5333333333333" y="-120.6" type="line" smooth="yes"/>
      <point x="452.1333333333333" y="-120.6"/>
      <point x="378.73333333333335" y="-138.6"/>
      <point x="378.73333333333335" y="-210.96666666666667" type="curve" smooth="yes"/>
      <point x="378.73333333333335" y="-259.6"/>
      <point x="408.0" y="-280.6"/>
    </contour>
  </outline>
</glyph>
<glyph name="day-tamil" format="2">
  <advance width="852.6666666666666"/>
  <unicode hex="0BF3"/>
  <note>
uni0BF3
</note>
  <outline>
    <contour>
      <point x="249.3" y="-4.366666666666666" type="curve" smooth="yes"/>
      <point x="348.8666666666667" y="-4.366666666666666"/>
      <point x="413.53333333333336" y="58.9"/>
      <point x="413.53333333333336" y="150.73333333333332" type="curve" smooth="yes"/>
      <point x="413.53333333333336" y="243.1"/>
      <point x="358.8333333333333" y="303.6333333333333"/>
      <point x="273.6333333333333" y="303.6333333333333" type="curve" smooth="yes"/>
      <point x="180.3" y="303.6333333333333"/>
      <point x="113.33333333333333" y="223.13333333333333"/>
      <point x="108.16666666666667" y="121.8" type="curve"/>
      <point x="137.43333333333334" y="95.16666666666667" type="line"/>
      <point x="140.86666666666667" y="179.5"/>
      <point x="182.53333333333333" y="236.0"/>
      <point x="240.66666666666666" y="236.0" type="curve" smooth="yes"/>
      <point x="299.1333333333333" y="236.0"/>
      <point x="324.1" y="190.63333333333333"/>
      <point x="324.1" y="146.0" type="curve" smooth="yes"/>
      <point x="324.1" y="91.63333333333334"/>
      <point x="292.43333333333334" y="49.0"/>
      <point x="233.4" y="49.0" type="curve" smooth="yes"/>
      <point x="167.26666666666668" y="49.0"/>
      <point x="109.66666666666667" y="111.56666666666666"/>
      <point x="109.66666666666667" y="237.96666666666667" type="curve" smooth="yes"/>
      <point x="109.66666666666667" y="405.56666666666666"/>
      <point x="205.23333333333335" y="505.0"/>
      <point x="355.23333333333335" y="505.0" type="curve" smooth="yes"/>
      <point x="492.8666666666667" y="505.0"/>
      <point x="587.7" y="401.6333333333333"/>
      <point x="587.7" y="260.6666666666667" type="curve" smooth="yes"/>
      <point x="587.7" y="153.66666666666666"/>
      <point x="553.4666666666667" y="88.13333333333333"/>
      <point x="514.7666666666667" y="41.9" type="curve"/>
      <point x="531.3" y="0.0" type="line"/>
      <point x="837.3333333333334" y="0.0" type="line"/>
      <point x="837.3333333333334" y="54.0" type="line"/>
      <point x="597.5333333333333" y="54.0" type="line"/>
      <point x="639.8" y="102.86666666666666"/>
      <point x="680.4" y="168.76666666666668"/>
      <point x="680.4" y="266.1333333333333" type="curve" smooth="yes"/>
      <point x="680.4" y="441.3666666666667"/>
      <point x="548.5" y="559.0"/>
      <point x="368.9666666666667" y="559.0" type="curve" smooth="yes"/>
      <point x="183.5" y="559.0"/>
      <point x="53.5" y="440.3666666666667"/>
      <point x="53.5" y="240.23333333333332" type="curve" smooth="yes"/>
      <point x="53.5" y="79.2"/>
      <point x="142.8" y="-4.366666666666666"/>
    </contour>
  </outline>
</glyph>
